<?xml version="1.0" encoding="UTF-8" standalone="no"?>
<svg
   xmlns:dc="http://purl.org/dc/elements/1.1/"
   xmlns:cc="http://creativecommons.org/ns#"
   xmlns:rdf="http://www.w3.org/1999/02/22-rdf-syntax-ns#"
   xmlns:svg="http://www.w3.org/2000/svg"
   xmlns="http://www.w3.org/2000/svg"
   xmlns:sodipodi="http://sodipodi.sourceforge.net/DTD/sodipodi-0.dtd"
   xmlns:inkscape="http://www.inkscape.org/namespaces/inkscape"
   id="Capa_1"
   enable-background="new 0 0 512 512"
   height="100"
   viewBox="0 0 99.714256 100"
   width="99.714256"
   version="1.1"
   sodipodi:docname="settings.html"
   inkscape:version="1.0.2-2 (e86c870879, 2021-01-15)">
  <metadata
     id="metadata865">
    <rdf:RDF>
      <cc:Work
         rdf:about="">
        <dc:format>image/svg+xml</dc:format>
        <dc:type
           rdf:resource="http://purl.org/dc/dcmitype/StillImage" />
        <dc:title></dc:title>
      </cc:Work>
    </rdf:RDF>
  </metadata>
  <defs
     id="defs863" />
  <sodipodi:namedview
     pagecolor="#ffffff"
     bordercolor="#666666"
     borderopacity="1"
     objecttolerance="10"
     gridtolerance="10"
     guidetolerance="10"
     inkscape:pageopacity="0"
     inkscape:pageshadow="2"
     inkscape:window-width="1600"
     inkscape:window-height="837"
     id="namedview861"
     showgrid="false"
     fit-margin-top="0"
     fit-margin-left="0"
     fit-margin-right="0"
     fit-margin-bottom="0"
     inkscape:zoom="1.2636719"
     inkscape:cx="255.269"
     inkscape:cy="256"
     inkscape:window-x="-8"
     inkscape:window-y="-8"
     inkscape:window-maximized="1"
     inkscape:current-layer="Capa_1" />
  <g
     id="g858"
     transform="matrix(0.1953125,0,0,0.1953125,-0.14277344,0)"
     style="fill:#ffffff">
    <g
       id="g856"
       style="fill:#ffffff">
      <path
         d="m 260.3,210.143 c 33.241,-2.101 59.893,-28.752 61.994,-61.993 2.522,-39.92 -30.403,-73.132 -70.595,-70.595 -33.241,2.1 -59.893,28.751 -61.994,61.992 -2.532,40.076 30.579,73.133 70.595,70.596 z m -55.64,-69.651 c 1.626,-25.729 22.255,-46.358 47.984,-47.984 31.042,-1.952 56.658,23.631 54.695,54.696 -1.626,25.729 -22.255,46.358 -47.984,47.984 -31.011,1.953 -56.659,-23.605 -54.695,-54.696 z"
         id="path850"
         style="fill:#ffffff" />
      <path
         d="m 141.561,108.555 c -0.056,-0.001 -0.109,0 -0.164,0 -16.065,0 -29.246,12.523 -29.246,28.702 v 12.475 c 0,16.217 13.193,29.411 29.41,29.411 10.81,0 16.227,13.004 8.561,20.67 -11.466,11.467 -11.466,30.126 0,41.593 l 8.32,8.32 c 11.495,11.493 30.098,11.496 41.593,0 7.646,-7.645 20.67,-2.277 20.67,8.562 0,16.217 13.193,29.41 29.41,29.41 h 11.767 c 16.217,0 29.411,-13.194 29.411,-29.41 0,-10.826 13.019,-16.214 20.67,-8.562 11.468,11.467 30.125,11.467 41.593,0 l 8.32,-8.32 c 11.466,-11.467 11.466,-30.126 0,-41.593 -7.672,-7.67 -2.24,-20.67 8.562,-20.67 h 0.163 c 16.101,0 29.247,-12.553 29.247,-28.701 v -13.184 c 0,-16.161 -13.16,-28.702 -29.246,-28.702 -0.038,0 -0.076,0 -0.114,0 -0.017,0 -0.032,0 -0.049,0 -10.82,0 -16.224,-13.012 -8.563,-20.67 11.466,-11.467 11.466,-30.125 -10e-4,-41.593 l -8.821,-8.821 C 341.688,26.103 323.463,26.39 312,37.936 304.355,45.639 291.294,40.257 291.294,29.41 291.294,13.193 278.101,0 261.883,0 h -11.767 c -16.217,0 -29.41,13.194 -29.41,29.41 0,10.81 -13.003,16.226 -20.67,8.561 -11.468,-11.467 -30.125,-11.467 -41.593,0 l -8.32,8.32 c -11.466,11.467 -11.466,30.126 0.001,41.593 7.684,7.685 2.214,20.671 -8.563,20.671 z m 19.158,-31.266 c -5.625,-5.624 -5.625,-14.777 0,-20.402 l 8.32,-8.32 c 5.637,-5.637 14.762,-5.638 20.4,0 17.06,17.06 46.25,5.01 46.25,-19.157 0,-7.955 6.472,-14.426 14.426,-14.426 h 11.767 c 7.955,0 14.426,6.472 14.426,14.426 0,24.179 29.261,36.27 46.323,19.082 5.645,-5.685 14.362,-5.893 19.827,-0.426 l 8.821,8.821 c 5.625,5.625 5.625,14.777 10e-4,20.402 -17.111,17.109 -4.929,46.377 19.262,46.249 h 0.058 c 7.916,0 14.263,5.94 14.263,13.718 v 13.184 c 0,7.789 -6.359,13.717 -14.263,13.717 -0.058,0 -0.109,10e-4 -0.163,0 -24.134,0 -36.242,29.164 -19.158,46.25 5.625,5.625 5.625,14.777 0,20.402 l -8.32,8.32 c -5.638,5.638 -14.761,5.638 -20.401,-0.001 -17.063,-17.061 -46.249,-5.006 -46.249,19.158 0,7.955 -6.472,14.426 -14.426,14.426 h -11.767 c -7.955,0 -14.426,-6.472 -14.426,-14.427 0,-24.128 -29.16,-36.246 -46.25,-19.157 -5.637,5.637 -14.762,5.638 -20.4,0 l -8.32,-8.32 c -5.625,-5.625 -5.625,-14.777 0,-20.402 17.066,-17.067 5.002,-46.25 -19.158,-46.25 -7.955,0 -14.426,-6.472 -14.426,-14.426 v -12.475 c 0,-7.79 6.36,-13.718 14.263,-13.718 h 0.163 c 24.129,10e-4 36.244,-29.16 19.157,-46.248 z"
         id="path852"
         style="fill:#ffffff" />
      <path
         d="m 482.136,69.721 h -86.288 c -4.138,0 -7.492,3.354 -7.492,7.492 0,4.138 3.354,7.492 7.492,7.492 h 86.288 c 7.801,0 14.148,6.347 14.148,14.148 V 334.825 H 15.715 V 98.853 c 0,-7.801 6.347,-14.148 14.148,-14.148 h 86.45 c 4.138,0 7.492,-3.354 7.492,-7.492 0,-4.138 -3.354,-7.492 -7.492,-7.492 H 29.863 C 13.8,69.721 0.731,82.79 0.731,98.853 v 277.166 c 0,16.063 13.069,29.132 29.132,29.132 h 171.06 v 1.496 c 0,19.983 -9.259,38.996 -24.878,51.342 H 151.31 c -14.891,0 -27.005,12.115 -27.005,27.006 0,14.891 12.114,27.005 27.005,27.005 h 209.38 c 14.891,0 27.005,-12.115 27.005,-27.005 0,-14.891 -12.114,-27.006 -27.005,-27.006 h -24.735 c -15.62,-12.347 -24.88,-31.36 -24.88,-51.342 v -1.496 h 171.061 c 16.063,0 29.132,-13.069 29.132,-29.132 0,-14.192 0,-268.04 0,-277.166 C 511.269,82.789 498.2,69.721 482.136,69.721 Z M 360.69,472.973 c 6.628,0 12.021,5.393 12.021,12.022 0,6.628 -5.393,12.021 -12.021,12.021 H 151.31 c -6.628,0 -12.021,-5.393 -12.021,-12.021 0,-6.629 5.393,-12.022 12.021,-12.022 z M 314.649,457.989 H 197.351 c 11.829,-14.291 18.557,-32.463 18.557,-51.342 v -1.496 h 80.182 v 1.496 c 0.001,18.879 6.729,37.051 18.559,51.342 z m 181.636,-81.97 c 0,7.801 -6.347,14.148 -14.148,14.148 H 29.864 c -7.801,0 -14.148,-6.347 -14.148,-14.148 V 349.81 h 480.569 z"
         id="path854"
         style="fill:#ffffff" />
    </g>
  </g>
</svg>
