<?xml version="1.0" encoding="utf-8"?>
<!-- Generator: Adobe Illustrator 23.1.0, SVG Export Plug-In . SVG Version: 6.00 Build 0)  -->
<svg version="1.1" id="Layer_1" xmlns="http://www.w3.org/2000/svg" xmlns:xlink="http://www.w3.org/1999/xlink" x="0px" y="0px"
	 viewBox="0 0 512 512" style="enable-background:new 0 0 512 512;" xml:space="preserve">
<style type="text/css">
	.st0{fill:#015ECA;}
</style>
<g>
	<path class="st0" d="M124.4,291.8h263.4c18.1,0,32.9-13.5,32.9-30v-60.1c0-16.5-14.8-30-32.9-30H124.4c-18.1,0-32.9,13.5-32.9,30
		v60.1C91.5,278.3,106.3,291.8,124.4,291.8z M346.2,216.7c8.3,0,15,6.7,15,15c-0.8,19.9-29.3,19.9-30,0
		C331.2,223.5,337.9,216.7,346.2,216.7z M286.1,216.7c8.3,0,15,6.7,15,15c-0.8,19.9-29.3,19.9-30,0
		C271.1,223.5,277.9,216.7,286.1,216.7z M166,216.7h60.1c19.9,0.7,19.9,29.3,0,30H166c-8.3,0-15-6.7-15-15S157.7,216.7,166,216.7z"
		/>
	<path class="st0" d="M389.4,321.8H126c-18.1,0-32.9,13.5-32.9,30v60.1c0,16.5,14.8,30,32.9,30h263.4c18.1,0,32.9-13.5,32.9-30
		v-60.1C422.3,335.3,407.5,321.8,389.4,321.8z M226.2,396.9h-60.1c-19.9-0.7-19.9-29.3,0-30h60.1c8.3,0,15,6.7,15,15
		S234.5,396.9,226.2,396.9z M286.2,396.9c-8.3,0-15-6.7-15-15c0.8-19.9,29.3-19.9,30,0C301.3,390.2,294.5,396.9,286.2,396.9z
		 M346.3,396.9c-8.3,0-15-6.7-15-15c0.8-19.9,29.3-19.9,30,0C361.3,390.2,354.6,396.9,346.3,396.9z"/>
	<path class="st0" d="M342.2,482h-71.1v-10h-30v10h-71.1c-8.3,0-15,6.7-15,15c0,8.3,6.7,15,15,15h172.2
		C362.1,511.3,362.2,482.7,342.2,482z"/>
	<path class="st0" d="M452,80.4c-23.9-18-53.4-25.1-82.3-20.1c-51.9-80.4-175.1-80.4-227,0C31.6,43-28.3,183.4,61.5,251.5v-49.8
		c0-33.1,28.2-60.1,62.9-60.1h263.4c34.7,0,62.9,26.9,62.9,60.1v49.8C507.3,211.8,509.3,121.9,452,80.4L452,80.4z"/>
</g>
</svg>
