<?xml version="1.0" encoding="utf-8"?>
<!-- Generator: Adobe Illustrator 23.1.0, SVG Export Plug-In . SVG Version: 6.00 Build 0)  -->
<svg version="1.1" id="Layer_1" xmlns="http://www.w3.org/2000/svg" xmlns:xlink="http://www.w3.org/1999/xlink" x="0px" y="0px"
	 viewBox="0 0 512 512" style="enable-background:new 0 0 512 512;" xml:space="preserve">
<style type="text/css">
	.st0{fill:#015ECA;}
</style>
<g id="Data_Center-Server-Cloud-Network-Technology">
	<circle class="st0" cx="494.3" cy="295.7" r="17.7"/>
	<circle class="st0" cx="467.9" cy="401.7" r="17.7"/>
	<circle class="st0" cx="361.9" cy="463.4" r="17.7"/>
	<circle class="st0" cx="256" cy="489.9" r="17.7"/>
	<circle class="st0" cx="150.1" cy="463.4" r="17.7"/>
	<circle class="st0" cx="44.1" cy="401.7" r="17.7"/>
	<circle class="st0" cx="17.7" cy="295.7" r="17.7"/>
	<path class="st0" d="M256,181c-50.5,0-88.3,18.6-88.3,35.3s37.8,35.3,88.3,35.3s88.3-18.6,88.3-35.3S306.5,181,256,181z M309,225.1
		H203v-17.7H309V225.1z"/>
	<path class="st0" d="M167.7,246.4v31.7c0,16.7,37.8,35.3,88.3,35.3s88.3-18.6,88.3-35.3v-31.7c-18.6,13.9-50.6,22.9-88.3,22.9
		S186.4,260.3,167.7,246.4z M194.2,286.9h-17.7v-17.7h17.7V286.9z M229.5,295.7h-17.7v-17.7h17.7V295.7z"/>
	<path class="st0" d="M61.8,233.9h88.3v-17.7c0-30.2,45.6-53,105.9-53s105.9,22.8,105.9,53v17.7h70.6c39,0,70.6-31.6,70.6-70.6
		s-31.6-70.6-70.6-70.6c-4.9,0-8.8-4-8.8-8.8c0-24.4-19.8-44.1-44.1-44.1c-11.9,0-23.3,4.8-31.6,13.4c-2,2-4.8,2.9-7.6,2.6
		c-2.8-0.4-5.2-2.1-6.5-4.6c-22.9-43-76.4-59.2-119.3-36.3c-25.3,13.5-42.4,38.4-46,66.8c-0.6,4.8-5,8.3-9.9,7.7
		c-1.8-0.2-3.5-1-4.9-2.3c-17.8-16.7-45.7-15.8-62.4,2c-7.7,8.2-11.9,19-11.9,30.2c0,2.7-1.1,5.2-3.1,7.1c-1.9,1.8-4.5,2.6-7.2,2.4
		c-2.4-0.4-4.9-0.6-7.4-0.6c-29.3,0-53,23.7-53,53S32.5,233.9,61.8,233.9L61.8,233.9z M432.6,198.6c19.5,0,35.3-15.8,35.3-35.3h17.7
		c0,29.2-23.7,52.9-53,53V198.6z M388.4,75h17.7v17.7h-17.7V75z M353.1,75h17.7v17.7h-17.7V75z"/>
	<path class="st0" d="M344.3,339.9v-31.7C325.6,322.1,293.7,331,256,331s-69.6-8.9-88.3-22.9v31.7c0,16.7,37.8,35.3,88.3,35.3
		S344.3,356.5,344.3,339.9z M194.2,348.7h-17.7V331h17.7V348.7z M229.5,357.5h-17.7v-17.7h17.7V357.5z"/>
	<path class="st0" d="M76.9,381.4l-12.5-12.5l26.5-26.5c1.7-1.7,3.9-2.6,6.2-2.6H152v17.7h-51.3L76.9,381.4z"/>
	<path class="st0" d="M61.8,286.9h88.3v17.7H61.8V286.9z"/>
	<path class="st0" d="M435.1,381.4l-23.9-23.9H360v-17.7h54.9c2.3,0,4.6,0.9,6.2,2.6l26.5,26.5L435.1,381.4z"/>
	<path class="st0" d="M361.9,286.9h88.3v17.7h-88.3V286.9z"/>
	<path class="st0" d="M329.2,443.2l-26.5-26.5c-1.7-1.7-2.6-3.9-2.6-6.2v-24.8h17.7v21.2l23.9,23.9L329.2,443.2z"/>
	<path class="st0" d="M182.8,443.2l-12.5-12.5l23.9-23.9v-21.2h17.7v24.8c0,2.3-0.9,4.6-2.6,6.2L182.8,443.2z"/>
	<path class="st0" d="M247.2,392.8h17.7v53h-17.7V392.8z"/>
</g>
</svg>
