<?xml version="1.0" encoding="utf-8"?>
<!-- Generator: Adobe Illustrator 23.1.0, SVG Export Plug-In . SVG Version: 6.00 Build 0)  -->
<svg version="1.1" xmlns="http://www.w3.org/2000/svg" xmlns:xlink="http://www.w3.org/1999/xlink" x="0px" y="0px"
	 viewBox="0 0 678.6 479.3" style="enable-background:new 0 0 678.6 479.3;" xml:space="preserve">
<style type="text/css">
	.st0{opacity:0.34;}
	.st1{opacity:0.6;}
	.st2{fill:#53D0F7;}
	.st3{opacity:0.41;}
	.st4{opacity:0.35;}
	.st5{opacity:0.47;}
	.st6{opacity:0.7;}
	.st7{fill:#233863;stroke:#233863;stroke-width:3;stroke-miterlimit:10;}
	.st8{opacity:0.57;}
	.st9{fill:#3AAED5;}
	.st10{opacity:0.22;}
	.st11{fill:#FFFFFF;}
	.st12{fill:#FFB44F;}
	.st13{fill:#233863;}
	.st14{fill:#3D85FD;}
	.st15{opacity:0.24;fill:#233863;}
	.st16{opacity:0.12;fill:#FFFFFF;}
	.st17{fill:none;stroke:#233863;stroke-width:3;stroke-linecap:round;stroke-linejoin:round;stroke-miterlimit:10;}
</style>
<g id="BACKGROUND">
	<g class="st0">
		<g>
			<g class="st1">
				<path class="st2" d="M589.8,331.9c4.8,21.1,4,40.5-2.4,61.2c-8,25.9-26,50-51.8,64.8c-9,5.2-18.7,9.1-28.8,11.9
					c-1.6,2.6-3.4,5.2-5.3,7.6h86.2c21.9-26.1,34.5-59.6,36.5-93.6c0.5-9.2,0.3-18.5-0.7-27.6c-4-35.5-19.8-69.3-43.4-96.2
					c-0.3,1.9-0.6,3.8-0.9,5.7C576.6,288.3,584.9,310.2,589.8,331.9z"/>
			</g>
			<g class="st3">
				<path class="st2" d="M322.9,472.2c-5.1-7-9-15.9-14.4-23c-11.5,2.3-22.8,5.7-34.3,8.7c-23.5,6-47.7,10.5-71.9,10.8
					c-26.9,0.4-54.4-4.8-77.8-18.7c-17.9-10.6-33.6-26.7-42.1-45.9c2.4,26.5,12,52.4,28.2,73.4h216.4
					C325.5,475.7,324.2,474,322.9,472.2z"/>
			</g>
			<g class="st3">
				<path class="st2" d="M357,107.9c6.5-0.2,13.6-0.6,21.3-1.2c35.8-2.7,71.3,5.5,105.7,16.7c3.3,1.1,6.6,2.3,9.9,3.5
					c-14.8-16.3-33.7-29-54.5-36.2c-41.2-14.3-91.1-8.6-127.3,13.9C326.9,104.7,341.9,105.8,357,107.9z"/>
			</g>
			<g class="st4">
				<path class="st2" d="M123.6,450.3c23.4,13.5,50.8,18.7,77.7,18.5c24.2-0.2,48.5-4.4,72-10.1c11.5-2.8,22.9-6,34.4-8.2
					c-4.7-6.1-10.5-10.9-19.1-11.9c-33.4-4-68.5,9.8-101.7,12.1c-22.3,1.6-46-1.5-64.1-14.8c-11.7-8.7-20.2-21.1-26.1-34.5
					c-12.1-27.8-12.4-59.7-2.2-88.2c6.9-19.2,23.7-33.9,29.5-53.5c4.9-16.4-0.8-33.5,0.8-50c0.3-3.4,1-6.7,2-10
					c5.7-17.6,33.3-43,50.2-51.5c40.5-20.4,82.8-30.3,126-31.3c-24.5-4.1-47.7-11.5-88.8-20.2c-48.8-10.4-103.7,25.5-132.5,67.1
					c-2.9,4.3-5.5,8.7-7.7,13.3c-10,20.7-12.8,44.6-8.2,67c5.4,26.3,22.2,46.6,16.2,74.6c-3.7,17.1-4.6,32.9-6.5,49.8
					c-1.5,13.2,1,25.8,6.1,37.3C90.1,424.3,105.7,440,123.6,450.3z"/>
			</g>
			<g class="st5">
				<path class="st2" d="M378.2,106.8c-7.7,0.6-14.7,1-21.3,1.2c22.2,3.1,44.6,8.5,66.9,15.8c0,0,83.5,27.5,83.5,27.5
					c39.3,12.9,65.3,50.5,62.8,91.8c0,0.3,0,0.5-0.1,0.8c-1.6,23.9-9.5,47.4-22.7,67c-11.9,17.8-28.4,37.7-32.5,59.6
					c-3.3,17.4,3.8,35,4.7,52.7c0.8,16.8-4.2,32.8-12.9,46.6c10.1-2.8,19.8-6.7,28.8-11.9c25.7-14.8,43.8-38.9,51.8-64.8
					c6.4-20.7,7.2-40.1,2.4-61.2c-4.9-21.7-13.2-43.6-10.6-66.2c0.2-1.9,0.5-3.8,0.9-5.7c2.5-13.8,8-27.2,6.8-41.1
					c-0.9-10.5-5.5-20.4-11.2-29.2c-18.8-29.5-49-50.2-81.9-62.7c-3.3-1.2-6.6-2.4-9.9-3.5C449.6,112.2,414.1,104,378.2,106.8z"/>
			</g>
			<g class="st6">
				<path class="st2" d="M126.5,191.2c-1.1,3.4-1.7,6.9-2,10.4c-1.5,17.1,4.2,34.7-0.6,51.6c-5.8,20.3-22.5,35.4-29.3,55.3
					c-10.1,29.4-9.6,62.3,2.6,91c5.9,13.8,14.5,26.6,26.2,35.5c18.1,13.7,41.8,16.7,64.1,14.9c33.2-2.6,68.2-17,101.6-13
					c8.6,1,14.5,5.9,19.2,12.2c5.4,7.1,9.3,16,14.4,23c1.3,1.8,2.7,3.6,4.1,5.3h174.6c1.9-2.5,3.7-5,5.3-7.6
					c8.7-13.8,13.7-29.8,12.9-46.6c-0.9-17.7-8-35.3-4.7-52.7c4.1-21.8,20.6-41.8,32.5-59.6c13.2-19.7,21.1-43.1,22.7-67
					c0-0.3,0-0.5,0.1-0.8c2.4-41.3-23.6-78.9-62.8-91.8c0,0-83.5-27.5-83.5-27.5c-22.4-7.4-44.7-12.7-66.9-15.8
					c-15-2.1-30-3.3-44.9-3.3c-3.3,0-6.5,0-9.8,0.1c-43.1,1.3-85.4,11.7-125.8,32.9C159.6,146.6,132.2,173,126.5,191.2z"/>
			</g>
			<g class="st4">
				<circle class="st2" cx="280.8" cy="83" r="13.6"/>
			</g>
			<g class="st4">
				<circle class="st2" cx="647.9" cy="244.6" r="30.7"/>
			</g>
			<g class="st4">
				<circle class="st2" cx="380" cy="30.7" r="30.7"/>
			</g>
			<g class="st4">
				<circle class="st2" cx="153.7" cy="53.3" r="21.7"/>
			</g>
			<g class="st4">
				
					<ellipse transform="matrix(0.7692 -0.639 0.639 0.7692 -186.2091 91.1412)" class="st2" cx="33.1" cy="303.3" rx="30.7" ry="30.7"/>
			</g>
			<g class="st4">
				<circle class="st2" cx="520.4" cy="111.6" r="9.3"/>
			</g>
		</g>
	</g>
	<path class="st7" d="M632.5,473.6H55.5c-0.6,0-1.2-0.5-1.2-1.2V472c0-0.6,0.5-1.2,1.2-1.2h577.1c0.6,0,1.2,0.5,1.2,1.2v0.4
		C633.7,473.1,633.2,473.6,632.5,473.6z"/>
</g>
<g id="OBJECTS">
	<g>
		<g>
			<g class="st8">
				<g>
					<path class="st9" d="M220.3,385.3c-0.6,0-1-0.4-1-1c0-34.2,14.3-67.3,39.3-90.7c4.4-4.1,9.2-8,14.1-11.4
						c0.5-0.3,1.1-0.2,1.4,0.3c0.3,0.5,0.2,1.1-0.3,1.4c-4.9,3.4-9.6,7.2-13.9,11.3c-24.6,23-38.7,55.6-38.7,89.2
						C221.3,384.9,220.8,385.3,220.3,385.3z"/>
					<path class="st9" d="M466.9,385.3c-0.6,0-1-0.4-1-1c0-14-2.3-27.7-6.9-40.7c-0.2-0.5,0.1-1.1,0.6-1.3c0.5-0.2,1.1,0.1,1.3,0.6
						c4.7,13.3,7,27.2,7,41.4C467.9,384.9,467.4,385.3,466.9,385.3z"/>
					<path class="st9" d="M457.2,337.4c-0.4,0-0.8-0.2-0.9-0.6c-9.6-22.8-25.7-41.9-46.6-55.4c-0.5-0.3-0.6-0.9-0.3-1.4
						c0.3-0.5,0.9-0.6,1.4-0.3c21.2,13.7,37.5,33.1,47.3,56.3c0.2,0.5,0,1.1-0.5,1.3C457.5,337.4,457.4,337.4,457.2,337.4z"/>
					<path class="st9" d="M281.4,278.8c-0.3,0-0.7-0.2-0.9-0.5c-0.3-0.5-0.1-1.1,0.4-1.4c18.9-11.1,40.6-17,62.7-17
						c18.4,0,36.1,3.9,52.6,11.7c0.5,0.2,0.7,0.8,0.5,1.3c-0.2,0.5-0.8,0.7-1.3,0.5c-16.3-7.6-33.7-11.5-51.8-11.5
						c-21.7,0-43.1,5.8-61.7,16.7C281.7,278.8,281.5,278.8,281.4,278.8z"/>
					<path class="st9" d="M198.3,385.3c-0.6,0-1-0.4-1-1c0-58,34.3-110.6,87.4-133.9c0.5-0.2,1.1,0,1.3,0.5c0.2,0.5,0,1.1-0.5,1.3
						c-52.4,23.1-86.2,74.9-86.2,132.1C199.3,384.9,198.9,385.3,198.3,385.3z"/>
					<path class="st9" d="M488.8,385.3c-0.6,0-1-0.4-1-1c0-45.5-21.8-88.8-58.4-116c-0.4-0.3-0.5-1-0.2-1.4c0.3-0.4,1-0.5,1.4-0.2
						c18,13.3,32.9,30.9,43.1,50.7c10.7,20.8,16.1,43.3,16.1,66.9C489.8,384.9,489.4,385.3,488.8,385.3z"/>
					<path class="st9" d="M421.4,262.6c-0.2,0-0.4-0.1-0.5-0.2c-3-1.9-6-3.7-9.1-5.3c-0.5-0.3-0.7-0.9-0.4-1.4
						c0.3-0.5,0.9-0.7,1.4-0.4c3.1,1.7,6.2,3.5,9.2,5.4c0.5,0.3,0.6,0.9,0.3,1.4C422,262.4,421.7,262.6,421.4,262.6z"/>
					<path class="st9" d="M405.8,254c-0.1,0-0.3,0-0.4-0.1c-19.4-9.2-40.2-13.9-61.8-13.9c-15.8,0-31.3,2.5-46.2,7.6
						c-0.5,0.2-1.1-0.1-1.3-0.6c-0.2-0.5,0.1-1.1,0.6-1.3c15-5.1,30.8-7.7,46.8-7.7c21.9,0,43,4.7,62.6,14.1
						c0.5,0.2,0.7,0.8,0.5,1.3C406.5,253.8,406.2,254,405.8,254z"/>
					<path class="st9" d="M513.2,385.3c-0.6,0-1-0.4-1-1c0-18.6-3-36.8-8.9-54.2c-0.2-0.5,0.1-1.1,0.6-1.3c0.5-0.2,1.1,0.1,1.3,0.6
						c6,17.6,9,36.1,9,54.9C514.2,384.9,513.7,385.3,513.2,385.3z"/>
					<path class="st9" d="M500.7,321.3c-0.4,0-0.8-0.2-0.9-0.6c-11.9-29.2-31.7-54.4-57.4-73c-0.4-0.3-0.5-0.9-0.2-1.4
						c0.3-0.4,0.9-0.5,1.4-0.2c25.9,18.8,46,44.3,58.1,73.9c0.2,0.5,0,1.1-0.5,1.3C500.9,321.3,500.8,321.3,500.7,321.3z"/>
					<path class="st9" d="M433.2,241.3c-0.2,0-0.4,0-0.5-0.2c-26.7-16.7-57.5-25.5-89.1-25.5c-14.3,0-28.4,1.8-42.1,5.3
						c-0.5,0.1-1.1-0.2-1.2-0.7c-0.1-0.5,0.2-1.1,0.7-1.2c13.8-3.6,28.2-5.4,42.6-5.4c32,0,63.2,8.9,90.2,25.8
						c0.5,0.3,0.6,0.9,0.3,1.4C433.9,241.1,433.6,241.3,433.2,241.3z"/>
					<path class="st9" d="M269,232.9c-0.4,0-0.7-0.2-0.9-0.6c-0.2-0.5,0-1.1,0.5-1.3c5.2-2.6,10.6-4.9,16.1-6.9
						c0.5-0.2,1.1,0.1,1.3,0.6c0.2,0.5-0.1,1.1-0.6,1.3c-5.4,2-10.7,4.3-15.9,6.8C269.3,232.9,269.1,232.9,269,232.9z"/>
					<path class="st9" d="M174,385.3c-0.6,0-1-0.4-1-1c0-30.3,8-60,23.3-86c14.8-25.2,35.9-46.4,61.1-61.2c0.5-0.3,1.1-0.1,1.4,0.4
						c0.3,0.5,0.1,1.1-0.4,1.4C206.9,269,175,324.7,175,384.3C175,384.9,174.5,385.3,174,385.3z"/>
				</g>
			</g>
			<g class="st10">
				<g>
					<path class="st9" d="M156.1,376.9c-0.8,0-1.5-0.7-1.5-1.5c0-26.6,5.4-52.3,16.1-76.4c10.3-23.3,25-44,43.7-61.5
						c6.7-6.3,14-12.2,21.5-17.4c0.7-0.5,1.6-0.3,2.1,0.4c0.5,0.7,0.3,1.6-0.4,2.1c-7.4,5.2-14.6,10.9-21.2,17.1
						c-37.4,35-58.8,84.5-58.8,135.7C157.6,376.2,156.9,376.9,156.1,376.9z"/>
					<path class="st9" d="M531.1,376.9c-0.8,0-1.5-0.7-1.5-1.5c0-21.2-3.5-42.1-10.5-61.9c-0.3-0.8,0.1-1.6,0.9-1.9
						c0.8-0.3,1.6,0.1,1.9,0.9c7.1,20.2,10.7,41.3,10.7,62.9C532.6,376.2,531.9,376.9,531.1,376.9z"/>
					<path class="st9" d="M516.4,304c-0.6,0-1.1-0.3-1.4-0.9c-14.6-34.6-39.1-63.7-70.8-84.2c-0.7-0.4-0.9-1.4-0.4-2.1
						c0.5-0.7,1.4-0.9,2.1-0.4c32.2,20.8,57.1,50.3,71.9,85.5c0.3,0.8,0,1.6-0.8,2C516.8,304,516.6,304,516.4,304z"/>
					<path class="st9" d="M249,214.9c-0.5,0-1-0.3-1.3-0.7c-0.4-0.7-0.2-1.6,0.5-2.1c28.8-16.9,61.8-25.8,95.3-25.8
						c28,0,54.9,6,80,17.7c0.8,0.4,1.1,1.2,0.7,2c-0.4,0.8-1.2,1.1-2,0.7c-24.7-11.6-51.2-17.4-78.7-17.4c-33,0-65.5,8.8-93.8,25.4
						C249.5,214.9,249.2,214.9,249,214.9z"/>
					<path class="st9" d="M122.7,376.9c-0.8,0-1.5-0.7-1.5-1.5c0-88.2,52.2-168.1,132.9-203.6c0.8-0.3,1.6,0,2,0.8
						c0.3,0.8,0,1.6-0.8,2c-79.6,35.1-131.1,113.9-131.1,200.9C124.2,376.2,123.5,376.9,122.7,376.9z"/>
					<path class="st9" d="M564.4,376.9c-0.8,0-1.5-0.7-1.5-1.5c0-69.2-33.2-135.1-88.8-176.3c-0.7-0.5-0.8-1.4-0.3-2.1
						c0.5-0.7,1.4-0.8,2.1-0.3c27.3,20.3,50,46.9,65.5,77.1c16.3,31.6,24.5,65.8,24.5,101.6C565.9,376.2,565.3,376.9,564.4,376.9z"
						/>
					<path class="st9" d="M461.8,190.3c-0.3,0-0.6-0.1-0.8-0.2c-4.5-2.9-9.2-5.6-13.9-8.1c-0.7-0.4-1-1.3-0.6-2c0.4-0.7,1.3-1,2-0.6
						c4.8,2.6,9.5,5.3,14,8.2c0.7,0.4,0.9,1.4,0.5,2.1C462.8,190,462.3,190.3,461.8,190.3z"/>
					<path class="st9" d="M438.2,177.2c-0.2,0-0.4,0-0.6-0.1c-29.5-14-61.1-21.1-93.9-21.1c-24,0-47.7,3.9-70.2,11.5
						c-0.8,0.3-1.6-0.2-1.9-0.9c-0.3-0.8,0.2-1.6,0.9-1.9c22.9-7.7,46.8-11.6,71.2-11.6c33.3,0,65.4,7.2,95.2,21.4
						c0.7,0.4,1.1,1.2,0.7,2C439.3,176.9,438.7,177.2,438.2,177.2z"/>
					<path class="st9" d="M601.4,376.9c-0.8,0-1.5-0.7-1.5-1.5c0-28.2-4.6-56-13.5-82.5c-0.3-0.8,0.2-1.6,0.9-1.9
						c0.8-0.3,1.6,0.2,1.9,0.9c9.1,26.8,13.7,54.9,13.7,83.4C602.9,376.2,602.3,376.9,601.4,376.9z"/>
					<path class="st9" d="M582.4,279.5c-0.6,0-1.2-0.4-1.4-0.9c-18.1-44.4-48.3-82.8-87.2-111c-0.7-0.5-0.8-1.4-0.3-2.1
						c0.5-0.7,1.4-0.8,2.1-0.3c39.4,28.6,69.9,67.4,88.3,112.3c0.3,0.8-0.1,1.6-0.8,2C582.8,279.5,582.6,279.5,582.4,279.5z"/>
					<path class="st9" d="M479.9,157.9c-0.3,0-0.5-0.1-0.8-0.2c-40.6-25.3-87.4-38.7-135.5-38.7c-21.7,0-43.2,2.7-64,8
						c-0.8,0.2-1.6-0.3-1.8-1.1c-0.2-0.8,0.3-1.6,1.1-1.8c21-5.4,42.8-8.1,64.7-8.1c48.6,0,96.1,13.5,137.1,39.2
						c0.7,0.4,0.9,1.4,0.5,2.1C480.9,157.7,480.4,157.9,479.9,157.9z"/>
					<path class="st9" d="M230.2,145.2c-0.6,0-1.1-0.3-1.3-0.8c-0.4-0.7-0.1-1.6,0.7-2c7.9-3.9,16.1-7.4,24.4-10.4
						c0.8-0.3,1.6,0.1,1.9,0.9c0.3,0.8-0.1,1.6-0.9,1.9c-8.2,3-16.3,6.5-24.1,10.3C230.6,145.1,230.4,145.2,230.2,145.2z"/>
					<path class="st9" d="M85.7,376.9c-0.8,0-1.5-0.7-1.5-1.5c0-46.1,12.2-91.3,35.4-130.8c22.5-38.4,54.6-70.5,92.9-93
						c0.7-0.4,1.6-0.2,2.1,0.5c0.4,0.7,0.2,1.6-0.5,2.1C135.8,200,87.2,284.8,87.2,375.4C87.2,376.2,86.5,376.9,85.7,376.9z"/>
				</g>
			</g>
		</g>
		<g>
			<path class="st11" d="M393.8,397.2c-1.1,0-2.3-0.2-3.4-0.7c-2-0.9-3.5-2.5-4.3-4.6l-2.4-6.6c-5.4,0.9-10.8,0.7-16-0.5l-2.9,6.5
				c-0.9,2-2.5,3.6-4.6,4.3c-2.1,0.8-4.3,0.7-6.3-0.2c-4.1-1.9-5.9-6.8-4-10.9l2.9-6.5c-4.4-3.2-8.1-7.1-10.9-11.8l-6.6,2.5
				c-2.1,0.8-4.3,0.7-6.3-0.2c-2-0.9-3.5-2.5-4.3-4.6c-1.6-4.3,0.6-9,4.8-10.7l6.6-2.5c-0.9-5.4-0.7-10.8,0.6-16.2l-6.4-2.9
				c-4.1-1.9-5.9-6.8-4-10.9c0.9-2,2.5-3.6,4.6-4.3c2.1-0.8,4.3-0.7,6.3,0.2l6.4,2.9c3.2-4.5,7.1-8.2,11.8-11.1l-2.5-6.6
				c-1.6-4.3,0.6-9,4.8-10.7c2.1-0.8,4.3-0.7,6.3,0.2c2,0.9,3.5,2.5,4.3,4.6l2.4,6.6c5.4-0.9,10.7-0.7,16,0.5l2.9-6.5
				c1.9-4.2,6.8-6,10.9-4.2c2,0.9,3.5,2.5,4.3,4.6c0.8,2.1,0.7,4.3-0.2,6.3l-2.9,6.5c4.4,3.2,8.1,7.1,10.9,11.8l6.6-2.5
				c2.1-0.8,4.3-0.7,6.3,0.2c2,0.9,3.5,2.5,4.3,4.6c1.6,4.3-0.6,9-4.8,10.7l-6.6,2.5c0.9,5.4,0.7,10.8-0.6,16.2l6.4,2.9
				c4.1,1.9,5.9,6.8,4,10.9c-1.9,4.2-6.8,6-10.9,4.2l-6.4-2.9c-3.2,4.5-7.1,8.2-11.8,11.1l2.5,6.6c1.6,4.3-0.6,9-4.8,10.7
				C395.8,397,394.8,397.2,393.8,397.2z M385,383l3,8.2c0.6,1.6,1.7,2.8,3.2,3.5c1.5,0.7,3.2,0.7,4.7,0.1c3.2-1.2,4.9-4.9,3.7-8.1
				l-3-8.2l0.7-0.4c4.9-3,9.1-6.9,12.3-11.6l0.5-0.7l7.9,3.6c3.1,1.4,6.8,0,8.2-3.2c1.4-3.2,0.1-6.9-3.1-8.3l-7.9-3.6l0.2-0.8
				c1.4-5.6,1.6-11.3,0.6-17l-0.1-0.8l8.2-3.1c3.2-1.2,4.9-4.9,3.7-8.1c-0.6-1.6-1.7-2.8-3.2-3.5c-1.5-0.7-3.2-0.7-4.7-0.1l-8.2,3.1
				l-0.4-0.7c-2.9-4.9-6.8-9.1-11.4-12.3l-0.7-0.5l3.6-8c0.7-1.5,0.8-3.2,0.2-4.8c-0.6-1.6-1.7-2.8-3.2-3.5c-3.1-1.4-6.8,0-8.2,3.2
				l-3.6,8l-0.8-0.2c-5.5-1.4-11.2-1.6-16.8-0.5l-0.8,0.2l-3-8.2c-0.6-1.6-1.7-2.8-3.2-3.5c-1.5-0.7-3.2-0.7-4.7-0.1
				c-3.2,1.2-4.9,4.9-3.7,8.1l3,8.2l-0.7,0.4c-4.9,3-9.1,6.9-12.3,11.6l-0.5,0.7l-7.9-3.6c-1.5-0.7-3.2-0.7-4.8-0.1
				c-1.6,0.6-2.8,1.8-3.5,3.3c-1.4,3.2-0.1,6.9,3.1,8.3l7.9,3.6l-0.2,0.8c-1.4,5.6-1.6,11.3-0.6,17l0.1,0.8l-8.2,3.1
				c-3.2,1.2-4.9,4.9-3.7,8.1c0.6,1.6,1.7,2.8,3.2,3.5c1.5,0.7,3.2,0.7,4.7,0.1l8.2-3.1l0.4,0.7c2.9,4.9,6.8,9.1,11.4,12.3l0.7,0.5
				l-3.6,8c-1.4,3.2-0.1,6.9,3.1,8.3c1.5,0.7,3.2,0.7,4.8,0.1c1.6-0.6,2.8-1.8,3.5-3.3l3.6-8l0.8,0.2c5.5,1.4,11.2,1.6,16.8,0.5
				L385,383z M376.9,374.5c-4.2,0-8.4-0.9-12.4-2.7c-7.4-3.4-13-9.4-15.8-17.1c-2.8-7.6-2.5-16,0.9-23.4c3.4-7.5,9.4-13.2,17.1-16.1
				c7.6-2.9,15.9-2.7,23.3,0.7c15.2,6.9,21.9,25.1,15,40.5l0,0C399.7,367.8,388.5,374.5,376.9,374.5z M377.5,315.2
				c-3.4,0-6.8,0.6-10.1,1.9c-7.1,2.7-12.8,8.1-15.9,15c-3.2,7-3.5,14.8-0.8,21.9c2.6,7.1,7.9,12.8,14.8,15.9
				c14.2,6.5,31.1,0,37.7-14.4c6.5-14.4,0.3-31.4-14-37.8C385.4,316.1,381.4,315.2,377.5,315.2z"/>
			<path class="st11" d="M295,382.6c-1.5,0-2.9-0.6-4-1.6c-1.1-1.1-1.7-2.5-1.7-4.1l0-4.4c-3.4-0.7-6.5-1.9-9.4-3.7l-3.1,3.1
				c-1.1,1.1-2.5,1.7-4.1,1.7c-1.6,0.1-3-0.6-4.1-1.6c-1.1-1.1-1.7-2.5-1.7-4.1c0-1.5,0.6-3,1.7-4.1l3.1-3.1c-1.9-2.8-3.2-6-3.9-9.3
				l-4.4,0.1c-1.5,0-3-0.6-4.1-1.6c-1.1-1.1-1.7-2.5-1.7-4.1c0-3.2,2.6-5.8,5.7-5.8l4.4-0.1c0.7-3.4,2-6.6,3.8-9.5l-3.1-3
				c-1.1-1.1-1.7-2.5-1.7-4.1c0-1.5,0.6-3,1.7-4.1c1.1-1.1,2.5-1.7,4.1-1.7c1.6,0,3,0.6,4.1,1.6l3.1,3c2.9-1.9,6-3.3,9.4-4l0-4.4
				c0-3.2,2.6-5.8,5.7-5.8c1.6,0,3,0.6,4.1,1.6c1.1,1.1,1.7,2.5,1.7,4.1l0,4.4c3.4,0.7,6.5,1.9,9.4,3.7l3.1-3.1v0
				c1.1-1.1,2.5-1.7,4.1-1.7c1.5,0,3,0.6,4.1,1.6c2.3,2.2,2.3,5.9,0,8.1l-3.1,3.1c1.9,2.8,3.2,6,3.9,9.3l4.4-0.1
				c1.6,0,3,0.6,4.1,1.6c1.1,1.1,1.7,2.5,1.7,4.1c0,3.2-2.6,5.8-5.7,5.8l-4.4,0.1c-0.7,3.4-2,6.6-3.8,9.5l3.1,3
				c2.3,2.2,2.3,5.9,0,8.1c-1.1,1.1-2.5,1.7-4.1,1.7c-1.5,0-3-0.6-4.1-1.6l-3.1-3c-2.9,1.9-6,3.3-9.4,4l0,4.4
				C300.9,379.9,298.3,382.5,295,382.6C295.1,382.6,295.1,382.6,295,382.6z M279.6,366.2l0.7,0.5c3.1,2.1,6.5,3.4,10.1,4l0.8,0.1
				l0,6c0,1,0.4,1.9,1.1,2.6c0.7,0.7,1.6,1.1,2.6,1.1c0,0,0,0,0.1,0c2.1,0,3.8-1.8,3.8-3.8l0-6l0.8-0.2c3.7-0.7,7.1-2.2,10.1-4.4
				l0.7-0.5l4.3,4.2c0.7,0.7,1.6,1.1,2.7,1.1c1,0,2-0.4,2.7-1.1c1.5-1.5,1.5-3.9,0-5.3l-4.3-4.2l0.5-0.7c2.1-3.1,3.5-6.5,4.1-10.2
				l0.1-0.8l6-0.1c2.1,0,3.8-1.8,3.8-3.8c0-1-0.4-1.9-1.1-2.6c-0.7-0.7-1.6-1.1-2.6-1.1c0,0,0,0-0.1,0l-6,0.1l-0.2-0.8
				c-0.7-3.7-2.1-7-4.2-10l-0.5-0.7l4.2-4.3c1.5-1.5,1.5-3.9,0-5.3c-0.7-0.7-1.6-1.1-2.7-1.1c-1,0-2,0.4-2.7,1.1v0l-4.2,4.3
				l-0.7-0.5c-3.1-2.1-6.5-3.4-10.1-4l-0.8-0.1l0-6c0-1-0.4-1.9-1.1-2.6c-0.7-0.7-1.6-1.1-2.6-1.1c0,0,0,0-0.1,0
				c-2.1,0-3.8,1.8-3.8,3.8l0,6l-0.8,0.2c-3.7,0.7-7.1,2.2-10.1,4.4l-0.7,0.5l-4.3-4.2c-0.7-0.7-1.6-1.1-2.7-1.1c-1,0-2,0.4-2.7,1.1
				c-0.7,0.7-1.1,1.7-1.1,2.7c0,1,0.4,1.9,1.1,2.6l4.3,4.2l-0.5,0.7c-2.1,3.1-3.5,6.5-4.1,10.2l-0.1,0.8l-6,0.1
				c-2.1,0-3.8,1.8-3.8,3.8c0,1,0.4,1.9,1.1,2.6c0.7,0.7,1.6,1.1,2.7,1.1l6-0.1l0.2,0.8c0.7,3.7,2.1,7,4.2,10l0.5,0.7l-4.2,4.3
				c-0.7,0.7-1.1,1.7-1.1,2.7c0,1,0.4,1.9,1.1,2.6c0.7,0.7,1.6,1.1,2.7,1.1c1,0,2-0.4,2.7-1.1L279.6,366.2z M294.7,365.6
				c-5.3,0-10.3-2-14.1-5.7c-8-7.8-8-20.8-0.1-28.8c3.8-3.9,8.9-6.1,14.4-6.2c5.5-0.1,10.6,2,14.4,5.7c3.9,3.8,6,8.9,6,14.3
				c0,5.4-2.1,10.6-5.9,14.5c-3.8,3.9-8.9,6.1-14.4,6.2C294.9,365.6,294.8,365.6,294.7,365.6z M295.2,326.9c-0.1,0-0.2,0-0.3,0
				c-4.9,0.1-9.5,2.1-13,5.6c-7.1,7.3-7.1,19,0.1,26c3.5,3.4,8.1,5.2,13,5.2c4.9-0.1,9.5-2.1,13-5.6h0c3.5-3.5,5.4-8.2,5.3-13.1
				c0-4.9-2-9.5-5.4-12.9C304.5,328.7,300,326.9,295.2,326.9z"/>
			<path class="st11" d="M312.2,464.3c-0.8,0-1.6-0.1-2.4-0.4c-1.8-0.6-3.2-1.9-4-3.7c-0.8-1.7-0.8-3.6-0.2-5.4l2-5.4
				c-3.8-2.4-7.1-5.4-9.7-9l-5.3,2.4c-3.6,1.6-7.8,0.1-9.4-3.4c-0.8-1.7-0.8-3.6-0.2-5.4c0.7-1.8,2-3.2,3.7-4l5.3-2.4
				c-1-4.4-1.1-8.8-0.4-13.2l-5.4-2c-1.8-0.6-3.2-1.9-4-3.7c-0.8-1.7-0.8-3.6-0.2-5.4c1.4-3.6,5.5-5.5,9.1-4.2l5.4,2
				c2.4-3.8,5.5-7.1,9.1-9.7l-2.4-5.2c-0.8-1.7-0.8-3.6-0.2-5.4c0.7-1.8,2-3.2,3.7-4c3.6-1.6,7.8-0.1,9.4,3.4l2.4,5.2
				c4.4-1,8.9-1.2,13.3-0.5l2.1-5.4c1.4-3.6,5.5-5.5,9.1-4.2c1.8,0.6,3.2,1.9,4,3.7c0.8,1.7,0.8,3.6,0.2,5.4l-2,5.4
				c3.8,2.4,7.1,5.4,9.7,9l5.3-2.4c1.7-0.8,3.6-0.9,5.4-0.2c1.8,0.6,3.2,1.9,4,3.7c0.8,1.7,0.8,3.6,0.2,5.4c-0.7,1.8-2,3.2-3.7,4
				l-5.3,2.4c1,4.4,1.1,8.8,0.4,13.2l5.4,2c1.8,0.7,3.2,1.9,4,3.7c0.8,1.7,0.8,3.6,0.2,5.4c-1.4,3.6-5.5,5.5-9.1,4.2l-5.4-2
				c-2.4,3.8-5.5,7.1-9.1,9.7l2.4,5.2c0.8,1.7,0.8,3.6,0.2,5.4c-0.7,1.8-2,3.2-3.7,4c-1.7,0.8-3.6,0.9-5.4,0.2
				c-1.8-0.6-3.2-1.9-4-3.7l-2.4-5.2c-4.4,1-8.9,1.2-13.3,0.5l-2.1,5.4C317.8,462.5,315,464.3,312.2,464.3z M298.6,437.9l0.5,0.7
				c2.7,3.9,6.2,7.1,10.3,9.5l0.7,0.4l-2.6,7c-0.5,1.3-0.4,2.6,0.1,3.9c0.6,1.2,1.6,2.1,2.8,2.6c2.6,1,5.6-0.4,6.6-3l2.6-7l0.8,0.1
				c4.7,0.8,9.5,0.6,14.1-0.6l0.8-0.2l3.1,6.7c0.6,1.2,1.6,2.1,2.8,2.6c1.3,0.5,2.7,0.4,3.9-0.2c1.2-0.6,2.2-1.6,2.7-2.8
				c0.5-1.3,0.4-2.6-0.1-3.8l-3.1-6.7l0.7-0.5c4-2.7,7.2-6.2,9.7-10.3l0.4-0.7l7,2.6c2.6,1,5.6-0.4,6.6-3c0.5-1.3,0.4-2.6-0.1-3.8
				c-0.6-1.2-1.6-2.1-2.8-2.6l-7-2.6l0.2-0.8c0.9-4.7,0.7-9.4-0.4-14l-0.2-0.8l6.8-3.1c1.2-0.6,2.2-1.6,2.7-2.8
				c0.5-1.3,0.4-2.6-0.1-3.8s-1.6-2.1-2.8-2.6c-1.3-0.5-2.7-0.4-3.9,0.2l-6.8,3.1l-0.5-0.7c-2.7-3.9-6.2-7.1-10.3-9.5l-0.7-0.4
				l2.6-7c0.5-1.3,0.4-2.6-0.1-3.8c-0.6-1.2-1.6-2.1-2.8-2.6c-2.6-1-5.6,0.4-6.6,3l-2.6,7l-0.8-0.1c-4.7-0.8-9.5-0.6-14.1,0.6
				l-0.8,0.2l-3.1-6.7c-1.2-2.5-4.2-3.6-6.7-2.5c-1.2,0.6-2.2,1.6-2.7,2.8c-0.5,1.3-0.4,2.6,0.1,3.8l3.1,6.7l-0.7,0.5
				c-4,2.7-7.2,6.2-9.7,10.3l-0.4,0.7l-7-2.6c-2.6-1-5.6,0.4-6.6,3c-0.5,1.3-0.4,2.6,0.1,3.9c0.6,1.2,1.6,2.1,2.8,2.6l7,2.6
				l-0.2,0.8c-0.9,4.7-0.7,9.4,0.4,14l0.2,0.8l-6.8,3.1c-1.2,0.6-2.2,1.6-2.7,2.8c-0.5,1.3-0.4,2.6,0.1,3.8c1.2,2.5,4.2,3.6,6.7,2.5
				L298.6,437.9z M326.3,445.2c-9.8,0-19.1-5.5-23.3-14.9c-5.9-12.8-0.1-28.1,12.9-34c13-5.9,28.3-0.3,34.1,12.5
				c2.8,6.2,3.1,13.2,0.6,19.6c-2.4,6.4-7.2,11.5-13.5,14.4C333.6,444.5,329.9,445.2,326.3,445.2z M326.7,396c-3.3,0-6.7,0.7-10,2.2
				c-12,5.5-17.3,19.5-11.9,31.3c5.4,11.8,19.5,17,31.5,11.5l0,0c5.8-2.6,10.2-7.4,12.5-13.3c2.2-5.9,2-12.3-0.6-18.1
				C344.2,401.1,335.6,396,326.7,396z"/>
		</g>
		<g>
			<g>
				<g>
					<g>
						<path class="st12" d="M236.6,206.4l-29.2-6.9c-1.4-0.3-2.2-1.7-1.9-3.1l5.5-23.2c0.3-1.4,1.7-2.2,3.1-1.9l29.2,6.9
							c1.4,0.3,2.2,1.7,1.9,3.1l-5.5,23.2C239.4,205.9,238,206.7,236.6,206.4z"/>
						<path class="st13" d="M237.2,208c-0.3,0-0.6,0-0.9-0.1c0,0,0,0,0,0l-29.2-6.9c-2.2-0.5-3.5-2.7-3-4.9l5.5-23.2
							c0.5-2.2,2.7-3.5,4.9-3l29.2,6.9c2.2,0.5,3.5,2.7,3,4.9l-5.5,23.2C240.8,206.7,239.1,208,237.2,208z M237,204.9
							c0.6,0.1,1.2-0.2,1.3-0.8l5.5-23.2c0.1-0.6-0.2-1.2-0.8-1.3l-29.2-6.9c-0.6-0.1-1.2,0.2-1.3,0.8l-5.5,23.2
							c-0.1,0.6,0.2,1.2,0.8,1.3L237,204.9L237,204.9z"/>
					</g>
					<path class="st11" d="M223,194.3c-0.2,0-0.3,0-0.5-0.1c-0.6-0.1-1.1-0.5-1.5-1l-3.7-5.8c-0.4-0.7-0.2-1.6,0.5-2.1
						c0.7-0.4,1.6-0.2,2.1,0.5l3.3,5.2l12.4-8c0.7-0.4,1.6-0.2,2.1,0.4c0.4,0.7,0.2,1.6-0.4,2.1l-12.9,8.3
						C223.9,194.1,223.4,194.3,223,194.3z"/>
				</g>
			</g>
			<g>
				<g>
					<g>
						<path class="st9" d="M488.6,208.6l-29.9,3.3c-1.4,0.2-2.7-0.9-2.9-2.3l-2.6-23.7c-0.2-1.4,0.9-2.7,2.3-2.9l29.9-3.3
							c1.4-0.2,2.7,0.9,2.9,2.3l2.6,23.7C491,207.1,490,208.4,488.6,208.6z"/>
						<path class="st13" d="M458.4,213.4c-0.9,0-1.8-0.3-2.5-0.9c-0.9-0.7-1.4-1.7-1.5-2.7l-2.6-23.7c-0.2-2.2,1.4-4.3,3.6-4.5
							l29.9-3.3c2.2-0.3,4.3,1.4,4.5,3.6l2.6,23.7c0.2,2.2-1.4,4.3-3.6,4.5l-29.9,3.3C458.7,213.4,458.6,213.4,458.4,213.4z
							 M485.7,181.2c0,0-0.1,0-0.1,0l-29.9,3.3c-0.6,0.1-1,0.6-1,1.2l2.6,23.7c0,0.3,0.2,0.5,0.4,0.7c0.2,0.2,0.5,0.3,0.8,0.2
							l29.9-3.3h0c0.6-0.1,1-0.6,1-1.2l-2.6-23.7C486.7,181.6,486.2,181.2,485.7,181.2z"/>
					</g>
					<path class="st11" d="M470.9,201.9c-0.5,0-1-0.2-1.4-0.5l-5.4-4.2c-0.7-0.5-0.8-1.5-0.3-2.1c0.5-0.7,1.5-0.8,2.1-0.3l4.9,3.8
						l9-11.7c0.5-0.7,1.4-0.8,2.1-0.3c0.7,0.5,0.8,1.4,0.3,2.1l-9.4,12.2c-0.4,0.5-0.9,0.8-1.6,0.9
						C471.1,201.9,471,201.9,470.9,201.9z"/>
				</g>
			</g>
			<circle class="st9" cx="129.2" cy="230.3" r="8.2"/>
			<circle class="st9" cx="343.1" cy="117.5" r="8.2"/>
			<path class="st14" d="M181.4,228.5c0,1.7-1.4,3.1-3.1,3.1s-3.1-1.4-3.1-3.1c0-1.7,1.4-3.1,3.1-3.1S181.4,226.7,181.4,228.5z"/>
			<path class="st14" d="M538.4,201.3c0,1.7-1.4,3.1-3.1,3.1c-1.7,0-3.1-1.4-3.1-3.1c0-1.7,1.4-3.1,3.1-3.1
				C537,198.2,538.4,199.6,538.4,201.3z"/>
			<circle class="st14" cx="240.6" cy="139.7" r="3.1"/>
			<circle class="st12" cx="138.5" cy="286.3" r="3.1"/>
			<circle class="st12" cx="555.1" cy="313" r="3.1"/>
			<path class="st12" d="M606.8,351.5c0,3.2-2.6,5.7-5.7,5.7c-3.2,0-5.7-2.6-5.7-5.7c0-3.2,2.6-5.7,5.7-5.7
				C604.2,345.8,606.8,348.3,606.8,351.5z"/>
			<path class="st12" d="M426.1,167.2c0,3.7-3,6.8-6.8,6.8c-3.7,0-6.8-3-6.8-6.8c0-3.7,3-6.8,6.8-6.8
				C423,160.4,426.1,163.5,426.1,167.2z"/>
		</g>
	</g>
	<g>
		<g>
			<g>
				<path class="st14" d="M254.5,451.9l-107.1,0.2c-8.2,0-15-6.7-15-14.9l-0.1-69.7c0-8.2,6.7-15,14.9-15l107.1-0.2
					c8.2,0,15,6.7,15,14.9l0.1,69.7C269.4,445.1,262.7,451.9,254.5,451.9z"/>
				<path class="st13" d="M147.3,453.6c-9.1,0-16.4-7.4-16.4-16.4l-0.1-69.7c0-9.1,7.3-16.5,16.4-16.5l107.1-0.2c0,0,0,0,0,0
					c9.1,0,16.4,7.4,16.4,16.4l0.1,69.7c0,4.4-1.7,8.5-4.8,11.6c-3.1,3.1-7.2,4.8-11.6,4.9l0,0L147.3,453.6
					C147.4,453.6,147.4,453.6,147.3,453.6z M254.5,451.9L254.5,451.9L254.5,451.9z M254.3,353.8
					C254.3,353.8,254.3,353.8,254.3,353.8L147.2,354c-7.4,0-13.4,6.1-13.4,13.5l0.1,69.7c0,7.4,6,13.4,13.4,13.4c0,0,0,0,0,0
					l107.1-0.2c3.6,0,6.9-1.4,9.5-4c2.5-2.6,3.9-5.9,3.9-9.5l-0.1-69.7C267.7,359.8,261.7,353.8,254.3,353.8z"/>
			</g>
			<path class="st15" d="M254.5,451.9l-107.1,0.2c-8.2,0-15-6.7-15-14.9l-0.1-69.7c0-8.2,6.7-15,14.9-15l107.1-0.2
				c8.2,0,15,6.7,15,14.9l0.1,69.7C269.4,445.1,262.7,451.9,254.5,451.9z"/>
		</g>
		<g>
			<g>
				<g>
					<path class="st11" d="M248.4,436.3l-47.2-45.2c-0.5-0.5-0.5-1.3,0-1.8l61.2-63.8c0.5-0.5,1.3-0.5,1.8,0l47.2,45.2
						c0.5,0.5,0.5,1.3,0,1.8l-61.2,63.8C249.8,436.8,248.9,436.8,248.4,436.3z"/>
					<path class="st13" d="M249.3,438.2c-0.7,0-1.4-0.3-1.9-0.8c0,0,0,0,0,0l-47.2-45.2c-0.5-0.5-0.8-1.2-0.9-1.9
						c0-0.7,0.3-1.4,0.8-2l61.2-63.8c1.1-1.1,2.8-1.1,3.9-0.1l47.2,45.2c1.1,1.1,1.1,2.8,0.1,3.9l-61.2,63.8
						C250.8,437.9,250.1,438.2,249.3,438.2C249.4,438.2,249.3,438.2,249.3,438.2z M249.5,435.3L249.5,435.3
						C249.5,435.3,249.5,435.3,249.5,435.3L249.5,435.3z M202.5,390.2l46.8,44.9l60.9-63.5l-46.8-44.9L202.5,390.2z"/>
				</g>
				<path class="st12" d="M297.5,372.1c-0.2,0-0.5-0.1-0.7-0.3l-17.8-17c-0.4-0.4-0.4-1,0-1.4c0.4-0.4,1-0.4,1.4,0l17.8,17
					c0.4,0.4,0.4,1,0,1.4C298,372,297.8,372.1,297.5,372.1z"/>
				<path class="st13" d="M288.6,383.8c-0.2,0-0.5-0.1-0.7-0.3l-35.5-34c-0.4-0.4-0.4-1,0-1.4c0.4-0.4,1-0.4,1.4,0l35.5,34
					c0.4,0.4,0.4,1,0,1.4C289.1,383.7,288.8,383.8,288.6,383.8z"/>
				<path class="st13" d="M277,395.9c-0.2,0-0.5-0.1-0.7-0.3l-35.5-34c-0.4-0.4-0.4-1,0-1.4c0.4-0.4,1-0.4,1.4,0l35.5,34
					c0.4,0.4,0.4,1,0,1.4C277.5,395.8,277.3,395.9,277,395.9z"/>
				<path class="st13" d="M266.1,407.3c-0.2,0-0.5-0.1-0.7-0.3l-35.5-34c-0.4-0.4-0.4-1,0-1.4c0.4-0.4,1-0.4,1.4,0l35.5,34
					c0.4,0.4,0.4,1,0,1.4C266.6,407.2,266.4,407.3,266.1,407.3z"/>
				<path class="st13" d="M254.5,419.3c-0.2,0-0.5-0.1-0.7-0.3l-35.5-34c-0.4-0.4-0.4-1,0-1.4c0.4-0.4,1-0.4,1.4,0l35.5,34
					c0.4,0.4,0.4,1,0,1.4C255.1,419.2,254.8,419.3,254.5,419.3z"/>
			</g>
			<g>
				<g>
					<path class="st11" d="M221.3,378.7l-60.5,24.7c-0.7,0.3-1.4,0-1.7-0.7l-33.4-81.9c-0.3-0.7,0-1.4,0.7-1.7l60.5-24.7
						c0.7-0.3,1.4,0,1.7,0.7L222,377C222.3,377.7,221.9,378.4,221.3,378.7z"/>
					<path class="st13" d="M160.3,405c-0.4,0-0.7-0.1-1.1-0.2c-0.7-0.3-1.2-0.8-1.5-1.5l-33.4-81.9c-0.3-0.7-0.3-1.4,0-2.1
						c0.3-0.7,0.8-1.2,1.5-1.5l60.5-24.7c1.4-0.6,3,0.1,3.6,1.5l33.4,81.9c0.6,1.4-0.1,3-1.5,3.6c0,0,0,0,0,0l-60.5,24.7
						C161,404.9,160.7,405,160.3,405z M127.2,320.5l33.3,81.5l60.1-24.5l-33.3-81.5L127.2,320.5z M221.3,378.7L221.3,378.7
						L221.3,378.7z M220.7,377.3L220.7,377.3L220.7,377.3L220.7,377.3z"/>
				</g>
				<path class="st13" d="M178.3,325.5c-0.4,0-0.8-0.2-0.9-0.6c-0.2-0.5,0-1.1,0.5-1.3l10.4-4.2c0.5-0.2,1.1,0,1.3,0.5
					c0.2,0.5,0,1.1-0.5,1.3l-10.4,4.2C178.6,325.5,178.4,325.5,178.3,325.5z"/>
				<path class="st13" d="M149.5,355.4c-0.4,0-0.8-0.2-0.9-0.6c-0.2-0.5,0-1.1,0.5-1.3l45.5-18.6c0.5-0.2,1.1,0,1.3,0.5
					c0.2,0.5,0,1.1-0.5,1.3l-45.5,18.6C149.7,355.3,149.6,355.4,149.5,355.4z"/>
				<path class="st12" d="M181.2,354.7c-0.4,0-0.8-0.2-0.9-0.6c-0.2-0.5,0-1.1,0.5-1.3l18.1-7.4c0.5-0.2,1.1,0,1.3,0.5
					c0.2,0.5,0,1.1-0.5,1.3l-18.1,7.4C181.5,354.7,181.4,354.7,181.2,354.7z"/>
				<path class="st12" d="M153.8,365.9c-0.4,0-0.8-0.2-0.9-0.6c-0.2-0.5,0-1.1,0.5-1.3l11.1-4.5c0.5-0.2,1.1,0,1.3,0.5
					c0.2,0.5,0,1.1-0.5,1.3l-11.1,4.5C154,365.9,153.9,365.9,153.8,365.9z"/>
				<path class="st13" d="M157.4,378.2c-0.4,0-0.8-0.2-0.9-0.6c-0.2-0.5,0-1.1,0.5-1.3l28-11.5c0.5-0.2,1.1,0,1.3,0.5
					c0.2,0.5,0,1.1-0.5,1.3l-28,11.5C157.6,378.2,157.5,378.2,157.4,378.2z"/>
				<g>
					<path class="st12" d="M173.2,333.1L149,343.6c-1,0.4-2.2,0-2.6-1l-11.2-25.9c-0.4-1,0-2.2,1-2.6l24.2-10.5c1-0.4,2.2,0,2.6,1
						l11.2,25.9C174.7,331.5,174.2,332.7,173.2,333.1z"/>
					<path class="st13" d="M148.2,344.8c-0.4,0-0.7-0.1-1.1-0.2c-0.7-0.3-1.3-0.9-1.7-1.6L134.2,317c-0.3-0.7-0.3-1.6,0-2.3
						c0.3-0.7,0.9-1.3,1.6-1.7l24.2-10.5c1.5-0.7,3.3,0,4,1.6l11.2,25.9c0.3,0.7,0.3,1.6,0,2.3c-0.3,0.7-0.9,1.3-1.6,1.7
						c0,0,0,0,0,0l-24.2,10.5C149,344.7,148.6,344.8,148.2,344.8z M161.2,304.3c-0.1,0-0.3,0-0.4,0.1l-24.2,10.5
						c-0.2,0.1-0.4,0.3-0.5,0.6c-0.1,0.2-0.1,0.5,0,0.8l11.2,25.9c0.1,0.2,0.3,0.4,0.6,0.5c0.2,0.1,0.5,0.1,0.8,0l24.2-10.5
						c0.2-0.1,0.4-0.3,0.5-0.6c0.1-0.2,0.1-0.5,0-0.8l-11.2-25.9C161.9,304.6,161.5,304.3,161.2,304.3z M173.2,333.1L173.2,333.1
						L173.2,333.1z"/>
				</g>
				<path class="st13" d="M147.4,319.4c-0.3,0-0.6-0.1-0.9-0.2c-0.6-0.2-1-0.7-1.3-1.3l-1.3-3c-0.1-0.3,0-0.5,0.3-0.7
					c0.3-0.1,0.5,0,0.7,0.3l1.3,3c0.1,0.3,0.4,0.6,0.8,0.7c0.3,0.1,0.7,0.1,1,0l0.2-0.1c0.5-0.2,0.8-0.9,0.5-1.4l-3.3-7.7
					c-0.2-0.6-0.9-0.8-1.4-0.6l-0.4,0.2c-0.6,0.3-0.9,0.9-0.6,1.5l0.1,0.2c0.1,0.3,0,0.5-0.3,0.7c-0.3,0.1-0.5,0-0.7-0.3l-0.1-0.2
					c-0.5-1.1,0-2.4,1.1-2.8l0.4-0.2c1.1-0.5,2.3,0,2.7,1.1l3.3,7.7c0.4,1,0,2.3-1.1,2.7l-0.2,0.1
					C148,319.3,147.7,319.4,147.4,319.4z"/>
				<path class="st11" d="M161.6,308c0.8,0.8,0.8,2.2,0,3c-0.8,0.8-2.2,0.8-3,0c-0.8-0.8-0.8-2.2,0-3
					C159.4,307.2,160.8,307.2,161.6,308z"/>
			</g>
			<g>
				<g>
					<path class="st11" d="M278.4,313.1l-60.1,25.5c-0.6,0.3-1.4,0-1.7-0.7l-34.6-81.4c-0.3-0.6,0-1.4,0.7-1.7l60.1-25.5
						c0.6-0.3,1.4,0,1.7,0.7l34.6,81.4C279.4,312,279.1,312.8,278.4,313.1z"/>
					<path class="st13" d="M217.8,340.2c-0.4,0-0.7-0.1-1-0.2c-0.7-0.3-1.2-0.8-1.5-1.5l-34.6-81.4c-0.6-1.4,0.1-3,1.5-3.6
						l60.1-25.5c0.7-0.3,1.4-0.3,2.1,0c0.7,0.3,1.2,0.8,1.5,1.5l34.6,81.4c0.3,0.7,0.3,1.4,0,2.1c-0.3,0.7-0.8,1.2-1.5,1.5
						L218.9,340C218.5,340.1,218.2,340.2,217.8,340.2z M183.5,256.1l34.4,81l59.7-25.4l-34.4-81L183.5,256.1z"/>
				</g>
				<path class="st13" d="M234.7,260.5c-0.4,0-0.8-0.2-0.9-0.6c-0.2-0.5,0-1.1,0.5-1.3l10.3-4.4c0.5-0.2,1.1,0,1.3,0.5
					c0.2,0.5,0,1.1-0.5,1.3l-10.3,4.4C235,260.4,234.9,260.5,234.7,260.5z"/>
				<path class="st13" d="M206.3,290.7c-0.4,0-0.8-0.2-0.9-0.6c-0.2-0.5,0-1.1,0.5-1.3l45.3-19.2c0.5-0.2,1.1,0,1.3,0.5
					c0.2,0.5,0,1.1-0.5,1.3l-45.3,19.2C206.6,290.7,206.5,290.7,206.3,290.7z"/>
				<path class="st12" d="M238,289.6c-0.4,0-0.8-0.2-0.9-0.6c-0.2-0.5,0-1.1,0.5-1.3l18-7.6c0.5-0.2,1.1,0,1.3,0.5
					c0.2,0.5,0,1.1-0.5,1.3l-18,7.6C238.3,289.6,238.2,289.6,238,289.6z"/>
				<path class="st12" d="M210.8,301.2c-0.4,0-0.8-0.2-0.9-0.6c-0.2-0.5,0-1.1,0.5-1.3l11-4.7c0.5-0.2,1.1,0,1.3,0.5
					c0.2,0.5,0,1.1-0.5,1.3l-11,4.7C211,301.1,210.9,301.2,210.8,301.2z"/>
				<path class="st13" d="M214.5,313.4c-0.4,0-0.8-0.2-0.9-0.6c-0.2-0.5,0-1.1,0.5-1.3l27.9-11.8c0.5-0.2,1.1,0,1.3,0.5
					c0.2,0.5,0,1.1-0.5,1.3l-27.9,11.8C214.8,313.4,214.6,313.4,214.5,313.4z"/>
			</g>
			<g>
				<g>
					<path class="st9" d="M247.7,399.9l-64.6-9.8c-0.7-0.1-1.2-0.8-1.1-1.5l13.3-87.4c0.1-0.7,0.8-1.2,1.5-1.1l64.6,9.8
						c0.7,0.1,1.2,0.8,1.1,1.5l-13.3,87.4C249.1,399.5,248.4,400,247.7,399.9z"/>
					<path class="st13" d="M247.9,401.4c-0.1,0-0.3,0-0.4,0l0,0l-64.6-9.8c-0.7-0.1-1.4-0.5-1.8-1.1c-0.4-0.6-0.6-1.3-0.5-2.1
						l13.3-87.4c0.1-0.7,0.5-1.4,1.1-1.8c0.6-0.4,1.3-0.6,2.1-0.5l64.6,9.8c0.7,0.1,1.4,0.5,1.8,1.1c0.4,0.6,0.6,1.3,0.5,2.1
						L250.6,399c-0.1,0.7-0.5,1.4-1.1,1.8C249.1,401.2,248.5,401.4,247.9,401.4z M183.6,388.6l64.1,9.7l13.2-87l-64.1-9.7
						L183.6,388.6z"/>
				</g>
				<path class="st11" d="M217.5,315.7c0,0-0.1,0-0.2,0l-12.4-1.9c-0.5-0.1-0.9-0.6-0.8-1.1c0.1-0.5,0.6-0.9,1.1-0.8l12.4,1.9
					c0.5,0.1,0.9,0.6,0.8,1.1C218.4,315.3,218,315.7,217.5,315.7z"/>
				<path class="st13" d="M249.7,334c0,0-0.1,0-0.2,0l-14.2-2.2c-0.5-0.1-0.9-0.6-0.8-1.1c0.1-0.5,0.6-0.9,1.1-0.8l14.2,2.2
					c0.5,0.1,0.9,0.6,0.8,1.1C250.6,333.7,250.2,334,249.7,334z"/>
				<path class="st11" d="M225.4,330.3c0,0-0.1,0-0.2,0l-24.3-3.7c-0.5-0.1-0.9-0.6-0.8-1.1c0.1-0.5,0.6-0.9,1.1-0.8l24.3,3.7
					c0.5,0.1,0.9,0.6,0.8,1.1C226.3,330,225.9,330.3,225.4,330.3z"/>
				<path class="st13" d="M226.3,347.4c0,0-0.1,0-0.2,0l-27.7-4.2c-0.5-0.1-0.9-0.6-0.8-1.1c0.1-0.5,0.6-0.9,1.1-0.8l27.7,4.2
					c0.5,0.1,0.9,0.6,0.8,1.1C227.2,347,226.7,347.4,226.3,347.4z"/>
				<path class="st11" d="M244.8,366.1c0,0-0.1,0-0.2,0l-48.6-7.4c-0.5-0.1-0.9-0.6-0.8-1.1c0.1-0.5,0.6-0.9,1.1-0.8l48.6,7.4
					c0.5,0.1,0.9,0.6,0.8,1.1C245.7,365.8,245.3,366.1,244.8,366.1z"/>
				<path class="st11" d="M221,379.4c0,0-0.1,0-0.2,0l-27.3-4.1c-0.5-0.1-0.9-0.6-0.8-1.1c0.1-0.5,0.6-0.9,1.1-0.8l27.3,4.1
					c0.5,0.1,0.9,0.6,0.8,1.1C221.9,379.1,221.5,379.4,221,379.4z"/>
			</g>
		</g>
		<g>
			<g>
				<path class="st11" d="M258.4,464.3l-115,0.2c-6,0-11-4.9-11-11l-0.2-77.6c0-6,4.9-11,11-11l115-0.2c6,0,11,4.9,11,11l0.2,77.6
					C269.4,459.4,264.5,464.3,258.4,464.3z"/>
				<path class="st13" d="M143.4,465.6c-3.2,0-6.2-1.2-8.4-3.5c-2.3-2.3-3.5-5.3-3.5-8.5l-0.2-77.6c0-3.2,1.2-6.2,3.5-8.5
					c2.3-2.3,5.3-3.5,8.5-3.5l115-0.2c0,0,0,0,0,0c6.6,0,12,5.4,12,12l0.2,77.6c0,6.6-5.4,12-12,12l0-1l0,1L143.4,465.6
					C143.4,465.6,143.4,465.6,143.4,465.6z M258.2,365.7C258.2,365.7,258.2,365.7,258.2,365.7l-115,0.2c-2.7,0-5.2,1.1-7,2.9
					c-1.9,1.9-2.9,4.4-2.9,7.1l0.2,77.6c0,2.7,1.1,5.2,2.9,7c1.9,1.9,4.4,2.9,7,2.9c0,0,0,0,0,0l115-0.2l0,0c5.5,0,10-4.5,10-10
					l-0.2-77.6C268.2,370.2,263.7,365.7,258.2,365.7z"/>
			</g>
			<g>
				<path class="st14" d="M259.4,346l-29,0.1c-5.4,0-9.8,4.4-9.8,9.8l0,13.9l-73.5,0.2c-8.2,0-14.9,6.8-14.9,15l0.1,69.7
					c0,8.2,6.8,14.9,15,14.9l107.1-0.2c8.2,0,14.9-6.8,14.9-15l-0.1-68.3l0-1.4l-0.1-28.8C269.1,350.4,264.7,346,259.4,346z"/>
				<path class="st13" d="M147.3,471.1c-9.1,0-16.4-7.4-16.4-16.4l-0.1-69.7c0-9.1,7.3-16.5,16.4-16.5l72-0.2l0-12.4
					c0-3,1.2-5.8,3.3-8c2.1-2.1,5-3.3,8-3.3l29-0.1c0,0,0,0,0,0c6.2,0,11.3,5,11.3,11.3l0.2,98.6c0,9.1-7.3,16.5-16.4,16.5
					L147.3,471.1C147.4,471.1,147.3,471.1,147.3,471.1z M259.4,347.5l-29,0.1c-2.2,0-4.3,0.9-5.8,2.4c-1.6,1.6-2.4,3.7-2.4,5.9
					l0,13.9c0,0.4-0.2,0.8-0.4,1.1c-0.3,0.3-0.7,0.4-1.1,0.4l-73.5,0.2c-7.4,0-13.4,6.1-13.4,13.5l0.1,69.7c0,7.4,6,13.4,13.4,13.4
					c0,0,0,0,0,0l107.1-0.2c7.4,0,13.4-6.1,13.4-13.5l-0.2-98.6C267.6,351.2,263.9,347.5,259.4,347.5
					C259.4,347.5,259.4,347.5,259.4,347.5L259.4,347.5z M259.4,346L259.4,346L259.4,346z"/>
			</g>
			<path class="st16" d="M258.3,357.2l-26,0.1c-4.8,0-8.7,4-8.7,8.8l0,12.4l-65.7,0.1c-7.4,0-13.4,6-13.3,13.4l0.1,62.4
				c0,7.4,6,13.4,13.4,13.3l95.8-0.2c7.4,0,13.4-6,13.3-13.4l-0.1-61.1l0-1.3l-0.1-25.8C267.1,361.1,263.2,357.2,258.3,357.2z"/>
			<path class="st11" d="M259.9,455c0,2.7-2.2,4.9-4.9,4.9s-4.9-2.2-4.9-4.9c0-2.7,2.2-4.9,4.9-4.9S259.9,452.3,259.9,455z"/>
			<path class="st11" d="M263.3,372.4c-0.6,0-1-0.4-1-1v-13.3c0-2.2-2-4-4.4-4h-9.7c-0.6,0-1-0.4-1-1c0-0.6,0.4-1,1-1h9.7
				c3.5,0,6.4,2.7,6.4,6v13.3C264.3,372,263.8,372.4,263.3,372.4z"/>
			<g>
				<g>
					<path class="st11" d="M191.7,411.8c-0.6,0-1.3-0.3-1.8-0.7c-1-1-1-2.6,0-3.5l11.8-11.6l11.6,11.6c1,1,1,2.6,0,3.5
						c-1,1-2.6,1-3.5,0l-8.1-8.1l-8.2,8.1C193,411.6,192.4,411.8,191.7,411.8z"/>
					<path class="st11" d="M201.6,427.3c-1.4,0-2.5-1.1-2.5-2.5v-25.3c0-1.4,1.1-2.5,2.5-2.5c1.4,0,2.5,1.1,2.5,2.5v25.3
						C204.1,426.2,203,427.3,201.6,427.3z"/>
				</g>
				<path class="st11" d="M220,439.3h-37.1c-3,0-5.4-2.4-5.4-5.4v-13.5c0-1.4,1.1-2.5,2.5-2.5c1.4,0,2.5,1.1,2.5,2.5V434
					c0,0.2,0.2,0.4,0.4,0.4H220c0.4,0,0.7-0.3,0.7-0.7v-13.2c0-1.4,1.1-2.5,2.5-2.5c1.4,0,2.5,1.1,2.5,2.5v13.2
					C225.7,436.8,223.2,439.3,220,439.3z"/>
			</g>
		</g>
	</g>
	<g>
		<g>
			<g>
				<path class="st14" d="M531.4,451.9l-107.1,0.2c-8.2,0-15-6.7-15-14.9l-0.1-69.7c0-8.2,6.7-15,14.9-15l107.1-0.2
					c8.2,0,15,6.7,15,14.9l0.1,69.7C546.4,445.1,539.6,451.9,531.4,451.9z"/>
				<path class="st13" d="M424.3,453.6c-4.4,0-8.5-1.7-11.6-4.8c-3.1-3.1-4.8-7.2-4.9-11.6l-0.1-69.7c0-9.1,7.3-16.5,16.4-16.5
					l107.1-0.2c0,0,0,0,0,0c9.1,0,16.4,7.4,16.4,16.4l0.1,69.7c0,9.1-7.3,16.5-16.4,16.5l0,0L424.3,453.6
					C424.3,453.6,424.3,453.6,424.3,453.6z M531.4,451.9L531.4,451.9L531.4,451.9z M531.2,353.8
					C531.2,353.8,531.2,353.8,531.2,353.8L424.1,354c-7.4,0-13.4,6.1-13.4,13.5l0.1,69.7c0,3.6,1.4,6.9,4,9.5
					c2.5,2.5,5.9,3.9,9.5,3.9c0,0,0,0,0,0l107.1-0.2c3.6,0,6.9-1.4,9.5-4c2.5-2.6,3.9-5.9,3.9-9.5l-0.1-69.7
					C544.7,359.8,538.6,353.8,531.2,353.8z"/>
			</g>
			<g>
				<path class="st12" d="M531.4,451.9l-107.1,0.2c-8.2,0-15-6.7-15-14.9l-0.1-69.7c0-8.2,6.7-15,14.9-15l107.1-0.2
					c8.2,0,15,6.7,15,14.9l0.1,69.7C546.4,445.1,539.6,451.9,531.4,451.9z"/>
				<path class="st13" d="M424.3,453.6c-4.4,0-8.5-1.7-11.6-4.8c-3.1-3.1-4.8-7.2-4.9-11.6l-0.1-69.7c0-9.1,7.3-16.5,16.4-16.5
					l107.1-0.2c0,0,0,0,0,0c9.1,0,16.4,7.4,16.4,16.4l0.1,69.7c0,9.1-7.3,16.5-16.4,16.5l0,0L424.3,453.6
					C424.3,453.6,424.3,453.6,424.3,453.6z M531.4,451.9L531.4,451.9L531.4,451.9z M531.2,353.8
					C531.2,353.8,531.2,353.8,531.2,353.8L424.1,354c-7.4,0-13.4,6.1-13.4,13.5l0.1,69.7c0,3.6,1.4,6.9,4,9.5
					c2.5,2.5,5.9,3.9,9.5,3.9c0,0,0,0,0,0l107.1-0.2c3.6,0,6.9-1.4,9.5-4c2.5-2.6,3.9-5.9,3.9-9.5l-0.1-69.7
					C544.7,359.8,538.6,353.8,531.2,353.8z"/>
			</g>
			<path class="st15" d="M531.4,451.9l-107.1,0.2c-8.2,0-15-6.7-15-14.9l-0.1-69.7c0-8.2,6.7-15,14.9-15l107.1-0.2
				c8.2,0,15,6.7,15,14.9l0.1,69.7C546.4,445.1,539.6,451.9,531.4,451.9z"/>
		</g>
		<g>
			<g>
				<path class="st11" d="M535.4,458.1l-115,0.2c-6,0-11-4.9-11-11l-0.2-77.6c0-6,4.9-11,11-11l115-0.2c6,0,11,4.9,11,11l0.2,77.6
					C546.4,453.1,541.4,458.1,535.4,458.1z"/>
				<path class="st13" d="M420.4,459.4c-6.6,0-12-5.4-12-12l-0.2-77.6c0-6.6,5.4-12,12-12l115-0.2c0,0,0,0,0,0c6.6,0,12,5.4,12,12
					l0.2,77.6c0,6.6-5.4,12-12,12L420.4,459.4C420.4,459.4,420.4,459.4,420.4,459.4z M535.4,457.1l0,1L535.4,457.1
					c5.5,0,10-4.5,10-10l-0.2-77.6c0-5.5-4.5-10-10-10c0,0,0,0,0,0l-115,0.2c-5.5,0-10,4.5-10,10l0.2,77.6c0,5.5,4.5,10,10,10
					c0,0,0,0,0,0L535.4,457.1z"/>
			</g>
			<g>
				<path class="st11" d="M535.4,464.3l-115,0.2c-6,0-11-4.9-11-11l-0.2-77.6c0-6,4.9-11,11-11l115-0.2c6,0,11,4.9,11,11l0.2,77.6
					C546.4,459.4,541.4,464.3,535.4,464.3z"/>
				<path class="st13" d="M420.4,465.6c-6.6,0-12-5.4-12-12l-0.2-77.6c0-3.2,1.2-6.2,3.5-8.5c2.3-2.3,5.3-3.5,8.5-3.5l115-0.2
					c0,0,0,0,0,0c6.6,0,12,5.4,12,12l0.2,77.6c0,6.6-5.4,12-12,12l0-1l0,1L420.4,465.6C420.4,465.6,420.4,465.6,420.4,465.6z
					 M535.2,365.7C535.2,365.7,535.2,365.7,535.2,365.7l-115,0.2c-2.7,0-5.2,1.1-7,2.9c-1.9,1.9-2.9,4.4-2.9,7.1l0.2,77.6
					c0,5.5,4.5,10,10,10c0,0,0,0,0,0l115-0.2l0,0c5.5,0,10-4.5,10-10l-0.2-77.6C545.2,370.2,540.7,365.7,535.2,365.7z"/>
			</g>
		</g>
		<g>
			<g>
				<path class="st12" d="M536.3,346l-29,0.1c-5.4,0-9.8,4.4-9.8,9.8l0,13.9l-73.5,0.2c-8.2,0-14.9,6.8-14.9,15l0.1,69.7
					c0,8.2,6.8,14.9,15,14.9l107.1-0.2c8.2,0,14.9-6.8,14.9-15l-0.1-68.3l0-1.4l-0.1-28.8C546.1,350.4,541.7,346,536.3,346z"/>
				<path class="st13" d="M424.3,471.1c-9.1,0-16.4-7.4-16.4-16.4l-0.1-69.7c0-9.1,7.3-16.5,16.4-16.5l72-0.2l0-12.4
					c0-3,1.2-5.8,3.3-8c2.1-2.1,5-3.3,8-3.3l29-0.1c0,0,0,0,0,0c3,0,5.8,1.2,7.9,3.3c2.1,2.1,3.3,5,3.3,8l0.2,98.6
					c0,4.4-1.7,8.5-4.8,11.6c-3.1,3.1-7.2,4.8-11.6,4.9L424.3,471.1C424.3,471.1,424.3,471.1,424.3,471.1z M536.3,347.5l-29,0.1
					c-2.2,0-4.3,0.9-5.8,2.4c-1.6,1.6-2.4,3.7-2.4,5.9l0,13.9c0,0.8-0.7,1.5-1.5,1.5l-73.5,0.2c-7.4,0-13.4,6.1-13.4,13.5l0.1,69.7
					c0,7.4,6,13.4,13.4,13.4c0,0,0,0,0,0l107.1-0.2c3.6,0,6.9-1.4,9.5-4c2.5-2.6,3.9-5.9,3.9-9.5l-0.2-98.6c0-2.2-0.9-4.3-2.4-5.8
					C540.6,348.4,538.5,347.5,536.3,347.5C536.3,347.5,536.3,347.5,536.3,347.5L536.3,347.5z M536.3,346L536.3,346L536.3,346z"/>
			</g>
			<path class="st16" d="M535,357.2l-26,0.1c-4.8,0-8.7,4-8.7,8.8l0,12.4l-65.7,0.1c-7.4,0-13.4,6-13.3,13.4l0.1,62.4
				c0,7.4,6,13.4,13.4,13.3l95.8-0.2c7.4,0,13.4-6,13.3-13.4l-0.1-61.1l0-1.3l-0.1-25.8C543.8,361.1,539.8,357.2,535,357.2z"/>
			<path class="st11" d="M536.5,455c0,2.7-2.2,4.9-4.9,4.9c-2.7,0-4.9-2.2-4.9-4.9c0-2.7,2.2-4.9,4.9-4.9
				C534.4,450.1,536.5,452.3,536.5,455z"/>
			<path class="st11" d="M540,372.4c-0.6,0-1-0.4-1-1v-13.3c0-2.2-2-4-4.4-4h-9.7c-0.6,0-1-0.4-1-1c0-0.6,0.4-1,1-1h9.7
				c3.5,0,6.4,2.7,6.4,6v13.3C541,372,540.5,372.4,540,372.4z"/>
			<g>
				<g>
					<path class="st11" d="M481.6,428.4l-11.6-11.6c-1-1-1-2.6,0-3.5c1-1,2.6-1,3.5,0l8.1,8.1l8.2-8.1c1-1,2.6-1,3.5,0
						c1,1,1,2.6,0,3.5L481.6,428.4z"/>
					<path class="st11" d="M481.7,427.3c-1.4,0-2.5-1.1-2.5-2.5v-25.3c0-1.4,1.1-2.5,2.5-2.5s2.5,1.1,2.5,2.5v25.3
						C484.2,426.2,483.1,427.3,481.7,427.3z"/>
				</g>
				<path class="st11" d="M500.1,439.3H463c-3,0-5.4-2.4-5.4-5.4v-13.5c0-1.4,1.1-2.5,2.5-2.5c1.4,0,2.5,1.1,2.5,2.5V434
					c0,0.2,0.2,0.4,0.4,0.4h37.1c0.4,0,0.7-0.3,0.7-0.7v-13.2c0-1.4,1.1-2.5,2.5-2.5c1.4,0,2.5,1.1,2.5,2.5v13.2
					C505.8,436.8,503.3,439.3,500.1,439.3z"/>
			</g>
		</g>
	</g>
	<g>
		<g>
			<g>
				<path class="st11" d="M469.6,336.5l-49.4-35.6c-0.6-0.4-0.7-1.2-0.3-1.8l48.2-66.9c0.4-0.6,1.2-0.7,1.8-0.3l49.4,35.6
					c0.6,0.4,0.7,1.2,0.3,1.8l-48.2,66.9C471,336.8,470.2,336.9,469.6,336.5z"/>
				<path class="st13" d="M470.3,338.2c-0.6,0-1.1-0.2-1.6-0.5l0,0l-49.4-35.6c-1.2-0.9-1.5-2.6-0.6-3.9l48.2-66.9
					c0.4-0.6,1.1-1,1.8-1.1c0.7-0.1,1.5,0.1,2.1,0.5l49.4,35.6c1.2,0.9,1.5,2.6,0.6,3.9l-48.2,66.9c-0.4,0.6-1.1,1-1.8,1.1
					C470.6,338.2,470.5,338.2,470.3,338.2z M470.5,335.3L470.5,335.3C470.5,335.3,470.5,335.3,470.5,335.3L470.5,335.3z
					 M421.3,299.8l49,35.3l48-66.6l-49-35.3L421.3,299.8z"/>
			</g>
			<g>
				<path class="st9" d="M469.6,336.5l-49.4-35.6c-0.6-0.4-0.7-1.2-0.3-1.8l48.2-66.9c0.4-0.6,1.2-0.7,1.8-0.3l49.4,35.6
					c0.6,0.4,0.7,1.2,0.3,1.8l-48.2,66.9C471,336.8,470.2,336.9,469.6,336.5z"/>
				<path class="st13" d="M470.3,338.2c-0.6,0-1.1-0.2-1.6-0.5l0,0l-49.4-35.6c-1.2-0.9-1.5-2.6-0.6-3.9l48.2-66.9
					c0.4-0.6,1.1-1,1.8-1.1c0.7-0.1,1.5,0.1,2.1,0.5l49.4,35.6c1.2,0.9,1.5,2.6,0.6,3.9l-48.2,66.9c-0.4,0.6-1.1,1-1.8,1.1
					C470.6,338.2,470.5,338.2,470.3,338.2z M470.5,335.3L470.5,335.3C470.5,335.3,470.5,335.3,470.5,335.3L470.5,335.3z
					 M421.3,299.8l49,35.3l48-66.6l-49-35.3L421.3,299.8z"/>
			</g>
			<path class="st13" d="M499.8,282.8c-0.2,0-0.4-0.1-0.6-0.2l-8.5-6.1c-0.4-0.3-0.5-0.9-0.2-1.4c0.3-0.4,0.9-0.6,1.4-0.2l8.5,6.1
				c0.4,0.3,0.5,0.9,0.2,1.4C500.5,282.6,500.2,282.8,499.8,282.8z"/>
			<path class="st13" d="M490.7,295.4c-0.2,0-0.4-0.1-0.6-0.2l-37.3-26.9c-0.4-0.3-0.5-0.9-0.2-1.4c0.3-0.4,0.9-0.6,1.4-0.2
				l37.3,26.9c0.4,0.3,0.5,0.9,0.2,1.4C491.3,295.3,491,295.4,490.7,295.4z"/>
			<path class="st12" d="M484.5,304.1c-0.2,0-0.4-0.1-0.6-0.2l-14.8-10.7c-0.4-0.3-0.5-0.9-0.2-1.4c0.3-0.4,0.9-0.5,1.4-0.2
				l14.8,10.7c0.4,0.3,0.5,0.9,0.2,1.4C485.1,303.9,484.8,304.1,484.5,304.1z"/>
			<path class="st12" d="M456.3,283.7c-0.2,0-0.4-0.1-0.6-0.2l-9.1-6.5c-0.4-0.3-0.5-0.9-0.2-1.4c0.3-0.4,0.9-0.6,1.4-0.2l9.1,6.5
				c0.4,0.3,0.5,0.9,0.2,1.4C456.9,283.6,456.6,283.7,456.3,283.7z"/>
			<path class="st13" d="M462.2,302.7c-0.2,0-0.4-0.1-0.6-0.2l-23-16.6c-0.4-0.3-0.5-0.9-0.2-1.4c0.3-0.4,0.9-0.6,1.4-0.2l23,16.6
				c0.4,0.3,0.5,0.9,0.2,1.4C462.8,302.5,462.5,302.7,462.2,302.7z"/>
		</g>
		<g>
			<g>
				<path class="st11" d="M474.5,328.4l-61-23.5c-0.7-0.3-1-1-0.7-1.7l31.8-82.5c0.3-0.7,1-1,1.7-0.7l61,23.5c0.7,0.3,1,1,0.7,1.7
					l-31.8,82.5C475.9,328.3,475.1,328.7,474.5,328.4z"/>
				<path class="st13" d="M474.9,330c-0.3,0-0.7-0.1-1-0.2l0,0l-61-23.5c-1.4-0.6-2.1-2.2-1.6-3.6l31.8-82.5
					c0.6-1.4,2.2-2.1,3.6-1.6l61,23.5c1.4,0.5,2.1,2.2,1.6,3.6l-31.8,82.5C477.1,329.3,476.1,330,474.9,330z M414.3,303.6l60.6,23.3
					l31.6-82.1l-60.6-23.3L414.3,303.6z"/>
			</g>
			<g>
				<path class="st11" d="M474.5,328.4l-61-23.5c-0.7-0.3-1-1-0.7-1.7l31.8-82.5c0.3-0.7,1-1,1.7-0.7l61,23.5c0.7,0.3,1,1,0.7,1.7
					l-31.8,82.5C475.9,328.3,475.1,328.7,474.5,328.4z"/>
				<path class="st13" d="M474.9,330c-0.3,0-0.7-0.1-1-0.2l0,0l-61-23.5c-1.4-0.6-2.1-2.2-1.6-3.6l31.8-82.5
					c0.6-1.4,2.2-2.1,3.6-1.6l61,23.5c1.4,0.5,2.1,2.2,1.6,3.6l-31.8,82.5C477.1,329.3,476.1,330,474.9,330z M414.3,303.6l60.6,23.3
					l31.6-82.1l-60.6-23.3L414.3,303.6z"/>
			</g>
			<path class="st13" d="M457,250.7c-0.1,0-0.2,0-0.4-0.1l-10.5-4c-0.5-0.2-0.8-0.8-0.6-1.3c0.2-0.5,0.8-0.8,1.3-0.6l10.5,4
				c0.5,0.2,0.8,0.8,0.6,1.3C457.7,250.4,457.4,250.7,457,250.7z"/>
			<path class="st13" d="M484.8,280.2c-0.1,0-0.2,0-0.4-0.1l-45.9-17.7c-0.5-0.2-0.8-0.8-0.6-1.3c0.2-0.5,0.8-0.8,1.3-0.6l45.9,17.7
				c0.5,0.2,0.8,0.8,0.6,1.3C485.6,279.9,485.2,280.2,484.8,280.2z"/>
			<path class="st12" d="M480.7,290.8c-0.1,0-0.2,0-0.4-0.1l-18.2-7c-0.5-0.2-0.8-0.8-0.6-1.3c0.2-0.5,0.8-0.8,1.3-0.6l18.2,7
				c0.5,0.2,0.8,0.8,0.6,1.3C481.5,290.5,481.1,290.8,480.7,290.8z"/>
			<path class="st12" d="M446,277.4c-0.1,0-0.2,0-0.4-0.1l-11.2-4.3c-0.5-0.2-0.8-0.8-0.6-1.3c0.2-0.5,0.8-0.8,1.3-0.6l11.2,4.3
				c0.5,0.2,0.8,0.8,0.6,1.3C446.7,277.2,446.4,277.4,446,277.4z"/>
			<path class="st13" d="M457.3,295.4c-0.1,0-0.2,0-0.4-0.1l-28.3-10.9c-0.5-0.2-0.8-0.8-0.6-1.3c0.2-0.5,0.8-0.8,1.3-0.6l28.3,10.9
				c0.5,0.2,0.8,0.8,0.6,1.3C458,295.1,457.7,295.4,457.3,295.4z"/>
		</g>
		<g>
			<g>
				<g>
					<g>
						<path class="st12" d="M361.9,292.2l-72.2-24.7c-0.8-0.3-1.3-1.2-1-2l33.7-98.6c0.3-0.8,1.2-1.3,2-1l72.2,24.7
							c0.8,0.3,1.3,1.2,1,2l-33.7,98.6C363.6,292.1,362.7,292.5,361.9,292.2z"/>
						<path class="st13" d="M362.4,293.8c-0.3,0-0.7-0.1-1-0.2L289.2,269c-0.8-0.3-1.4-0.8-1.8-1.6c-0.4-0.7-0.4-1.6-0.2-2.4
							l33.7-98.6c0.3-0.8,0.8-1.4,1.6-1.8c0.7-0.4,1.6-0.4,2.4-0.1l72.2,24.7c0.8,0.3,1.4,0.8,1.8,1.6c0.4,0.7,0.4,1.6,0.1,2.4
							l-33.7,98.6C364.9,293,363.7,293.8,362.4,293.8z M323.8,167.4C323.8,167.4,323.8,167.4,323.8,167.4l-33.8,98.7
							c0,0,0,0.1,0,0.1l72.2,24.7c0,0,0,0,0,0c0,0,0.1,0,0.1,0l33.7-98.6c0,0,0-0.1-0.1-0.1L323.8,167.4
							C323.9,167.4,323.9,167.4,323.8,167.4z"/>
					</g>
				</g>
			</g>
			<g>
				<g>
					<g>
						<path class="st11" d="M376.9,285.7l-76.1-6.1c-0.9-0.1-1.5-0.8-1.4-1.7l8.3-103.9c0.1-0.9,0.8-1.5,1.7-1.4l76.1,6.1
							c0.9,0.1,1.5,0.8,1.4,1.7l-8.3,103.9C378.5,285.1,377.7,285.7,376.9,285.7z"/>
						<path class="st13" d="M377,287.2c-0.1,0-0.2,0-0.3,0l-76.1-6.1c-0.8-0.1-1.6-0.4-2.1-1.1c-0.5-0.6-0.8-1.4-0.7-2.2l8.3-103.9
							c0.1-1.7,1.6-3,3.3-2.8l76.1,6.1c1.7,0.1,3,1.6,2.8,3.3L380,284.3c-0.1,0.8-0.4,1.6-1.1,2.1
							C378.4,286.9,377.7,287.2,377,287.2z M309.2,174C309.2,174,309.2,174,309.2,174l-8.4,104c0,0,0,0.1,0.1,0.1l76.1,6.1l0,0
							c0,0,0.1,0,0.1-0.1l8.3-103.9c0,0,0-0.1-0.1-0.1L309.2,174C309.2,174,309.2,174,309.2,174z"/>
					</g>
					<g>
						<g>
							<line class="st11" x1="355" y1="193.6" x2="374.3" y2="195.1"/>
							<path class="st12" d="M374.3,196.1C374.3,196.1,374.2,196.1,374.3,196.1l-19.3-1.5c-0.6,0-1-0.5-0.9-1.1c0-0.5,0.5-1,1.1-0.9
								l19.3,1.5c0.5,0,1,0.5,0.9,1.1C375.2,195.7,374.8,196.1,374.3,196.1z"/>
						</g>
						<g>
							<line class="st11" x1="354.5" y1="199.7" x2="373.8" y2="201.3"/>
							<path class="st12" d="M373.8,202.3C373.8,202.3,373.7,202.3,373.8,202.3l-19.3-1.5c-0.5,0-1-0.5-0.9-1.1c0-0.5,0.5-1,1.1-0.9
								l19.3,1.5c0.5,0,1,0.5,0.9,1.1C374.7,201.9,374.3,202.3,373.8,202.3z"/>
						</g>
						<g>
							<line class="st11" x1="309.4" y1="265.9" x2="328.7" y2="267.5"/>
							<path class="st12" d="M328.7,268.5C328.7,268.5,328.6,268.5,328.7,268.5l-19.3-1.5c-0.5,0-1-0.5-0.9-1.1c0-0.5,0.5-1,1.1-0.9
								l19.3,1.5c0.5,0,1,0.5,0.9,1.1C329.6,268.1,329.2,268.5,328.7,268.5z"/>
						</g>
						<g>
							<g>
								<line class="st11" x1="312.4" y1="232.6" x2="329.5" y2="234"/>
								<path class="st13" d="M329.5,235C329.5,235,329.5,235,329.5,235l-17.2-1.4c-0.5,0-1-0.5-0.9-1.1c0-0.5,0.5-1,1.1-0.9
									l17.1,1.4c0.5,0,1,0.5,0.9,1.1C330.5,234.6,330,235,329.5,235z"/>
							</g>
							<g>
								<line class="st11" x1="310.6" y1="255.4" x2="340" y2="257.8"/>
								<path class="st13" d="M340,258.8C340,258.8,340,258.8,340,258.8l-29.5-2.4c-0.5,0-1-0.5-0.9-1.1c0-0.5,0.5-1,1.1-0.9
									l29.5,2.4c0.5,0,1,0.5,0.9,1.1C341,258.4,340.5,258.8,340,258.8z"/>
							</g>
							<g>
								<line class="st11" x1="311.5" y1="244" x2="333.8" y2="245.8"/>
								<path class="st13" d="M333.8,246.8C333.8,246.8,333.7,246.8,333.8,246.8l-22.4-1.8c-0.5,0-1-0.5-0.9-1.1
									c0-0.5,0.5-1,1.1-0.9l22.3,1.8c0.6,0,1,0.5,0.9,1.1C334.7,246.4,334.3,246.8,333.8,246.8z"/>
							</g>
							<g>
								<line class="st11" x1="313.1" y1="222.1" x2="370.8" y2="226.7"/>
								<path class="st13" d="M370.8,227.7C370.8,227.7,370.8,227.7,370.8,227.7l-57.8-4.6c-0.5,0-1-0.5-0.9-1.1
									c0-0.5,0.5-1,1.1-0.9l57.7,4.6c0.5,0,1,0.5,0.9,1.1C371.8,227.3,371.3,227.7,370.8,227.7z"/>
							</g>
							<g>
								<line class="st11" x1="340.9" y1="246.3" x2="368.5" y2="248.5"/>
								<path class="st13" d="M368.5,249.5C368.4,249.5,368.4,249.5,368.5,249.5l-27.6-2.2c-0.5,0-1-0.5-0.9-1.1
									c0-0.5,0.5-1,1.1-0.9l27.6,2.2c0.5,0,1,0.5,0.9,1.1C369.4,249.1,369,249.5,368.5,249.5z"/>
							</g>
							<g>
								<line class="st11" x1="335.9" y1="234.3" x2="371.3" y2="237.3"/>
								<path class="st13" d="M371.3,238.3C371.2,238.3,371.2,238.3,371.3,238.3l-35.4-3c-0.6,0-1-0.5-0.9-1.1c0-0.6,0.5-1,1.1-0.9
									l35.3,3c0.6,0,1,0.5,0.9,1.1C372.2,237.9,371.8,238.3,371.3,238.3z"/>
							</g>
						</g>
					</g>
				</g>
				<g>
					<g>
						<path class="st17" d="M332.3,180.2"/>
					</g>
				</g>
			</g>
		</g>
	</g>
</g>
</svg>
