<?xml version="1.0" encoding="UTF-8" standalone="no"?>
<svg
   xmlns:dc="http://purl.org/dc/elements/1.1/"
   xmlns:cc="http://creativecommons.org/ns#"
   xmlns:rdf="http://www.w3.org/1999/02/22-rdf-syntax-ns#"
   xmlns:svg="http://www.w3.org/2000/svg"
   xmlns="http://www.w3.org/2000/svg"
   xmlns:sodipodi="http://sodipodi.sourceforge.net/DTD/sodipodi-0.dtd"
   xmlns:inkscape="http://www.inkscape.org/namespaces/inkscape"
   height="75.000008pt"
   viewBox="0 -39 88.416577 75.000008"
   width="88.416405pt"
   version="1.1"
   id="svg857"
   sodipodi:docname="security-system.html"
   inkscape:version="1.0.2-2 (e86c870879, 2021-01-15)">
  <metadata
     id="metadata863">
    <rdf:RDF>
      <cc:Work
         rdf:about="">
        <dc:format>image/svg+xml</dc:format>
        <dc:type
           rdf:resource="http://purl.org/dc/dcmitype/StillImage" />
        <dc:title></dc:title>
      </cc:Work>
    </rdf:RDF>
  </metadata>
  <defs
     id="defs861" />
  <sodipodi:namedview
     pagecolor="#ffffff"
     bordercolor="#666666"
     borderopacity="1"
     objecttolerance="10"
     gridtolerance="10"
     guidetolerance="10"
     inkscape:pageopacity="0"
     inkscape:pageshadow="2"
     inkscape:window-width="1600"
     inkscape:window-height="837"
     id="namedview859"
     showgrid="false"
     fit-margin-top="0"
     fit-margin-left="0"
     fit-margin-right="0"
     fit-margin-bottom="0"
     inkscape:zoom="0.94775391"
     inkscape:cx="341.33333"
     inkscape:cy="289.33277"
     inkscape:window-x="-8"
     inkscape:window-y="-8"
     inkscape:window-maximized="1"
     inkscape:current-layer="svg857" />
  <path
     d="M 42.686446,16.643657 37.40528,11.630293 C 36.88654,11.137186 36.865628,10.31759 37.35806,9.79885 37.850493,9.28011 38.670089,9.259198 39.188829,9.75163 l 4.162063,3.951599 7.52207,-11.352922 c 0.395294,-0.596315 1.199375,-0.75956 1.795016,-0.364265 0.596315,0.39462 0.75956,1.198701 0.364265,1.795016 0,0 -8.369323,12.631897 -8.374045,12.639317 -0.429697,0.647582 -1.403769,0.769003 -1.971752,0.223281 z m 0,0"
     id="path849"
     style="stroke-width:0.172689;fill:#ffffff" />
  <path
     d="M 43.555285,35.84109 C 24.340988,26.866008 20.823808,7.348832 20.2167,1.550274 c -0.139635,-1.339685 0.596315,-2.595049 1.831443,-3.123233 3.777561,-1.615583 6.319995,-5.165141 6.635692,-9.263796 0.101184,-1.320797 1.173067,-2.3232 2.491841,-2.331295 l 25.777136,-0.151102 h 0.01417 c 1.29314,0 2.391331,1.001054 2.503309,2.286099 0.357519,4.096631 2.938403,7.621231 6.734178,9.197013 1.247944,0.517391 2.002782,1.76601 1.878662,3.10637 -0.538977,5.805303 -3.822082,25.375096 -22.93452,34.561991 -0.45803,0.219907 -1.134618,0.22328 -1.593322,0.0088 z M 31.261346,-10.578396 c -0.410135,5.038997 -3.545512,9.398708 -8.194611,11.387324 -0.18483,0.07892 -0.294784,0.268477 -0.273873,0.471521 0.567309,5.424173 3.794426,23.691382 21.544243,32.06745 C 61.985738,24.76474 64.999693,6.461104 65.503592,1.03086 65.52248,0.827141 65.405106,0.63624 65.211506,0.555292 60.544868,-1.381383 57.364971,-5.70062 56.896823,-10.728824 Z m 0,0"
     id="path851"
     style="stroke-width:0.172689;fill:#ffffff" />
  <path
     d="M 43.296252,30.525521 C 37.503092,27.35844 32.872881,22.777472 29.614059,16.761031 26.910404,11.769253 25.7171,6.880009 25.191614,3.657614 25.049281,2.783379 25.445925,1.923309 26.202786,1.466629 c 3.115814,-1.880012 5.370209,-4.844723 6.348327,-8.348412 0.257009,-0.922129 1.104937,-1.570386 2.06012,-1.575782 l 18.960661,-0.111304 c 0.959231,6.75e-4 1.810532,0.632067 2.079008,1.551499 1.019267,3.491546 3.308065,6.429949 6.446139,8.273534 0.761584,0.447911 1.168346,1.302584 1.036132,2.178169 -0.487036,3.228466 -1.623003,8.130527 -4.268645,13.154684 -3.187992,6.054217 -7.764238,10.68915 -13.518948,13.924362 -0.547072,0.307601 -1.331591,0.404738 -2.049328,0.01214 z M 27.796108,3.527423 c 0.516042,3.024073 1.643239,7.472152 4.095281,12.000504 2.973481,5.489606 7.14971,9.727221 12.414686,12.599517 5.231249,-2.934356 9.35756,-7.221214 12.266283,-12.745223 2.399426,-4.557358 3.474007,-9.017579 3.954297,-12.046374 -3.483451,-2.130275 -6.04882,-5.418103 -7.267759,-9.312364 L 34.953912,-5.869261 C 33.781519,-1.961509 31.2546,1.356675 27.796108,3.527423 Z m 0,0"
     id="path853"
     style="stroke-width:0.172689;fill:#ffffff" />
  <path
     d="m 74.224363,18.635646 h -6.116951 c -0.715713,0 -1.295164,-0.579451 -1.295164,-1.295164 0,-0.715038 0.579451,-1.295164 1.295164,-1.295164 h 6.116951 c 6.397571,0 11.601836,-5.204266 11.601836,-11.601836 0,-6.396896 -5.204265,-11.641635 -11.601836,-11.601836 -1.47932,0.0094 -1.608836,-0.961929 -1.622328,-3.024073 -0.09174,-14.461315 -11.765755,-26.227745 -26.22707,-26.227745 -10.559634,0 -20.460893,6.728782 -24.365947,16.504571 -0.202369,0.506598 -0.754163,0.79801 -1.84291,0.798685 -9.691469,0.0061 -17.5757801,7.884985 -17.5757801,17.575779 0,9.69147 7.8843111,17.576455 17.5757801,17.576455 0.715713,0 1.295164,0.580126 1.295164,1.295164 0,0.715038 -0.579451,1.295164 -1.295164,1.295164 C 9.0465855,18.635646 0,9.589061 0,-1.531137 0,-12.57848 8.9292112,-21.57987 19.950247,-21.695895 26.162312,-36.635477 40.498833,-39.0005 46.374965,-39.0005 c 15.890043,0 28.818073,12.92803 28.818073,28.818073 0,0.15515 -0.002,0.3103 -0.004,0.466124 7.377712,0.497154 13.227536,6.657952 13.227536,14.159785 0,7.825624 -6.36654,14.192164 -14.192164,14.192164 z m 0,0"
     id="path855"
     style="stroke-width:0.172689;fill:#ffffff" />
</svg>
