<?xml version="1.0" encoding="UTF-8" standalone="no"?>
<svg
   xmlns:dc="http://purl.org/dc/elements/1.1/"
   xmlns:cc="http://creativecommons.org/ns#"
   xmlns:rdf="http://www.w3.org/1999/02/22-rdf-syntax-ns#"
   xmlns:svg="http://www.w3.org/2000/svg"
   xmlns="http://www.w3.org/2000/svg"
   xmlns:sodipodi="http://sodipodi.sourceforge.net/DTD/sodipodi-0.dtd"
   xmlns:inkscape="http://www.inkscape.org/namespaces/inkscape"
   id="Icons"
   height="100"
   viewBox="0 0 14.452546 14.453125"
   width="99.995995"
   version="1.1"
   sodipodi:docname="rocket.html"
   inkscape:version="1.0.2-2 (e86c870879, 2021-01-15)">
  <metadata
     id="metadata877">
    <rdf:RDF>
      <cc:Work
         rdf:about="">
        <dc:format>image/svg+xml</dc:format>
        <dc:type
           rdf:resource="http://purl.org/dc/dcmitype/StillImage" />
        <dc:title></dc:title>
      </cc:Work>
    </rdf:RDF>
  </metadata>
  <defs
     id="defs875" />
  <sodipodi:namedview
     pagecolor="#ffffff"
     bordercolor="#666666"
     borderopacity="1"
     objecttolerance="10"
     gridtolerance="10"
     guidetolerance="10"
     inkscape:pageopacity="0"
     inkscape:pageshadow="2"
     inkscape:window-width="1600"
     inkscape:window-height="837"
     id="namedview873"
     showgrid="false"
     fit-margin-top="0"
     fit-margin-left="0"
     fit-margin-right="0"
     fit-margin-bottom="0"
     inkscape:zoom="1.2636719"
     inkscape:cx="242.4236"
     inkscape:cy="242.43008"
     inkscape:window-x="-8"
     inkscape:window-y="-8"
     inkscape:window-maximized="1"
     inkscape:current-layer="Icons" />
  <path
     d="m 6.2808008,11.781606 a 0.20769089,0.20769089 0 0 1 -0.06703,-0.01114 5.4360564,5.4360564 0 0 1 -3.5311576,-3.5311572 0.20624716,0.20624716 0 0 1 0.026193,-0.185623 L 5.7757015,3.6775359 c 1.959348,-2.5428212 5.1178175,-3.9038462 8.4561335,-3.646656 a 0.20624716,0.20624716 0 0 1 0.189954,0.1897474 c 0.256572,3.337904 -1.103835,6.4967855 -3.639231,8.4507715 l -0.0074,0.0056 -4.3761526,3.0664832 a 0.20480343,0.20480343 0 0 1 -0.1181796,0.03816 z M 3.107482,8.2038358 A 5.0198496,5.0198496 0 0 0 6.249245,11.345599 L 10.534443,8.3422278 C 12.911854,6.5082782 14.207705,3.561625 14.022701,0.4305869 10.887744,0.2449644 7.9417092,1.5424653 6.1079657,3.9223513 Z"
     id="path856"
     style="stroke-width:0.206247;fill:#ffffff" />
  <path
     d="m 13.729417,4.399401 a 0.2107846,0.2107846 0 0 1 -0.03898,-0.00351 4.5510498,4.5510498 0 0 1 -2.373493,-1.2597577 4.5510498,4.5510498 0 0 1 -1.259757,-2.3734923 0.20629485,0.20629485 0 0 1 0.405275,-0.077343 4.1399992,4.1399992 0 0 0 1.146116,2.1592015 4.1399992,4.1399992 0 0 0 2.159201,1.1461155 0.20624716,0.20624716 0 0 1 -0.03836,0.4087819 z"
     id="path858"
     style="stroke-width:0.206247;fill:#ffffff" />
  <path
     d="M 9.0177006,7.0505019 A 1.6151215,1.6151215 0 1 1 10.160104,6.5779897 1.6107903,1.6107903 0 0 1 9.0177006,7.0505019 Z m 0,-2.8183674 a 1.2034522,1.2034522 0 1 0 0.85077,0.3524764 1.1962335,1.1962335 0 0 0 -0.85077,-0.3524764 z"
     id="path860"
     style="stroke-width:0.206247;fill:#ffffff" />
  <path
     d="M 7.903966,14.43745 H 7.891591 A 0.20624716,0.20624716 0 0 1 7.728037,14.33907 L 6.1050782,11.683432 a 0.20629099,0.20629099 0 1 1 0.3520639,-0.215116 l 1.4682736,2.402573 1.1114659,-1.407636 a 2.9942963,2.9942963 0 0 0 0.615442,-2.22747 L 9.5166126,9.1921728 a 0.20624716,0.20624716 0 1 1 0.408988,-0.05321 L 10.061312,10.18278 a 3.4082343,3.4082343 0 0 1 -0.7012414,2.53684 l -1.295026,1.640283 a 0.20624716,0.20624716 0 0 1 -0.1610786,0.07755 z"
     id="path862"
     style="stroke-width:0.206247;fill:#ffffff" />
  <path
     d="M 2.877104,8.3781148 A 0.20624716,0.20624716 0 0 1 2.7696492,8.3480028 L 0.11442328,6.7250439 A 0.20624716,0.20624716 0 0 1 0.09379848,6.3874173 L 1.7340822,5.0923914 A 3.409678,3.409678 0 0 1 4.2709223,4.3911511 L 5.3147391,4.5268617 A 0.20624716,0.20624716 0 1 1 5.2615274,4.9358498 L 4.2179167,4.8001392 A 2.9953275,2.9953275 0 0 0 1.9904474,5.4155807 L 0.58219178,6.5276654 2.984765,7.9959389 A 0.20624716,0.20624716 0 0 1 2.877104,8.3781148 Z"
     id="path864"
     style="stroke-width:0.206247;fill:#ffffff" />
  <path
     d="M 2.7352059,14.453125 A 0.20624716,0.20624716 0 0 1 2.5893892,14.101061 l 1.8419933,-1.841993 a 0.20624716,0.20624716 0 1 1 0.2916335,0.291633 l -1.8419933,1.841994 a 0.20624716,0.20624716 0 0 1 -0.1458168,0.06043 z"
     id="path866"
     style="stroke-width:0.206247;fill:#ffffff" />
  <path
     d="M 0.20620318,11.924123 A 0.20624716,0.20624716 0 0 1 0.06038648,11.572059 L 1.9023799,9.7300648 a 0.20624716,0.20624716 0 1 1 0.2916335,0.2916342 l -1.84199342,1.841993 a 0.20624716,0.20624716 0 0 1 -0.1458168,0.06043 z"
     id="path868"
     style="stroke-width:0.206247;fill:#ffffff" />
  <path
     d="M 0.33118898,14.328139 A 0.20624716,0.20624716 0 0 1 0.18537228,13.976076 L 2.16782,11.993628 a 0.20624716,0.20624716 0 0 1 0.2916335,0.291633 l -1.98244772,1.982448 a 0.20624716,0.20624716 0 0 1 -0.1458168,0.06043 z"
     id="path870"
     style="stroke-width:0.206247;fill:#ffffff" />
</svg>
