<?xml version="1.0" encoding="UTF-8" standalone="no"?>
<svg
   xmlns:dc="http://purl.org/dc/elements/1.1/"
   xmlns:cc="http://creativecommons.org/ns#"
   xmlns:rdf="http://www.w3.org/1999/02/22-rdf-syntax-ns#"
   xmlns:svg="http://www.w3.org/2000/svg"
   xmlns="http://www.w3.org/2000/svg"
   xmlns:sodipodi="http://sodipodi.sourceforge.net/DTD/sodipodi-0.dtd"
   xmlns:inkscape="http://www.inkscape.org/namespaces/inkscape"
   height="100"
   viewBox="0 0 12.5 12.5"
   width="100"
   version="1.1"
   id="svg899"
   sodipodi:docname="database-storage.html"
   inkscape:version="1.0.2-2 (e86c870879, 2021-01-15)">
  <metadata
     id="metadata905">
    <rdf:RDF>
      <cc:Work
         rdf:about="">
        <dc:format>image/svg+xml</dc:format>
        <dc:type
           rdf:resource="http://purl.org/dc/dcmitype/StillImage" />
        <dc:title></dc:title>
      </cc:Work>
    </rdf:RDF>
  </metadata>
  <defs
     id="defs903" />
  <sodipodi:namedview
     pagecolor="#ffffff"
     bordercolor="#666666"
     borderopacity="1"
     objecttolerance="10"
     gridtolerance="10"
     guidetolerance="10"
     inkscape:pageopacity="0"
     inkscape:pageshadow="2"
     inkscape:window-width="1600"
     inkscape:window-height="837"
     id="namedview901"
     showgrid="false"
     fit-margin-top="0"
     fit-margin-left="0"
     fit-margin-right="0"
     fit-margin-bottom="0"
     inkscape:zoom="1.2636719"
     inkscape:cx="240"
     inkscape:cy="240"
     inkscape:window-x="-8"
     inkscape:window-y="-8"
     inkscape:window-maximized="1"
     inkscape:current-layer="svg899" />
  <g
     id="database_server"
     data-name="database server"
     transform="matrix(0.20833333,0,0,0.20833333,-0.41666666,-0.41666666)"
     style="fill:#ffffff">
    <path
       d="M 43.82,20.01 A 2.986,2.986 0 0 0 41,18 h -1 v -2 h 1 a 3.009,3.009 0 0 0 3,-3 V 5 A 3.009,3.009 0 0 0 41,2 H 5 A 3.009,3.009 0 0 0 2,5 v 8 a 3.009,3.009 0 0 0 3,3 h 1 v 2 H 5 a 3.009,3.009 0 0 0 -3,3 v 8 a 3.009,3.009 0 0 0 3,3 h 1 v 2 H 5 a 3.009,3.009 0 0 0 -3,3 v 8 a 3.009,3.009 0 0 0 3,3 h 19 v 8 c 0,3.94 9.56,6 19,6 9.44,0 19,-2.06 19,-6 V 26 C 62,22.17 52.99,20.13 43.82,20.01 Z M 5,14 A 1,1 0 0 1 4,13 V 5 A 1,1 0 0 1 5,4 h 36 a 1,1 0 0 1 1,1 v 8 a 1,1 0 0 1 -1,1 z m 33,2 v 2 h -4 v -2 z m -6,0 v 2 H 14 v -2 z m -20,0 v 2 H 8 V 16 Z M 24,46 H 5 A 1,1 0 0 1 4,45 V 37 A 1,1 0 0 1 5,36 H 24 Z M 8,34 v -2 h 4 v 2 z m 16,0 H 14 v -2 h 10 z m 0,-8 v 4 H 5 A 1,1 0 0 1 4,29 v -8 a 1,1 0 0 1 1,-1 h 36 a 0.7,0.7 0 0 1 0.14,0.03 C 32.34,20.28 24,22.32 24,26 Z m 36,30 c 0,1.36 -6,4 -17,4 -11,0 -17,-2.64 -17,-4 v -7.18 c 3.29,2.09 10.16,3.18 17,3.18 6.84,0 13.71,-1.09 17,-3.18 z m 0,-10 c 0,1.36 -6,4 -17,4 -11,0 -17,-2.64 -17,-4 v -7.18 c 3.29,2.09 10.16,3.18 17,3.18 6.84,0 13.71,-1.09 17,-3.18 z m 0,-10 c 0,1.36 -6,4 -17,4 C 32,40 26,37.36 26,36 V 28.82 C 29.29,30.91 36.16,32 43,32 49.84,32 56.71,30.91 60,28.82 Z M 43,30 c -11,0 -17,-2.64 -17,-4 0,-1.36 6,-4 17,-4 11,0 17,2.64 17,4 0,1.36 -6,4 -17,4 z"
       id="path870"
       style="fill:#ffffff" />
    <path
       d="m 42,35 h 2 v 2 h -2 z"
       id="path872"
       style="fill:#ffffff" />
    <path
       d="m 42,46 h 2 v 2 h -2 z"
       id="path874"
       style="fill:#ffffff" />
    <path
       d="m 42,55 h 2 v 2 h -2 z"
       id="path876"
       style="fill:#ffffff" />
    <path
       d="M 11,22 H 7 a 1,1 0 0 0 -1,1 v 4 a 1,1 0 0 0 1,1 h 4 a 1,1 0 0 0 1,-1 v -4 a 1,1 0 0 0 -1,-1 z m -1,4 H 8 v -2 h 2 z"
       id="path878"
       style="fill:#ffffff" />
    <path
       d="m 19,22 h -4 a 1,1 0 0 0 -1,1 v 4 a 1,1 0 0 0 1,1 h 4 a 1,1 0 0 0 1,-1 v -4 a 1,1 0 0 0 -1,-1 z m -1,4 h -2 v -2 h 2 z"
       id="path880"
       style="fill:#ffffff" />
    <path
       d="M 11,6 H 7 A 1,1 0 0 0 6,7 v 4 a 1,1 0 0 0 1,1 h 4 a 1,1 0 0 0 1,-1 V 7 A 1,1 0 0 0 11,6 Z m -1,4 H 8 V 8 h 2 z"
       id="path882"
       style="fill:#ffffff" />
    <path
       d="m 19,6 h -4 a 1,1 0 0 0 -1,1 v 4 a 1,1 0 0 0 1,1 h 4 a 1,1 0 0 0 1,-1 V 7 A 1,1 0 0 0 19,6 Z m -1,4 H 16 V 8 h 2 z"
       id="path884"
       style="fill:#ffffff" />
    <path
       d="M 22,6 H 36 V 8 H 22 Z"
       id="path886"
       style="fill:#ffffff" />
    <path
       d="m 38,6 h 2 v 2 h -2 z"
       id="path888"
       style="fill:#ffffff" />
    <path
       d="m 22,10 h 14 v 2 H 22 Z"
       id="path890"
       style="fill:#ffffff" />
    <path
       d="m 38,10 h 2 v 2 h -2 z"
       id="path892"
       style="fill:#ffffff" />
    <path
       d="M 11,38 H 7 a 1,1 0 0 0 -1,1 v 4 a 1,1 0 0 0 1,1 h 4 a 1,1 0 0 0 1,-1 v -4 a 1,1 0 0 0 -1,-1 z m -1,4 H 8 v -2 h 2 z"
       id="path894"
       style="fill:#ffffff" />
    <path
       d="m 19,38 h -4 a 1,1 0 0 0 -1,1 v 4 a 1,1 0 0 0 1,1 h 4 a 1,1 0 0 0 1,-1 v -4 a 1,1 0 0 0 -1,-1 z m -1,4 h -2 v -2 h 2 z"
       id="path896"
       style="fill:#ffffff" />
  </g>
</svg>
