<?xml version="1.0" encoding="UTF-8" standalone="no"?>
<svg
   xmlns:dc="http://purl.org/dc/elements/1.1/"
   xmlns:cc="http://creativecommons.org/ns#"
   xmlns:rdf="http://www.w3.org/1999/02/22-rdf-syntax-ns#"
   xmlns:svg="http://www.w3.org/2000/svg"
   xmlns="http://www.w3.org/2000/svg"
   xmlns:sodipodi="http://sodipodi.sourceforge.net/DTD/sodipodi-0.dtd"
   xmlns:inkscape="http://www.inkscape.org/namespaces/inkscape"
   height="100"
   viewBox="0 0 11.717924 11.71875"
   width="99.99295"
   version="1.1"
   id="svg879"
   sodipodi:docname="email.svg"
   inkscape:version="1.0.2-2 (e86c870879, 2021-01-15)">
  <metadata
     id="metadata885">
    <rdf:RDF>
      <cc:Work
         rdf:about="">
        <dc:format>image/svg+xml</dc:format>
        <dc:type
           rdf:resource="http://purl.org/dc/dcmitype/StillImage" />
        <dc:title></dc:title>
      </cc:Work>
    </rdf:RDF>
  </metadata>
  <defs
     id="defs883" />
  <sodipodi:namedview
     pagecolor="#ffffff"
     bordercolor="#666666"
     borderopacity="1"
     objecttolerance="10"
     gridtolerance="10"
     guidetolerance="10"
     inkscape:pageopacity="0"
     inkscape:pageshadow="2"
     inkscape:window-width="1600"
     inkscape:window-height="837"
     id="namedview881"
     showgrid="false"
     fit-margin-top="0"
     fit-margin-left="0"
     fit-margin-right="0"
     fit-margin-bottom="0"
     inkscape:zoom="1.2636719"
     inkscape:cx="256"
     inkscape:cy="256.03609"
     inkscape:window-x="-8"
     inkscape:window-y="-8"
     inkscape:window-maximized="1"
     inkscape:current-layer="svg879" />
  <g
     id="Page-1"
     fill="none"
     fill-rule="evenodd"
     transform="matrix(0.19529873,0,0,0.19529873,0,8.2594774e-4)"
     style="fill:#ffffff">
    <g
       id="015---Email"
       fill="#000000"
       fill-rule="nonzero"
       transform="translate(0,-1)"
       style="fill:#ffffff">
      <path
         id="Shape"
         d="m 31.2383,34.99 c -2.241564,-0.0104 -4.468517,-0.361578 -6.6045,-1.0415 -3.412842,-1.141775 -5.94774,-4.031019 -6.6358,-7.5634 -0.7529,-3.6265 0.6192,-7.461 3.7637,-10.52 0.3374,-0.3286 0.688,-0.643367 1.0518,-0.9443 3.219629,-2.695461 7.5603,-3.632193 11.605,-2.5044 3.915754,1.249813 6.621455,4.828357 6.7568,8.9365 0.146615,2.364745 -0.624135,4.694975 -2.1519,6.5059 -1.178302,1.484271 -3.087449,2.185355 -4.9463,1.8164 C 33.316882,29.517454 32.653624,29.057062 32.24,28.4 c -0.371129,-0.638228 -0.466307,-1.400084 -0.2636,-2.11 0.8745,-3.3056 1.7636,-8.3291 1.7724,-8.38 0.06211,-0.351907 0.307243,-0.643946 0.643059,-0.76611 0.335815,-0.122164 0.711295,-0.05589 0.985,0.17385 0.273704,0.229743 0.404052,0.588053 0.341941,0.93996 -0.0371,0.209 -0.9126,5.1572 -1.8086,8.5435 -0.06395,0.187651 -0.0479,0.393346 0.0444,0.5688 0.13828,0.191343 0.346917,0.319906 0.58,0.3574 1.137929,0.189923 2.287361,-0.266592 2.9849,-1.1855 1.186402,-1.419349 1.780845,-3.24096 1.66,-5.0869 -0.09778,-3.270018 -2.242135,-6.124934 -5.3554,-7.13 -3.398306,-0.934703 -7.03895,-0.136193 -9.7341,2.135 -0.3213,0.2667 -0.6338,0.5459 -0.9336,0.8379 -1.5546,1.5122 -4.0371,4.65 -3.2006,8.68 0.562034,2.815483 2.572876,5.122868 5.2851,6.0645 4.69,1.4961 11.4292,1.6762 14.98,-2.7388 0.348858,-0.420143 0.970258,-0.482723 1.395885,-0.140578 0.425626,0.342145 0.498062,0.962475 0.162715,1.393478 -2.6257,3.2653 -6.6213,4.4335 -10.5412,4.4335 z"
         style="fill:#ffffff" />
      <path
         id="path861"
         d="m 27.8149,29.8052 c -1.057028,0.01816 -2.088031,-0.328458 -2.9194,-0.9815 -1.9194,-1.5361 -1.9722,-4.2046 -1.4341,-6.0219 0.181217,-0.605211 0.424544,-1.190056 0.7261,-1.7452 0.750322,-1.513887 1.95007,-2.758969 3.4351,-3.5649 1.849346,-0.959606 4.108844,-0.595708 5.5634,0.896 0.721624,0.790825 1.265188,1.727263 1.594,2.7461 0.17414,0.517019 -0.09825,1.078202 -0.612189,1.261237 C 33.653873,22.578071 33.088075,22.315404 32.8962,21.8047 32.659117,21.051996 32.265041,20.358155 31.74,19.769 c -0.848032,-0.867239 -2.169406,-1.064559 -3.2338,-0.4829 -1.113695,0.62807 -2.008709,1.58167 -2.565,2.7329 -0.233774,0.431336 -0.422599,0.885555 -0.5635,1.3555 -0.3886,1.3145 -0.3032,3.03 0.7691,3.8887 1.1723,0.9414 3.15,0.5434 4.2627,-0.4165 0.829232,-0.746533 1.541733,-1.613286 2.1137,-2.5713 0.185221,-0.310356 0.523496,-0.496616 0.884798,-0.487184 0.361302,0.0094 0.689398,0.213087 0.858175,0.532684 0.168776,0.319598 0.151964,0.705395 -0.04397,1.0091 -0.677482,1.128851 -1.520918,2.149368 -2.502,3.0273 -1.093477,0.922617 -2.474657,1.434693 -3.9053,1.4479 z"
         style="fill:#ffffff" />
      <path
         id="path863"
         d="M 57,61 H 3 C 1.3438997,60.998181 0.00181871,59.6561 0,58 V 21 C 1.572e-5,20.612221 0.22421679,20.259411 0.57528314,20.094714 0.92634949,19.930018 1.3409823,19.983132 1.6392,20.231 l 24.5371,20.3925 c 2.220173,1.83356 5.429398,1.832972 7.6489,-0.0014 L 58.36,20.231 c 0.298197,-0.248376 0.713171,-0.301793 1.064547,-0.137031 C 59.775924,20.25873 60.000243,20.611913 60,21 v 37 c -0.0018,1.6561 -1.3439,2.998181 -3,3 z M 2,23.1313 V 58 c 7.162e-4,0.551988 0.4480122,0.999284 1,1 h 54 c 0.552079,-4.96e-4 0.999504,-0.447921 1,-1 V 23.1313 l -22.8979,19.03 c -2.960633,2.446724 -7.241348,2.447353 -10.2027,0.0015 z"
         style="fill:#ffffff" />
      <path
         id="path865"
         d="M 1.001,22 C 0.5654299,22.000395 0.17970509,21.718809 0.04736602,21.30383 -0.08497306,20.88885 0.06651803,20.435943 0.4219,20.1841 l 9,-6.38 c 0.4505952,-0.312297 1.068627,-0.203566 1.385581,0.243765 0.316954,0.447332 0.214639,1.066459 -0.229381,1.388035 l -9,6.38 C 1.4095757,21.935821 1.2078366,22.000177 1.001,22 Z"
         style="fill:#ffffff" />
      <path
         id="path867"
         d="m 58.999,22 c -0.206837,1.77e-4 -0.408576,-0.06418 -0.5771,-0.1841 l -9,-6.38 C 48.97788,15.114324 48.875565,14.495197 49.192519,14.047865 49.509473,13.600533 50.127505,13.491803 50.5781,13.8041 l 9,6.38 c 0.355382,0.251843 0.506873,0.70475 0.374534,1.11973 C 59.820295,21.718809 59.43457,22.000395 58.999,22 Z"
         style="fill:#ffffff" />
      <path
         id="path869"
         d="M 39.2393,8 C 39.032288,8.0001094 38.830378,7.935765 38.6616,7.8159 l -4.78,-3.39 C 31.662714,2.5508853 28.420314,2.5313533 26.179,4.3795 L 21.339,7.816 C 21.047507,8.0227139 20.667876,8.0582157 20.34311,7.9091323 20.018344,7.7600489 19.797783,7.4490296 19.76451,7.0932323 19.731237,6.737435 19.890307,6.3909139 20.1818,6.1842 l 4.78,-3.39 C 27.915414,0.37916533 32.166929,0.39837448 35.0986,2.84 l 4.72,3.3438 c 0.355685,0.2517805 0.507368,0.7049066 0.374943,1.1200803 C 40.061118,7.7190539 39.675081,8.0006677 39.2393,8 Z"
         style="fill:#ffffff" />
      <path
         id="path871"
         d="M 1.65,60.46 C 1.2285681,60.460368 0.85213753,60.196486 0.70877095,59.80019 0.56540438,59.403893 0.68587647,58.960249 1.01,58.6909 l 22.82,-18.96 c 0.274211,-0.233169 0.652576,-0.300979 0.990696,-0.177553 0.33812,0.123426 0.583821,0.419043 0.643333,0.774032 0.05951,0.35499 -0.07635,0.714574 -0.355729,0.941521 l -22.82,18.96 C 2.109134,60.378257 1.8832551,60.460038 1.65,60.46 Z"
         style="fill:#ffffff" />
      <path
         id="path873"
         d="m 58.3486,60.46 c -0.233074,1.38e-4 -0.458786,-0.08162 -0.6377,-0.231 l -22.82,-18.96 c -0.279382,-0.226947 -0.415241,-0.586531 -0.355729,-0.941521 0.05951,-0.354989 0.305213,-0.650606 0.643333,-0.774032 0.33812,-0.123426 0.716485,-0.05562 0.990696,0.177553 l 22.8194,18.96 c 0.324123,0.269349 0.444596,0.712993 0.301229,1.109289 -0.143367,0.396297 -0.519797,0.660178 -0.941229,0.659811 z"
         style="fill:#ffffff" />
      <path
         id="path875"
         d="m 50,29.48 c -0.552285,0 -1,-0.447715 -1,-1 V 8.0078 C 48.9971,8.0288 48.957,8.0005 48.89,8 H 11.11 C 11.0658,7.99729 11.02242,8.01283 10.99,8.043 L 11,28.48 c 0,0.552285 -0.447715,1 -1,1 -0.5522847,0 -1,-0.447715 -1,-1 V 8 C 9.0322609,6.8658964 9.9757944,5.9715518 11.11,6 H 48.89 C 50.024163,5.971663 50.967631,6.8659449 51,8 v 20.48 c 0,0.552285 -0.447715,1 -1,1 z"
         style="fill:#ffffff" />
    </g>
  </g>
</svg>
