<svg xmlns:dc="http://purl.org/dc/elements/1.1/" xmlns:cc="http://creativecommons.org/ns#" xmlns:rdf="http://www.w3.org/1999/02/22-rdf-syntax-ns#" xmlns:svg="http://www.w3.org/2000/svg" xmlns="http://www.w3.org/2000/svg" xmlns:sodipodi="http://sodipodi.sourceforge.net/DTD/sodipodi-0.dtd" xmlns:inkscape="http://www.inkscape.org/namespaces/inkscape" id="Layer_1" x="0px" y="0px" viewBox="0 0 623.09998 483.72733" xml:space="preserve" sodipodi:docname="6DFDD29C-FC16-40AC-AF6F-3AF8685CA869.svg" width="623.09998" height="483.72733" inkscape:version="1.0.2-2 (e86c870879, 2021-01-15)"><metadata></metadata><defs id="defs1868"></defs><style type="text/css" id="style941">	.st0{opacity:0.3;}	.st1{fill:#9CBEEB;}	.st2{fill:#5793CE;}	.st3{fill:#396CAA;}	.st4{fill:#43A048;}	.st5{fill:#B2ECB6;}	.st6{fill:#FFFFFF;}	.st7{fill:#66BF6B;}	.st8{fill:#D4ECFF;}	.st9{opacity:0.3;fill:#D5E1F2;enable-background:new    ;}	.st10{fill:#DAE4F2;}	.st11{fill:#FFFFFF;stroke:#BBCDE5;}	.st12{fill:#BBCDE5;}	.st13{fill:#E8F0FB;}	.st14{fill:#FAFDFF;}	.st15{fill:#2378DF;}	.st16{fill:#0D54A9;}	.st17{fill:#173D7A;}	.st18{opacity:0.5;fill:#D4ECFF;enable-background:new    ;}	.st19{fill:#6F86A6;}	.st20{fill:#C1CEDF;}	.st21{fill:#A4B6CE;}	.st22{fill:#95AAC6;}	.st23{fill:#EDF2F9;}	.st24{fill:#D2DCEA;}	.st25{fill:#90A9CB;}	.st26{fill:url(#SVGID_1_);}	.st27{fill:#5BA1F5;}	.st28{fill:#EAEAEA;}	.st29{fill:#8FCF92;}	.st30{fill:#C2E4C4;}	.st31{fill:#7FBBFF;}	.st32{fill:#FFC2B0;}	.st33{fill:#EA9C92;}	.st34{fill:#00377A;}	.st35{fill:#4386D7;}	.st36{fill:#1856A1;}	.st37{fill:#C3CFE0;}	.st38{fill:#386FB2;}	.st39{fill:#3C8EF0;}	.st40{fill:#B0D4FF;}</style><title id="title943">6DFDD29C-FC16-40AC-AF6F-3AF8685CA869</title><desc id="desc945">Created with sketchtool.</desc><g id="Page-1" transform="translate(-93.2,-144.44606)">	<g id="Landing_TemplateMonster_option1" transform="translate(-632,-2036)">		<g id="section2" transform="translate(160,2036)">			<g id="illustration1" transform="translate(472)">				<g id="Group-13" transform="translate(0,256.77337)" class="st0">					<path id="Shape" class="st1" d="m 425.6,88.6 c -1.5,0 -2.8,-0.3 -4.2,-1.2 L 377.1,61.8 c -1,-0.5 -1.5,-1.7 -1.5,-2.7 0,-1.2 0.7,-2.2 1.5,-2.7 l 96,-55.3 c 2.7,-1.5 5.9,-1.5 8.4,0 l 44.3,25.6 c 1,0.5 1.5,1.7 1.5,2.7 0,1.2 -0.7,2.2 -1.5,2.7 l -96,55.3 c -1.4,0.8 -2.7,1.2 -4.2,1.2 z M 477.2,1.5 c -1.2,0 -2.3,0.3 -3.3,0.8 l -96.1,55.5 c -0.5,0.3 -0.8,0.8 -0.8,1.3 0,0.5 0.3,1.2 0.8,1.3 L 422.1,86 c 2.2,1.2 4.7,1.2 6.9,0 l 96,-55.3 c 0.5,-0.3 0.8,-0.8 0.8,-1.3 0,-0.5 -0.3,-1.2 -0.8,-1.3 L 480.6,2.5 c -1,-0.7 -2.2,-1 -3.4,-1 z"></path>					<path class="st1" d="m 281.3,371.4 c -2.7,0 -5.2,-0.5 -7,-1.7 L 96.2,266.3 c -2,-1.2 -3,-2.7 -3,-4.5 0,-2.2 1.5,-4.2 4.2,-5.7 L 288.3,145.9 c 4.8,-2.7 12,-3 16.2,-0.7 l 178.1,103.4 c 2,1.2 3,2.7 3,4.5 0,2.2 -1.5,4.2 -4.2,5.7 L 290.5,369.1 c -2.7,1.7 -6,2.3 -9.2,2.3 z m -6.3,-3 c 3.7,2.2 10.2,1.8 14.5,-0.7 L 480.6,257.5 c 2.2,-1.2 3.3,-2.8 3.3,-4.3 0,-1.2 -0.8,-2.3 -2.3,-3.2 L 303.5,146.6 c -3.7,-2.2 -10.2,-1.8 -14.5,0.7 L 98,257.5 c -2.2,1.2 -3.3,2.8 -3.3,4.3 0,1.2 0.8,2.3 2.3,3.2 z" id="path948"></path>					<path class="st1" d="m 574.9,183.9 c -1.2,0 -2.5,-0.3 -3.3,-0.8 L 470.4,124.6 c -1,-0.5 -1.5,-1.5 -1.5,-2.3 0,-1 0.7,-2.2 2,-2.8 L 571.2,61.6 c 2.2,-1.3 5.5,-1.5 7.5,-0.3 l 101.2,58.5 c 1,0.5 1.5,1.5 1.5,2.3 0,1 -0.7,2.2 -2,2.8 l -100.3,57.9 c -1.2,0.6 -2.7,1.1 -4.2,1.1 z M 575.4,62 c -1.2,0 -2.5,0.3 -3.5,0.8 l -100.3,57.9 c -0.8,0.5 -1.3,1 -1.3,1.5 0,0.5 0.5,0.8 0.8,1 l 101.2,58.5 c 1.5,0.8 4.2,0.7 6,-0.3 l 100.3,-57.9 c 0.8,-0.5 1.3,-1 1.3,-1.5 0,-0.5 -0.5,-0.8 -0.8,-1 L 577.9,62.5 C 577.3,62.2 576.4,62 575.4,62 Z" id="path950"></path>					<path id="Path" class="st1" d="m 480.3,345.2 c -1.2,0 -2.3,-0.3 -3.3,-0.8 l -71.4,-41.3 0.8,-1.3 71.4,41.3 c 1.5,0.8 3.5,0.8 5,0 L 714.2,210.2 c 0.3,-0.2 0.7,-0.7 0.7,-1 0,-0.5 -0.2,-0.8 -0.7,-1 l -90,-51.8 0.8,-1.3 90,51.8 c 0.8,0.5 1.3,1.3 1.3,2.3 0,1 -0.5,1.8 -1.3,2.3 L 483.6,344.4 c -1,0.5 -2.1,0.8 -3.3,0.8 z"></path>														</g>				<g transform="translate(115.40077)" id="g1859"><path class="st2" d="m 74,434.6 c -0.2,0 -0.4,0 -0.5,-0.2 l -12.3,-7.1 c -1.1,-0.5 -1.6,-1.6 -1.6,-2.9 0,-1.3 0.7,-2.3 1.6,-2.9 l 79.9,-43.7 C 148.4,373.7 153,366 153,357.6 V 249.2 c 0,-1.8 -0.9,-3.2 -2.3,-4.1 -1.4,-0.9 -3.2,-0.9 -4.8,0 l -26.6,14.4 c -0.5,0.4 -1.1,0 -1.4,-0.4 -0.4,-0.5 -0.2,-1.1 0.4,-1.4 l 26.6,-14.4 c 2.1,-1.2 4.6,-1.1 6.8,0.2 2.1,1.2 3.4,3.4 3.4,5.9 V 358 c 0,9.1 -5,17.7 -13,21.9 l -79.7,43.7 c -0.5,0.4 -0.5,0.9 -0.5,1.1 0,0.2 0,0.7 0.5,1.1 l 12.3,7.1 c 0.5,0.4 0.7,0.9 0.4,1.4 -0.4,0.2 -0.8,0.3 -1.1,0.3 z" id="path1471"></path><rect style="fill:#b0d4ff;fill-opacity:1;stroke-width:0" id="rect1003" width="0.74999934" height="0.49999958" x="104.80576" y="326.63019"></rect><rect style="fill:#b0d4ff;fill-opacity:1;stroke-width:0" id="rect1005" width="0.49999958" height="0.74999934" x="104.55576" y="326.38019"></rect>										<g transform="translate(229.68169,144.45544)" id="g1254">						<g id="g1128">							<g id="g1078">								<path class="st9" d="M 83.6,275.4 7.5,231.9 C 4.6,230.3 5,227.4 8.2,225.7 l 43.9,-25.3 c 3.2,-1.8 8,-2.1 10.9,-0.5 l 76.2,43.5 c 2.9,1.6 2.5,4.5 -0.7,6.2 l -43.9,25.3 c -3.3,1.7 -8.1,2.1 -11,0.5 z" id="path1050"></path>								<path class="st10" d="m 145.9,228.7 v 0 V 50.8 L 75.1,32.3 62.1,24.8 c -3,-1.8 -8.2,-1.4 -11.6,0.5 l -12.1,7 H 0.7 L 11.9,204 c 0,1.2 0.5,2.3 2,3.2 l 70.6,53.3 c 3,1.8 8.2,1.4 11.6,-0.5 l 47.1,-27.1 c 2,-1.4 2.9,-2.8 2.7,-4.2 z" id="path1052"></path>								<path class="st11" d="m 56.7,23.6 c -2.1,0 -4.5,0.5 -6.2,1.6 l -12.1,7 H 0.7 v 178.3 c 0,1.2 0.5,2.3 2,3.2 l 81.7,46.5 c 1.4,0.9 3.4,1.2 5.4,1.1 L 90.7,81.9 Z" id="path1054"></path>								<path class="st12" d="m 85.2,260.6 c 2.5,1.1 6.2,1.1 9.3,-0.2 V 79.9 h -9.3 z" id="path1056"></path>								<path class="st13" d="M 84.4,82.1 2.7,35.5 C -0.3,33.7 0,30.7 3.6,28.7 l 47,-27.1 c 3.4,-2 8.7,-2.1 11.6,-0.5 l 81.7,46.5 c 3,1.8 2.7,4.8 -0.9,6.8 L 95.9,81.5 c -3.3,2 -8.5,2.2 -11.5,0.6 z" id="path1058"></path>								<path class="st14" d="M 143,51 95.9,78.1 c -3.4,2 -8.7,2.1 -11.6,0.5 L 2.7,32.1 C 2,31.7 1.6,31.2 1.3,30.9 0.2,32.5 0.8,34.3 2.7,35.5 L 84.4,82 c 3,1.8 8.2,1.4 11.6,-0.5 l 47,-27.1 c 2.7,-1.6 3.6,-3.7 2.3,-5.4 -0.3,0.8 -1.2,1.5 -2.3,2 z" id="path1060"></path>								<g transform="translate(31.18658,14.267204)" id="g1076">									<path class="st15" d="M 55.5,48.9 1.1,17.3 C -0.3,16.4 -0.1,15.2 1.5,14.1 L 23.4,1.4 C 25,0.5 27.5,0.3 28.9,1.2 l 54.4,31.6 c 1.4,0.9 1.2,2.1 -0.4,3.2 L 61,48.7 c -1.6,0.9 -4.1,0.9 -5.5,0.2 z" id="path1062"></path>									<g transform="translate(22.315436,13.398434)" id="g1072">										<path class="st8" d="M 3.9,5.4 0.7,3.6 C 0.5,3.4 0.5,3.2 0.7,3.2 l 3,-1.8 c 0.2,-0.2 0.5,-0.2 0.7,0 l 3.2,1.8 c 0.2,0.2 0.2,0.4 0,0.4 l -3,1.8 c -0.1,0 -0.5,0.1 -0.7,0 z" id="path1064"></path>										<path class="st8" d="M 14.4,11.4 11.2,9.6 C 11,9.4 11,9.2 11.2,9.2 l 3,-1.8 c 0.2,-0.2 0.5,-0.2 0.7,0 l 3.2,1.8 c 0.2,0.2 0.2,0.4 0,0.4 l -3,1.8 c -0.1,0 -0.5,0 -0.7,0 z" id="path1066"></path>										<path class="st8" d="m 25,17.5 -3.2,-1.8 c -0.2,-0.2 -0.2,-0.4 0,-0.4 l 3,-1.8 c 0.2,-0.2 0.5,-0.2 0.7,0 l 3.2,1.8 c 0.2,0.2 0.2,0.4 0,0.4 l -3,1.8 c -0.2,0 -0.6,0 -0.7,0 z" id="path1068"></path>										<path class="st8" d="m 35.5,23.5 -3.2,-1.8 c -0.2,-0.2 -0.2,-0.4 0,-0.4 l 3,-1.8 c 0.2,-0.2 0.5,-0.2 0.7,0 l 3.2,1.8 c 0.2,0.2 0.2,0.4 0,0.4 l -3,1.8 c -0.2,0 -0.5,0 -0.7,0 z" id="path1070"></path>									</g>									<path class="st16" d="m 1.1,17.3 v 0 c 0.2,0 0.4,-0.2 0.4,-0.2 L 23.4,4.5 C 25,3.6 27.5,3.4 28.9,4.3 l 54.4,31.6 c 1.2,-0.9 1.4,-2.1 0,-2.9 L 28.9,1.4 C 27.5,0.5 25,0.7 23.4,1.6 l -22,12.7 c -1.6,0.7 -1.7,2.1 -0.3,3 z" id="path1074"></path>								</g>							</g>							<g transform="translate(101.65383,79.384254)" id="g1090">								<path class="st17" d="M 3.6,37.8 34.5,20.1 C 36.3,19 37.7,16.4 37.7,14 V 3 c 0,-2.3 -1.4,-3.4 -3.2,-2.3 L 3.6,18.4 c -1.8,1.1 -3.2,3.7 -3.2,6.1 v 11.1 c 0.1,2.2 1.4,3.3 3.2,2.2 z" id="path1080"></path>								<path class="st6" d="m 36,0.4 c 0.5,0.5 0.7,1.2 0.7,2.3 v 11.1 c 0,2.3 -1.4,5 -3.2,6.1 L 2.7,37.5 c -0.5,0.4 -1.1,0.4 -1.6,0.4 0.5,0.5 1.4,0.7 2.3,0 L 34.3,20.2 c 1.8,-1.1 3.2,-3.7 3.2,-6.1 V 3 C 37.6,1.4 37.1,0.5 36,0.4 Z" id="path1082"></path>								<g transform="translate(10.700403,12.483804)" id="g1088">									<path class="st3" d="M 2.1,13.4 5,11.8 c 0.4,-0.2 0.7,-0.9 0.7,-1.2 v -3 C 5.7,7 5.4,6.8 5,7 L 2.1,8.6 C 1.8,8.7 1.4,9.5 1.4,9.8 v 3 c 0.2,0.6 0.4,0.8 0.7,0.6 z" id="path1084"></path>									<path class="st6" d="M 11.8,7.8 14.7,6.2 C 15,6.1 15.3,5.4 15.3,5 V 2 C 15.3,1.5 14.9,1.3 14.6,1.5 L 11.8,3 c -0.4,0.2 -0.7,0.9 -0.7,1.2 v 3 c 0,0.6 0.1,0.8 0.7,0.6 z" id="path1086"></path>								</g>							</g>							<g transform="translate(101.65383,159.63728)" id="g1102">								<path class="st17" d="M 3.6,37.6 34.4,20 c 1.8,-1.1 3.2,-3.7 3.2,-6.1 v -11 c 0,-2.3 -1.4,-3.4 -3.2,-2.3 L 3.6,18.2 c -1.8,1.1 -3.2,3.7 -3.2,6.1 v 11.1 c 0.1,2.1 1.4,3.1 3.2,2.2 z" id="path1092"></path>								<path class="st6" d="m 36,0 c 0.5,0.5 0.7,1.2 0.7,2.3 v 11.1 c 0,2.3 -1.4,5 -3.2,6.1 L 2.7,37.1 c -0.5,0.4 -1.1,0.4 -1.6,0.4 0.5,0.5 1.4,0.7 2.3,0 L 34.3,19.8 c 1.8,-1.1 3.2,-3.7 3.2,-6.1 V 2.7 C 37.6,1.2 37.1,0.2 36,0 Z" id="path1094"></path>								<g transform="translate(10.700403,12.483804)" id="g1100">									<path class="st3" d="M 2.1,13 5,11.4 c 0.4,-0.2 0.7,-0.9 0.7,-1.2 v -3 C 5.7,6.7 5.3,6.5 5,6.7 L 2.1,8.2 C 1.8,8.4 1.4,9.1 1.4,9.5 v 3 C 1.6,13 1.8,13.2 2.1,13 Z" id="path1096"></path>									<path class="st6" d="m 11.8,7.7 2.9,-1.6 c 0.4,-0.2 0.7,-0.9 0.7,-1.2 v -3 C 15.4,1.4 15,1.2 14.7,1.4 L 11.8,3 c -0.4,0.2 -0.7,0.9 -0.7,1.2 v 3 c 0,0.3 0.1,0.6 0.7,0.5 z" id="path1098"></path>								</g>							</g>							<g transform="translate(101.65383,198.87209)" id="g1114">								<path class="st17" d="M 3.6,38.3 34.5,20.6 c 1.8,-1.1 3.2,-3.7 3.2,-6.1 V 3.6 C 37.7,1.3 36.3,0.2 34.5,1.3 L 3.6,18.9 C 1.8,20 0.4,22.6 0.4,25 v 11 c 0.1,2.2 1.4,3.2 3.2,2.3 z" id="path1104"></path>								<path class="st6" d="M 36,0.7 C 36.6,1.2 36.7,2 36.7,3 v 11.1 c 0,2.3 -1.4,5 -3.2,6.1 L 2.7,37.8 c -0.5,0.4 -1.1,0.4 -1.6,0.4 0.5,0.5 1.4,0.7 2.3,0 L 34.3,20.5 c 1.8,-1.1 3.2,-3.7 3.2,-6.1 V 3.6 C 37.6,2 37.1,0.9 36,0.7 Z" id="path1106"></path>								<g transform="translate(10.700403,14.267204)" id="g1112">									<path class="st3" d="M 2.1,11.9 5,10.3 C 5.4,10.1 5.7,9.4 5.7,9.1 v -3 C 5.7,5.6 5.3,5.4 5,5.6 L 2.1,7.1 C 1.8,7.3 1.4,8 1.4,8.4 v 3 c 0.2,0.5 0.4,0.9 0.7,0.5 z" id="path1108"></path>									<path class="st6" d="M 11.8,6.6 14.6,5 C 15,4.8 15.3,4.1 15.3,3.8 v -3 C 15.3,0.3 14.9,0.1 14.6,0.3 L 11.7,1.9 C 11.4,2 11.1,2.7 11.1,3 v 3 c 0,0.6 0.1,0.8 0.7,0.6 z" id="path1110"></path>								</g>							</g>							<g transform="translate(101.65383,118.61907)" id="g1126">								<path class="st17" d="M 3.6,38.5 34.5,20.8 c 1.8,-1.1 3.2,-3.7 3.2,-6.1 V 3.7 C 37.7,1.4 36.3,0.3 34.5,1.4 L 3.6,19.1 c -1.8,1.1 -3.2,3.7 -3.2,6.1 v 11.1 c 0.1,2.2 1.4,3.3 3.2,2.2 z" id="path1116"></path>								<path class="st6" d="m 36,1.1 c 0.5,0.5 0.7,1.2 0.7,2.3 v 11.1 c 0,2.3 -1.4,5 -3.2,6.1 L 2.7,38.2 c -0.5,0.4 -1.1,0.4 -1.6,0.4 0.5,0.5 1.4,0.7 2.3,0 L 34.3,20.9 c 1.8,-1.1 3.2,-3.7 3.2,-6.1 V 3.7 C 37.6,2.3 37.1,1.2 36,1.1 Z" id="path1118"></path>								<g transform="translate(10.700403,14.267204)" id="g1124">									<path class="st3" d="M 2.1,12.3 5,10.7 C 5.4,10.5 5.7,9.8 5.7,9.5 v -3 C 5.7,6 5.3,5.8 5,6 L 2.1,7.5 C 1.8,7.7 1.4,8.4 1.4,8.7 v 3 c 0.2,0.6 0.4,0.8 0.7,0.6 z" id="path1120"></path>									<path class="st6" d="M 11.8,6.8 14.7,5.2 C 15,5 15.3,4.3 15.3,3.9 v -3 C 15.3,0.4 14.9,0.2 14.6,0.4 L 11.8,2 c -0.4,0.2 -0.7,0.9 -0.7,1.2 v 3 c 0,0.6 0.1,0.9 0.7,0.6 z" id="path1122"></path>								</g>							</g>						</g>						<g transform="translate(3.566801,42.801613)" id="g1146">							<path class="st15" d="M 74.9,63.2 3.6,22 C 2,21.1 0.7,18.6 0.7,16.5 V 2.7 c 0,-2.1 1.2,-3 2.9,-2.1 l 71.3,41.2 c 1.6,0.9 2.9,3.4 2.9,5.5 v 13.6 c 0,2.3 -1.3,3.1 -2.9,2.3 z" id="path1130"></path>							<path class="st18" d="M 72.8,58.3 5.5,19.5 C 4.6,19 4.1,17.7 4.1,16.6 V 6.4 C 4.1,5.3 4.8,4.8 5.5,5.3 l 67.2,38.9 c 0.9,0.5 1.4,1.8 1.4,2.9 v 10.2 c 0.3,1 -0.4,1.6 -1.3,1 z" id="path1132"></path>							<path class="st6" d="M 19.6,22.5 9.6,16.6 C 8.9,16.1 8.2,15 8.2,13.9 v 0 c 0,-1.1 0.7,-1.6 1.4,-1.1 l 10,5.9 c 0.7,0.5 1.4,1.6 1.4,2.7 v 0 c 0,0.9 -0.7,1.5 -1.4,1.1 z" id="path1134"></path>							<path class="st6" d="m 28.2,25.5 c 0,1.1 -0.7,1.4 -1.6,0.9 -0.9,-0.5 -1.6,-1.8 -1.6,-2.9 0,-1.1 0.7,-1.4 1.6,-0.9 0.9,0.6 1.6,1.9 1.6,2.9 z" id="path1136"></path>							<path class="st6" d="m 33.9,28.7 c 0,1.1 -0.7,1.4 -1.6,0.9 -0.9,-0.5 -1.6,-1.8 -1.6,-2.9 0,-1.1 0.7,-1.4 1.6,-0.9 0.9,0.6 1.6,2 1.6,2.9 z" id="path1138"></path>							<path class="st6" d="m 39.8,32.1 c 0,1.1 -0.7,1.4 -1.6,0.9 -0.9,-0.5 -1.6,-1.8 -1.6,-2.9 0,-1.1 0.7,-1.4 1.6,-0.9 0.9,0.5 1.6,1.9 1.6,2.9 z" id="path1140"></path>							<path class="st6" d="m 45.5,35.5 c 0,1.1 -0.7,1.4 -1.6,0.9 -0.9,-0.5 -1.6,-1.8 -1.6,-2.9 0,-1.1 0.7,-1.4 1.6,-0.9 0.9,0.6 1.6,1.8 1.6,2.9 z" id="path1142"></path>							<path class="st6" d="m 70.1,52.6 -3.4,-2 c -0.5,-0.4 -0.9,-1.1 -0.9,-1.8 v -3.6 c 0,-0.7 0.4,-1.1 0.9,-0.7 l 3.4,2 c 0.5,0.4 0.9,1.1 0.9,1.8 v 3.6 c 0,0.7 -0.6,1.1 -0.9,0.7 z" id="path1144"></path>						</g>						<g transform="translate(3.566801,66.90045)" id="g1164">							<path class="st15" d="M 74.9,63 3.6,21.8 C 2,20.9 0.7,18.4 0.7,16.3 V 2.7 c 0,-2.1 1.2,-3 2.9,-2.1 l 71.3,41.2 c 1.6,0.9 2.9,3.4 2.9,5.5 v 13.6 c 0,2.1 -1.3,3.1 -2.9,2.1 z" id="path1148"></path>							<path class="st18" d="M 72.8,58.3 5.5,19.4 C 4.6,18.9 4.1,17.6 4.1,16.5 V 6.4 C 4.1,5.3 4.8,4.8 5.5,5.3 l 67.2,38.9 c 0.9,0.5 1.4,1.8 1.4,2.9 v 10.2 c 0.3,0.8 -0.4,1.4 -1.3,1 z" id="path1150"></path>							<path class="st6" d="M 19.6,22.3 9.6,16.4 C 8.9,15.9 8.2,14.8 8.2,13.7 v 0 c 0,-1.1 0.7,-1.6 1.4,-1.1 l 10,5.9 c 0.7,0.5 1.4,1.6 1.4,2.7 v 0 c 0,1.1 -0.7,1.6 -1.4,1.1 z" id="path1152"></path>							<path class="st6" d="m 28.2,25.3 c 0,1.1 -0.7,1.4 -1.6,0.9 -0.9,-0.5 -1.6,-1.8 -1.6,-2.8 0,-1 0.7,-1.4 1.6,-0.9 0.9,0.5 1.6,1.8 1.6,2.8 z" id="path1154"></path>							<path class="st6" d="m 33.9,28.7 c 0,1.1 -0.7,1.4 -1.6,0.9 -0.9,-0.5 -1.6,-1.8 -1.6,-2.9 0,-1.1 0.7,-1.4 1.6,-0.9 0.9,0.6 1.6,1.8 1.6,2.9 z" id="path1156"></path>							<path class="st6" d="m 39.8,32.1 c 0,1.1 -0.7,1.4 -1.6,0.9 -0.9,-0.5 -1.6,-1.8 -1.6,-2.9 0,-1.1 0.7,-1.4 1.6,-0.9 0.9,0.6 1.6,1.8 1.6,2.9 z" id="path1158"></path>							<path class="st6" d="m 45.5,35.5 c 0,1.1 -0.7,1.4 -1.6,0.9 -0.9,-0.5 -1.6,-1.8 -1.6,-2.9 0,-1.1 0.7,-1.4 1.6,-0.9 0.9,0.5 1.6,1.8 1.6,2.9 z" id="path1160"></path>							<path class="st6" d="m 70.1,52.6 -3.4,-2 c -0.5,-0.4 -0.9,-1.1 -0.9,-1.8 v -3.6 c 0,-0.7 0.4,-1.1 0.9,-0.7 l 3.4,2 c 0.5,0.4 0.9,1.1 0.9,1.8 v 3.6 c 0,0.7 -0.6,0.9 -0.9,0.7 z" id="path1162"></path>						</g>						<g transform="translate(3.566801,90.953428)" id="g1182">							<path class="st15" d="M 74.9,63 3.6,21.8 C 2,20.9 0.7,18.4 0.7,16.3 V 2.7 c 0,-2.1 1.2,-3 2.9,-2.1 l 71.3,41.2 c 1.6,0.9 2.9,3.4 2.9,5.5 v 13.6 c 0,2.1 -1.3,3 -2.9,2.1 z" id="path1166"></path>							<path class="st18" d="M 72.8,58.2 5.5,19.3 C 4.6,18.8 4.1,17.5 4.1,16.4 V 6.3 C 4.1,5.2 4.8,4.7 5.5,5.2 l 67.2,38.9 c 0.9,0.5 1.4,1.8 1.4,2.9 v 10.2 c 0.3,1 -0.4,1.5 -1.3,1 z" id="path1168"></path>							<path class="st6" d="M 19.6,22.3 9.6,16.4 C 8.9,15.9 8.2,14.8 8.2,13.7 v 0 c 0,-1.1 0.7,-1.6 1.4,-1.1 l 10,5.9 c 0.7,0.5 1.4,1.6 1.4,2.7 v 0 c 0,1.1 -0.7,1.5 -1.4,1.1 z" id="path1170"></path>							<path class="st6" d="m 28.2,25.3 c 0,1.1 -0.7,1.4 -1.6,0.9 -0.9,-0.5 -1.6,-1.8 -1.6,-2.9 0,-1.1 0.7,-1.4 1.6,-0.9 0.9,0.5 1.6,1.9 1.6,2.9 z" id="path1172"></path>							<path class="st6" d="m 33.9,28.7 c 0,1.1 -0.7,1.4 -1.6,0.9 -0.9,-0.5 -1.6,-1.8 -1.6,-2.9 0,-1.1 0.7,-1.4 1.6,-0.9 0.9,0.6 1.6,1.9 1.6,2.9 z" id="path1174"></path>							<path class="st6" d="m 39.8,31.9 c 0,1.1 -0.7,1.4 -1.6,0.9 -0.9,-0.5 -1.6,-1.8 -1.6,-2.9 0,-1.1 0.7,-1.4 1.6,-0.9 0.9,0.6 1.6,2.1 1.6,2.9 z" id="path1176"></path>							<path class="st6" d="m 45.5,35.3 c 0,1.1 -0.7,1.4 -1.6,0.9 -0.9,-0.5 -1.6,-1.8 -1.6,-2.9 0,-1.1 0.7,-1.4 1.6,-0.9 0.9,0.6 1.6,1.9 1.6,2.9 z" id="path1178"></path>							<path class="st6" d="m 70.1,52.5 -3.4,-2 c -0.5,-0.4 -0.9,-1.1 -0.9,-1.8 v -3.6 c 0,-0.7 0.4,-1.1 0.9,-0.7 l 3.4,2 c 0.5,0.4 0.9,1.1 0.9,1.8 v 3.6 c 0,0.7 -0.6,1 -0.9,0.7 z" id="path1180"></path>						</g>						<g transform="translate(3.566801,115.05227)" id="g1200">							<path class="st15" d="M 74.9,63 3.6,21.8 C 2,20.9 0.7,18.4 0.7,16.3 V 2.7 c 0,-2.1 1.2,-3 2.9,-2.1 l 71.3,41.2 c 1.6,0.9 2.9,3.4 2.9,5.5 v 13.6 c 0,1.9 -1.3,2.9 -2.9,2.1 z" id="path1184"></path>							<path class="st18" d="M 72.8,58.1 5.5,19.3 C 4.6,18.8 4.1,17.5 4.1,16.4 V 6.2 C 4.1,5.1 4.8,4.6 5.5,5.1 L 72.8,44 c 0.9,0.5 1.4,1.8 1.4,2.9 v 10.2 c 0.2,1 -0.5,1.4 -1.4,1 z" id="path1186"></path>							<path class="st6" d="M 19.6,22.1 9.6,16.2 C 8.9,15.7 8.2,14.6 8.2,13.5 v 0 c 0,-1.1 0.7,-1.6 1.4,-1.1 l 10,5.9 C 20.3,18.9 21,20 21,21 v 0 c 0,1.1 -0.7,1.6 -1.4,1.1 z" id="path1188"></path>							<path class="st6" d="m 28.2,25.1 c 0,1.1 -0.7,1.4 -1.6,0.9 -0.9,-0.5 -1.6,-1.8 -1.6,-2.9 0,-1.1 0.7,-1.4 1.6,-0.9 0.9,0.5 1.6,2.1 1.6,2.9 z" id="path1190"></path>							<path class="st6" d="m 33.9,28.5 c 0,1.1 -0.7,1.4 -1.6,0.9 -0.9,-0.5 -1.6,-1.8 -1.6,-2.9 0,-1.1 0.7,-1.4 1.6,-0.9 0.9,0.6 1.6,1.9 1.6,2.9 z" id="path1192"></path>							<path class="st6" d="m 39.8,31.9 c 0,1.1 -0.7,1.4 -1.6,0.9 -0.9,-0.5 -1.6,-1.8 -1.6,-2.9 0,-1.1 0.7,-1.4 1.6,-0.9 0.9,0.5 1.6,1.9 1.6,2.9 z" id="path1194"></path>							<path class="st6" d="m 45.5,35.3 c 0,1.1 -0.7,1.4 -1.6,0.9 -0.9,-0.5 -1.6,-1.8 -1.6,-2.9 0,-1.1 0.7,-1.4 1.6,-0.9 0.9,0.5 1.6,1.8 1.6,2.9 z" id="path1196"></path>							<path class="st6" d="m 70.1,52.4 -3.4,-2 C 66.2,50 65.8,49.3 65.8,48.6 V 45 c 0,-0.7 0.4,-1.1 0.9,-0.7 l 3.4,2 c 0.5,0.4 0.9,1.1 0.9,1.8 v 3.6 c 0,0.7 -0.6,1.1 -0.9,0.7 z" id="path1198"></path>						</g>						<g transform="translate(3.566801,139.10524)" id="g1218">							<path class="st15" d="M 74.9,62.8 3.6,21.6 C 2,20.7 0.7,18.2 0.7,16.1 V 2.5 c 0,-2.1 1.2,-3 2.9,-2.1 l 71.3,41.2 c 1.6,0.9 2.9,3.4 2.9,5.5 v 13.6 c 0,2.1 -1.3,3 -2.9,2.1 z" id="path1202"></path>							<path class="st18" d="M 72.8,58 5.5,19.1 C 4.6,18.6 4.1,17.3 4.1,16.2 V 6.1 C 4.1,5 4.8,4.5 5.5,5 l 67.2,38.9 c 0.9,0.5 1.4,1.8 1.4,2.9 V 57 c 0.3,1 -0.4,1.5 -1.3,1 z" id="path1204"></path>							<path class="st6" d="M 19.6,22.1 9.6,16.2 C 8.9,15.7 8.2,14.6 8.2,13.5 v 0 c 0,-1.1 0.7,-1.6 1.4,-1.1 l 10,5.9 c 0.7,0.5 1.4,1.6 1.4,2.7 v 0 c 0,1.1 -0.7,1.7 -1.4,1.1 z" id="path1206"></path>							<path class="st6" d="m 28.2,25.2 c 0,1.1 -0.7,1.4 -1.6,0.9 -0.9,-0.5 -1.6,-1.8 -1.6,-2.9 0,-1.1 0.7,-1.4 1.6,-0.9 0.9,0.6 1.6,1.8 1.6,2.9 z" id="path1208"></path>							<path class="st6" d="m 33.9,28.6 c 0,1.1 -0.7,1.4 -1.6,0.9 -0.9,-0.5 -1.6,-1.8 -1.6,-2.9 0,-1.1 0.7,-1.4 1.6,-0.9 0.9,0.5 1.6,1.8 1.6,2.9 z" id="path1210"></path>							<path class="st6" d="m 39.8,31.9 c 0,1.1 -0.7,1.4 -1.6,0.9 -0.9,-0.5 -1.6,-1.8 -1.6,-2.9 0,-1.1 0.7,-1.4 1.6,-0.9 0.9,0.6 1.6,1.9 1.6,2.9 z" id="path1212"></path>							<path class="st6" d="m 45.5,35.2 c 0,1.1 -0.7,1.4 -1.6,0.9 -0.9,-0.5 -1.6,-1.8 -1.6,-2.9 0,-1.1 0.7,-1.4 1.6,-0.9 0.9,0.5 1.6,2 1.6,2.9 z" id="path1214"></path>							<path class="st6" d="m 70.1,52.3 -3.4,-2 C 66.2,49.9 65.8,49.2 65.8,48.5 V 45 c 0,-0.7 0.4,-1.1 0.9,-0.7 l 3.4,2 c 0.5,0.4 0.9,1.1 0.9,1.8 v 3.6 c 0,0.6 -0.6,0.9 -0.9,0.6 z" id="path1216"></path>						</g>						<g transform="translate(3.566801,163.20408)" id="g1236">							<path class="st15" d="M 74.9,62.8 3.6,21.6 C 2,20.7 0.7,18.2 0.7,16.1 V 2.5 c 0,-2.1 1.2,-3 2.9,-2.1 l 71.3,41.2 c 1.6,0.9 2.9,3.4 2.9,5.5 v 13.6 c 0,1.9 -1.3,3 -2.9,2.1 z" id="path1220"></path>							<path class="st18" d="M 72.8,58 5.5,19.1 C 4.6,18.6 4.1,17.3 4.1,16.2 V 6.1 C 4.1,5 4.8,4.5 5.5,5 l 67.2,38.9 c 0.9,0.5 1.4,1.8 1.4,2.9 V 57 c 0.3,1 -0.4,1.5 -1.3,1 z" id="path1222"></path>							<path class="st6" d="M 19.6,22.1 9.6,16.2 C 8.9,15.7 8.2,14.6 8.2,13.5 v 0 c 0,-1.1 0.7,-1.6 1.4,-1.1 l 10,5.9 C 20.3,18.9 21,20 21,21 v 0 c 0,0.9 -0.7,1.5 -1.4,1.1 z" id="path1224"></path>							<path class="st6" d="m 28.2,25.1 c 0,1.1 -0.7,1.4 -1.6,0.9 -0.9,-0.5 -1.6,-1.8 -1.6,-2.9 0,-1.1 0.7,-1.4 1.6,-0.9 0.9,0.5 1.6,1.9 1.6,2.9 z" id="path1226"></path>							<path class="st6" d="m 33.9,28.4 c 0,1.1 -0.7,1.4 -1.6,0.9 -0.9,-0.5 -1.6,-1.8 -1.6,-2.9 0,-1.1 0.7,-1.4 1.6,-0.9 0.9,0.5 1.6,2 1.6,2.9 z" id="path1228"></path>							<path class="st6" d="m 39.8,31.7 c 0,1.1 -0.7,1.4 -1.6,0.9 -0.9,-0.5 -1.6,-1.8 -1.6,-2.9 0,-1.1 0.7,-1.4 1.6,-0.9 0.9,0.6 1.6,1.9 1.6,2.9 z" id="path1230"></path>							<path class="st6" d="m 45.5,35.1 c 0,1.1 -0.7,1.4 -1.6,0.9 -0.9,-0.5 -1.6,-1.8 -1.6,-2.9 0,-1.1 0.7,-1.4 1.6,-0.9 0.9,0.6 1.6,1.9 1.6,2.9 z" id="path1232"></path>							<path class="st6" d="m 70.1,52.3 -3.4,-2 c -0.5,-0.4 -0.9,-1.1 -0.9,-1.8 v -3.6 c 0,-0.7 0.4,-1.1 0.9,-0.7 l 3.4,2 c 0.5,0.4 0.9,1.1 0.9,1.8 v 3.6 c 0,0.7 -0.6,1 -0.9,0.7 z" id="path1234"></path>						</g>						<g transform="translate(3.566801,186.38829)" id="g1252">							<path class="st15" d="M 74.9,63.5 3.6,22.3 C 2,21.4 0.7,18.9 0.7,16.8 V 3.2 c 0,-2.1 1.2,-3 2.9,-2.1 l 71.3,41.2 c 1.6,0.9 2.9,3.4 2.9,5.5 v 13.6 c 0,2.1 -1.3,3.2 -2.9,2.1 z" id="path1238"></path>							<path class="st18" d="M 72.8,58.9 5.5,20 C 4.6,19.5 4.1,18.2 4.1,17.1 V 7 C 4.1,5.9 4.8,5.4 5.5,5.9 l 67.2,38.9 c 0.9,0.5 1.4,1.8 1.4,2.9 v 10.2 c 0.3,0.8 -0.4,1.3 -1.3,1 z" id="path1240"></path>							<path class="st6" d="M 19.6,22.8 9.6,16.9 C 8.9,16.4 8.2,15.3 8.2,14.2 v 0 c 0,-1.1 0.7,-1.6 1.4,-1.1 l 10,5.9 c 0.7,0.5 1.4,1.6 1.4,2.7 v 0 c 0,1.1 -0.7,1.7 -1.4,1.1 z" id="path1242"></path>							<path class="st6" d="m 65.6,48 c 0,2 -1.4,2.9 -3,1.8 -1.8,-1.1 -3,-3.4 -3,-5.4 0,-2 1.4,-2.9 3,-1.8 1.8,1.1 3,3.4 3,5.4 z" id="path1244"></path>							<path class="st6" d="m 28.2,26.2 c 0,1.1 -0.7,1.4 -1.6,0.9 -0.9,-0.5 -1.6,-1.8 -1.6,-2.9 0,-1.1 0.7,-1.4 1.6,-0.9 0.9,0.6 1.6,1.8 1.6,2.9 z" id="path1246"></path>							<path class="st6" d="m 33.9,29.6 c 0,1.1 -0.7,1.4 -1.6,0.9 -0.9,-0.5 -1.6,-1.8 -1.6,-2.9 0,-1.1 0.7,-1.4 1.6,-0.9 0.9,0.6 1.6,1.8 1.6,2.9 z" id="path1248"></path>							<path class="st6" d="m 39.8,32.8 c 0,1.1 -0.7,1.4 -1.6,0.9 -0.9,-0.5 -1.6,-1.8 -1.6,-2.9 0,-1.1 0.7,-1.4 1.6,-0.9 0.9,0.6 1.6,2 1.6,2.9 z" id="path1250"></path>						</g>					</g>					<g transform="translate(331.33553,202.39303)" id="g1447">						<g id="g1334">							<g id="g1284">								<path class="st9" d="M 83.3,275.4 7.1,231.9 c -2.9,-1.6 -2.5,-4.5 0.7,-6.2 l 43.9,-25.3 c 3.2,-1.8 8,-2.1 10.9,-0.5 l 76.2,43.5 c 2.9,1.6 2.5,4.5 -0.7,6.2 l -43.9,25.3 c -3.2,1.9 -8.1,2.1 -10.9,0.5 z" id="path1256"></path>								<path class="st10" d="m 145.5,228.7 v 0 V 50.9 L 74.9,32.3 61.9,24.8 c -3,-1.8 -8.2,-1.4 -11.6,0.5 l -12.1,7 H 0.5 L 11.7,204 c 0,1.2 0.5,2.3 2,3.2 l 70.6,53.3 c 3,1.8 8.2,1.4 11.6,-0.5 L 143,233 c 1.6,-1.5 2.7,-2.9 2.5,-4.3 z" id="path1258"></path>								<path class="st11" d="m 56.4,23.8 c -2.1,0 -4.5,0.5 -6.2,1.6 l -12.1,7 H 0.4 v 178.3 c 0,1.2 0.5,2.3 2,3.2 L 84,260.4 c 1.4,0.9 3.4,1.2 5.4,1.1 L 90.3,82.1 Z" id="path1260"></path>								<path class="st12" d="m 84.7,260.8 c 2.5,1.1 6.2,1.1 9.3,-0.2 V 79.9 h -9.3 z" id="path1262"></path>								<path class="st13" d="M 84,82.1 2.3,35.5 c -3,-1.8 -2.7,-4.8 0.9,-6.8 l 47.1,-27 c 3.4,-2 8.7,-2.1 11.6,-0.5 l 81.7,46.5 c 3,1.8 2.7,4.8 -0.9,6.8 l -47.1,27 C 92.2,83.7 87,83.9 84,82.1 Z" id="path1264"></path>								<path class="st14" d="M 142.7,51.2 95.6,78.3 c -3.4,2 -8.7,2.1 -11.6,0.5 L 2.3,32.1 C 1.6,31.7 1.2,31.2 0.9,30.9 -0.2,32.5 0.4,34.3 2.3,35.5 L 84,82.1 c 3,1.8 8.2,1.4 11.6,-0.5 l 47.1,-27.1 c 2.7,-1.6 3.6,-3.7 2.3,-5.4 -0.4,0.7 -1.3,1.4 -2.3,2.1 z" id="path1266"></path>								<g transform="translate(30.317809,14.313063)" id="g1282">									<path class="st15" d="M 56,48.9 1.6,17.3 C 0.2,16.4 0.4,15.2 2,14.1 L 23.9,1.4 C 25.5,0.5 28,0.3 29.4,1.2 l 54.4,31.6 c 1.4,0.9 1.2,2.1 -0.4,3.2 L 61.5,48.7 c -1.6,0.9 -4.1,1.1 -5.5,0.2 z" id="path1268"></path>									<g transform="translate(23.184207,14.267204)" id="g1278">										<path class="st8" d="M 3.4,4.5 0.2,2.7 C 0,2.5 0,2.3 0.2,2.3 l 3,-1.8 c 0.2,-0.2 0.5,-0.2 0.7,0 l 3.2,1.8 c 0.2,0.2 0.2,0.4 0,0.4 l -3,1.8 C 3.9,4.6 3.6,4.6 3.4,4.5 Z" id="path1270"></path>										<path class="st8" d="M 13.9,10.5 10.7,8.7 c -0.2,-0.2 -0.2,-0.4 0,-0.4 l 3,-1.8 c 0.2,-0.2 0.5,-0.2 0.7,0 l 3.2,1.8 c 0.2,0.2 0.2,0.4 0,0.4 l -3,1.8 c -0.2,0.2 -0.3,0.2 -0.7,0 z" id="path1272"></path>										<path class="st8" d="m 24.6,16.6 -3.2,-1.8 c -0.2,-0.2 -0.2,-0.4 0,-0.4 l 3,-1.8 c 0.2,-0.2 0.5,-0.2 0.7,0 l 3.2,1.8 c 0.2,0.2 0.2,0.4 0,0.4 l -3,1.8 c -0.3,0.2 -0.5,0.2 -0.7,0 z" id="path1274"></path>										<path class="st8" d="m 35.1,22.6 -3.2,-1.8 c -0.2,-0.2 -0.2,-0.4 0,-0.4 l 3,-1.8 c 0.2,-0.2 0.5,-0.2 0.7,0 l 3.2,1.8 c 0.2,0.2 0.2,0.4 0,0.4 l -3,1.8 c -0.1,0.2 -0.5,0.2 -0.7,0 z" id="path1276"></path>									</g>									<path class="st16" d="m 1.6,17.3 v 0 C 1.8,17.3 2,17.1 2,17.1 L 23.9,4.5 C 25.5,3.6 28,3.4 29.4,4.3 l 54.4,31.4 c 1.2,-0.9 1.4,-2.1 0,-2.9 L 29.4,1.2 C 28,0.3 25.5,0.5 23.9,1.4 L 2,14.1 c -1.6,1.1 -1.8,2.5 -0.4,3.2 z" id="path1280"></path>								</g>							</g>							<g transform="translate(101.65383,79.384254)" id="g1296">								<path class="st15" d="M 3.2,38 34.1,20.3 c 1.8,-1.1 3.2,-3.7 3.2,-6.1 v -11 c 0,-2.3 -1.4,-3.4 -3.2,-2.3 L 3.2,18.6 c -1.8,1 -3.2,3.7 -3.2,6 v 11.1 c 0,2.1 1.4,3.2 3.2,2.3 z" id="path1286"></path>								<path class="st6" d="m 35.7,0.4 c 0.5,0.5 0.7,1.2 0.7,2.3 v 11.1 c 0,2.3 -1.4,5 -3.2,6.1 L 2.3,37.5 c -0.5,0.4 -1.1,0.4 -1.6,0.4 0.5,0.5 1.4,0.7 2.3,0 L 33.9,20.2 c 1.8,-1.1 3.2,-3.7 3.2,-6.1 V 3.1 C 37.3,1.6 36.6,0.6 35.7,0.4 Z" id="path1288"></path>								<g transform="translate(11.569174,13.398434)" id="g1294">									<path class="st6" d="M 0.9,12.5 3.8,10.9 C 4.2,10.7 4.5,10 4.5,9.7 v -3 C 4.5,6.2 4.1,6 3.8,6.2 L 0.9,7.7 C 0.6,7.8 0.2,8.6 0.2,8.9 v 3 c 0,0.6 0.4,0.9 0.7,0.6 z" id="path1290"></path>									<path class="st6" d="M 10.4,7.1 13.3,5.5 C 13.7,5.3 14,4.6 14,4.3 v -3 C 14,0.8 13.6,0.6 13.3,0.8 L 10.4,2.4 C 10,2.5 9.7,3.2 9.7,3.6 v 3 c 0.1,0.5 0.3,0.7 0.7,0.5 z" id="path1292"></path>								</g>							</g>							<g transform="translate(101.65383,159.63728)" id="g1308">								<path class="st15" d="M 3.2,37.7 34.1,20 c 1.8,-1.1 3.2,-3.7 3.2,-6.1 v -11 c 0,-2.3 -1.4,-3.4 -3.2,-2.3 L 3.2,18.2 C 1.4,19.3 0,22 0,24.3 v 11.1 c 0,2.3 1.4,3.3 3.2,2.3 z" id="path1298"></path>								<path class="st6" d="m 35.7,0.2 c 0.5,0.5 0.7,1.2 0.7,2.3 v 11.1 c 0,2.3 -1.4,5 -3.2,6.1 L 2.3,37.3 c -0.5,0.4 -1.1,0.4 -1.6,0.4 0.5,0.5 1.4,0.7 2.3,0 L 33.9,20 c 1.8,-1.1 3.2,-3.7 3.2,-6.1 V 2.9 C 37.3,1.3 36.6,0.4 35.7,0.2 Z" id="path1300"></path>								<g transform="translate(11.569174,13.398434)" id="g1306">									<path class="st6" d="M 0.9,12.3 3.8,10.7 C 4.2,10.5 4.5,9.8 4.5,9.5 v -3 C 4.5,6 4.1,5.8 3.8,6 L 0.9,7.5 C 0.6,7.7 0.2,8.4 0.2,8.7 v 3 c 0,0.6 0.4,0.8 0.7,0.6 z" id="path1302"></path>									<path class="st6" d="M 10.4,6.8 13.3,5.2 C 13.7,5 14,4.3 14,4 V 1 C 14,0.5 13.6,0.3 13.3,0.5 L 10.4,2 C 10,2.1 9.7,2.9 9.7,3.2 v 3 C 9.8,6.8 10,7 10.4,6.8 Z" id="path1304"></path>								</g>							</g>							<g transform="translate(101.65383,198.87209)" id="g1320">								<path class="st15" d="M 3.2,38.4 34.1,20.7 c 1.8,-1.1 3.2,-3.7 3.2,-6.1 V 3.6 C 37.3,1.3 35.9,0.2 34.1,1.3 L 3.2,18.9 C 1.4,20 0,22.7 0,25 v 11 c 0,2.4 1.4,3.4 3.2,2.4 z" id="path1310"></path>								<path class="st6" d="m 35.7,0.9 c 0.5,0.5 0.7,1.2 0.7,2.3 v 11.1 c 0,2.3 -1.4,5 -3.2,6.1 L 2.3,38 c -0.5,0.4 -1.1,0.4 -1.6,0.4 0.5,0.5 1.4,0.7 2.3,0 L 33.9,20.7 c 1.8,-1.1 3.2,-3.7 3.2,-6.1 V 3.6 C 37.3,2 36.6,1.1 35.7,0.9 Z" id="path1312"></path>								<g transform="translate(11.569174,14.267204)" id="g1318">									<path class="st6" d="M 0.9,12.2 3.8,10.6 C 4.2,10.4 4.5,9.7 4.5,9.4 v -3 C 4.5,5.9 4.1,5.7 3.8,5.9 L 0.9,7.3 C 0.6,7.5 0.2,8.2 0.2,8.6 v 3 c 0,0.6 0.4,0.7 0.7,0.6 z" id="path1314"></path>									<path class="st6" d="M 10.4,6.6 13.2,5 c 0.4,-0.2 0.7,-0.9 0.7,-1.2 v -3 C 13.9,0.3 13.5,0.1 13.2,0.3 L 10.3,1.9 C 10,2 9.7,2.7 9.7,3.1 v 3 c 0.1,0.5 0.3,0.7 0.7,0.5 z" id="path1316"></path>								</g>							</g>							<g transform="translate(101.65383,119.5337)" id="g1332">								<path class="st15" d="M 3.2,37.8 34.1,20.1 C 35.9,19 37.3,16.4 37.3,14 V 3 c 0,-2.3 -1.4,-3.4 -3.2,-2.3 L 3.2,18.4 c -1.8,1 -3.2,3.7 -3.2,6 v 11.1 c 0,2.3 1.4,3.4 3.2,2.3 z" id="path1322"></path>								<path class="st6" d="m 35.7,0.4 c 0.5,0.5 0.7,1.2 0.7,2.3 v 11.1 c 0,2.3 -1.4,5 -3.2,6.1 L 2.3,37.5 c -0.5,0.4 -1.1,0.4 -1.6,0.4 0.5,0.5 1.4,0.7 2.3,0 L 33.9,20.2 c 1.8,-1.1 3.2,-3.7 3.2,-6.1 V 3 C 37.3,1.4 36.6,0.4 35.7,0.4 Z" id="path1324"></path>								<g transform="translate(11.569174,13.352575)" id="g1330">									<path class="st6" d="M 0.9,12.5 3.8,10.9 C 4.2,10.7 4.5,10 4.5,9.7 v -3 C 4.5,6.2 4.1,6 3.8,6.2 L 0.9,7.7 C 0.6,7.9 0.2,8.6 0.2,8.9 v 3 c 0,0.4 0.4,0.8 0.7,0.6 z" id="path1326"></path>									<path class="st6" d="M 10.4,7 13.3,5.4 C 13.7,5.2 14,4.5 14,4.2 V 0.9 C 14,0.4 13.6,0.2 13.3,0.4 L 10.4,2 C 10,2.2 9.7,2.9 9.7,3.2 v 3 C 9.8,7 10,7.2 10.4,7 Z" id="path1328"></path>								</g>							</g>						</g>						<g transform="translate(3.566801,42.847472)" id="g1350">							<path class="st15" d="M 74.5,63.1 3.2,21.9 C 1.6,21 0.3,18.5 0.3,16.4 V 2.9 c 0,-2.1 1.2,-3 2.9,-2.1 L 74.5,42 c 1.6,0.9 2.9,3.4 2.9,5.5 V 61 c 0,2.1 -1.2,3 -2.9,2.1 z" id="path1336"></path>							<path class="st18" d="M 72.4,58.3 5.2,19.6 C 4.3,19.1 3.8,17.8 3.8,16.7 V 6.6 C 3.8,5.5 4.5,5 5.2,5.5 l 67.2,38.9 c 0.9,0.5 1.4,1.8 1.4,2.9 v 10.2 c 0,0.8 -0.5,1.4 -1.4,0.8 z" id="path1338"></path>							<path class="st6" d="M 19.3,22.5 9.3,16.6 C 8.6,16.1 7.9,15 7.9,13.9 v 0 c 0,-1.1 0.7,-1.6 1.4,-1.1 l 10,5.9 c 0.7,0.5 1.4,1.6 1.4,2.7 v 0 c 0,1.1 -0.7,1.6 -1.4,1.1 z" id="path1340"></path>							<path class="st6" d="m 27.8,25.5 c 0,1.1 -0.7,1.4 -1.6,0.9 -0.9,-0.5 -1.6,-1.8 -1.6,-2.9 0,-1.1 0.7,-1.4 1.6,-0.9 0.7,0.6 1.6,1.8 1.6,2.9 z" id="path1342"></path>							<path class="st6" d="m 33.5,28.9 c 0,1.1 -0.7,1.4 -1.6,0.9 -0.9,-0.5 -1.6,-1.8 -1.6,-2.9 0,-1.1 0.7,-1.4 1.6,-0.9 0.9,0.6 1.6,1.8 1.6,2.9 z" id="path1344"></path>							<path class="st6" d="m 39.4,32.3 c 0,1.1 -0.7,1.4 -1.6,0.9 -0.9,-0.5 -1.6,-1.8 -1.6,-2.9 0,-1.1 0.7,-1.4 1.6,-0.9 0.9,0.6 1.6,1.8 1.6,2.9 z" id="path1346"></path>							<path class="st6" d="m 69.6,52.8 -3.4,-2 C 65.7,50.4 65.3,49.7 65.3,49 v -3.6 c 0,-0.7 0.4,-1.1 0.9,-0.7 l 3.4,2 c 0.5,0.4 0.9,1.1 0.9,1.8 v 3.6 c 0.1,0.5 -0.4,0.9 -0.9,0.7 z" id="path1348"></path>						</g>						<g transform="translate(3.566801,66.90045)" id="g1366">							<path class="st15" d="M 74.5,63.2 3.2,22 C 1.6,21.1 0.3,18.6 0.3,16.5 V 2.7 c 0,-2.1 1.2,-3 2.9,-2.1 l 71.3,41.2 c 1.6,0.9 2.9,3.4 2.9,5.5 v 13.6 c 0,2.3 -1.2,3.1 -2.9,2.3 z" id="path1352"></path>							<path class="st18" d="M 72.4,58.3 5.2,19.5 C 4.3,19 3.8,17.7 3.8,16.6 V 6.4 C 3.8,5.3 4.5,4.8 5.2,5.3 l 67.2,38.9 c 0.9,0.5 1.4,1.8 1.4,2.9 v 10.2 c 0,1 -0.5,1.6 -1.4,1 z" id="path1354"></path>							<path class="st6" d="M 19.3,22.5 9.3,16.6 C 8.6,16.1 7.9,15 7.9,13.9 v 0 c 0,-1.1 0.7,-1.6 1.4,-1.1 l 10,5.9 c 0.7,0.5 1.4,1.6 1.4,2.7 v 0 c 0,0.9 -0.7,1.5 -1.4,1.1 z" id="path1356"></path>							<path class="st6" d="m 27.8,25.5 c 0,1.1 -0.7,1.4 -1.6,0.9 -0.9,-0.5 -1.6,-1.8 -1.6,-2.9 0,-1.1 0.7,-1.4 1.6,-0.9 0.7,0.6 1.6,1.9 1.6,2.9 z" id="path1358"></path>							<path class="st6" d="m 33.5,28.7 c 0,1.1 -0.7,1.4 -1.6,0.9 -0.9,-0.5 -1.6,-1.8 -1.6,-2.9 0,-1.1 0.7,-1.4 1.6,-0.9 0.9,0.6 1.6,2 1.6,2.9 z" id="path1360"></path>							<path class="st6" d="m 39.4,32.1 c 0,1.1 -0.7,1.4 -1.6,0.9 -0.9,-0.5 -1.6,-1.8 -1.6,-2.9 0,-1.1 0.7,-1.4 1.6,-0.9 0.9,0.6 1.6,1.9 1.6,2.9 z" id="path1362"></path>							<path class="st6" d="m 69.6,52.6 -3.4,-2 c -0.5,-0.4 -0.9,-1.1 -0.9,-1.8 v -3.6 c 0,-0.7 0.4,-1.1 0.9,-0.7 l 3.4,2 c 0.5,0.4 0.9,1.1 0.9,1.8 v 3.6 c 0.1,0.7 -0.4,1.1 -0.9,0.7 z" id="path1364"></path>						</g>						<g transform="translate(3.566801,90.999287)" id="g1382">							<path class="st15" d="M 74.5,63 3.2,21.8 C 1.6,20.9 0.3,18.4 0.3,16.3 V 2.7 c 0,-2.1 1.2,-3 2.9,-2.1 l 71.3,41.2 c 1.6,0.9 2.9,3.4 2.9,5.5 v 13.6 c 0,2.1 -1.2,3.1 -2.9,2.1 z" id="path1368"></path>							<path class="st18" d="M 72.4,58.3 5.2,19.4 C 4.3,18.9 3.8,17.6 3.8,16.5 V 6.4 C 3.8,5.3 4.5,4.8 5.2,5.3 l 67.2,38.9 c 0.9,0.5 1.4,1.8 1.4,2.9 v 10.2 c 0,1 -0.5,1.4 -1.4,1 z" id="path1370"></path>							<path class="st6" d="M 19.3,22.3 9.3,16.4 C 8.6,15.9 7.9,14.8 7.9,13.7 v 0 c 0,-1.1 0.7,-1.6 1.4,-1.1 l 10,5.9 c 0.7,0.5 1.4,1.6 1.4,2.7 v 0 c 0,1.1 -0.7,1.6 -1.4,1.1 z" id="path1372"></path>							<path class="st6" d="m 27.8,25.3 c 0,1.1 -0.7,1.4 -1.6,0.9 -0.9,-0.5 -1.6,-1.8 -1.6,-2.9 0,-1.1 0.7,-1.4 1.6,-0.9 0.7,0.6 1.6,1.9 1.6,2.9 z" id="path1374"></path>							<path class="st6" d="m 33.5,28.7 c 0,1.1 -0.7,1.4 -1.6,0.9 -0.9,-0.5 -1.6,-1.8 -1.6,-2.9 0,-1.1 0.7,-1.4 1.6,-0.9 0.9,0.5 1.6,1.8 1.6,2.9 z" id="path1376"></path>							<path class="st6" d="m 39.4,32.1 c 0,1.1 -0.7,1.4 -1.6,0.9 -0.9,-0.5 -1.6,-1.8 -1.6,-2.9 0,-1.1 0.7,-1.4 1.6,-0.9 0.9,0.6 1.6,1.8 1.6,2.9 z" id="path1378"></path>							<path class="st6" d="m 69.6,52.6 -3.4,-2 c -0.5,-0.4 -0.9,-1.1 -0.9,-1.8 v -3.6 c 0,-0.7 0.4,-1.1 0.9,-0.7 l 3.4,2 c 0.5,0.4 0.9,1.1 0.9,1.8 v 3.6 c 0.1,0.7 -0.4,0.9 -0.9,0.7 z" id="path1380"></path>						</g>						<g transform="translate(3.566801,115.05227)" id="g1398">							<path class="st15" d="M 74.5,63 3.2,21.8 C 1.6,20.9 0.3,18.4 0.3,16.3 V 2.7 c 0,-2.1 1.2,-3 2.9,-2.1 l 71.3,41.2 c 1.6,0.9 2.9,3.4 2.9,5.5 v 13.6 c 0,2.1 -1.2,3 -2.9,2.1 z" id="path1384"></path>							<path class="st18" d="M 72.4,58.2 5.2,19.3 C 4.3,18.8 3.8,17.5 3.8,16.4 V 6.3 C 3.8,5.2 4.5,4.7 5.2,5.2 l 67.2,38.9 c 0.9,0.5 1.4,1.8 1.4,2.9 v 10.2 c 0,1 -0.5,1.5 -1.4,1 z" id="path1386"></path>							<path class="st6" d="M 19.3,22.3 9.3,16.4 C 8.6,15.9 7.9,14.8 7.9,13.7 v 0 c 0,-1.1 0.7,-1.6 1.4,-1.1 l 10,5.9 c 0.7,0.5 1.4,1.6 1.4,2.7 v 0 c 0,1.1 -0.7,1.5 -1.4,1.1 z" id="path1388"></path>							<path class="st6" d="m 27.8,25.3 c 0,1.1 -0.7,1.4 -1.6,0.9 -0.9,-0.5 -1.6,-1.8 -1.6,-2.9 0,-1.1 0.7,-1.4 1.6,-0.9 0.7,0.6 1.6,1.9 1.6,2.9 z" id="path1390"></path>							<path class="st6" d="m 33.5,28.7 c 0,1.1 -0.7,1.4 -1.6,0.9 -0.9,-0.5 -1.6,-1.8 -1.6,-2.9 0,-1.1 0.7,-1.4 1.6,-0.9 0.9,0.6 1.6,1.9 1.6,2.9 z" id="path1392"></path>							<path class="st6" d="m 39.4,31.9 c 0,1.1 -0.7,1.4 -1.6,0.9 -0.9,-0.5 -1.6,-1.8 -1.6,-2.9 0,-1.1 0.7,-1.4 1.6,-0.9 0.9,0.6 1.6,2.1 1.6,2.9 z" id="path1394"></path>							<path class="st6" d="m 69.6,52.5 -3.4,-2 c -0.5,-0.4 -0.9,-1.1 -0.9,-1.8 v -3.6 c 0,-0.7 0.4,-1.1 0.9,-0.7 l 3.4,2 c 0.5,0.4 0.9,1.1 0.9,1.8 v 3.6 c 0.1,0.7 -0.4,1 -0.9,0.7 z" id="path1396"></path>						</g>						<g transform="translate(3.566801,139.1511)" id="g1414">							<path class="st15" d="M 74.5,63 3.2,21.8 C 1.6,20.9 0.3,18.4 0.3,16.3 V 2.7 c 0,-2.1 1.2,-3 2.9,-2.1 l 71.3,41.2 c 1.6,0.9 2.9,3.4 2.9,5.5 v 13.6 c 0,1.9 -1.2,2.9 -2.9,2.1 z" id="path1400"></path>							<path class="st18" d="M 72.4,58.1 5.2,19.3 C 4.3,18.8 3.8,17.5 3.8,16.4 V 6.2 C 3.8,5.1 4.5,4.6 5.2,5.1 L 72.4,44 c 0.9,0.5 1.4,1.8 1.4,2.9 v 10.2 c 0,1 -0.5,1.4 -1.4,1 z" id="path1402"></path>							<path class="st6" d="M 19.3,22.1 9.3,16.2 C 8.6,15.7 7.9,14.6 7.9,13.5 v 0 c 0,-1.1 0.7,-1.6 1.4,-1.1 l 10,5.9 c 0.7,0.5 1.4,1.6 1.4,2.7 v 0 c 0,1.1 -0.7,1.6 -1.4,1.1 z" id="path1404"></path>							<path class="st6" d="m 27.8,25.1 c 0,1.1 -0.7,1.4 -1.6,0.9 -0.9,-0.5 -1.6,-1.8 -1.6,-2.9 0,-1.1 0.7,-1.4 1.6,-0.9 0.7,0.6 1.6,2.1 1.6,2.9 z" id="path1406"></path>							<path class="st6" d="m 33.5,28.5 c 0,1.1 -0.7,1.4 -1.6,0.9 -0.9,-0.5 -1.6,-1.8 -1.6,-2.9 0,-1.1 0.7,-1.4 1.6,-0.9 0.9,0.6 1.6,1.9 1.6,2.9 z" id="path1408"></path>							<path class="st6" d="m 39.4,31.9 c 0,1.1 -0.7,1.4 -1.6,0.9 -0.9,-0.5 -1.6,-1.8 -1.6,-2.9 0,-1.1 0.7,-1.4 1.6,-0.9 0.9,0.6 1.6,1.9 1.6,2.9 z" id="path1410"></path>							<path class="st6" d="m 69.6,52.4 -3.4,-2 C 65.7,50 65.3,49.3 65.3,48.6 V 45 c 0,-0.7 0.4,-1.1 0.9,-0.7 l 3.4,2 c 0.5,0.4 0.9,1.1 0.9,1.8 v 3.6 c 0.1,0.7 -0.4,1.1 -0.9,0.7 z" id="path1412"></path>						</g>						<g transform="translate(3.566801,163.20408)" id="g1430">							<path class="st15" d="M 74.5,62.8 3.2,21.6 C 1.6,20.7 0.3,18.2 0.3,16.1 V 2.5 c 0,-2.1 1.2,-3 2.9,-2.1 l 71.3,41.2 c 1.6,0.9 2.9,3.4 2.9,5.5 v 13.6 c 0,2.1 -1.2,3 -2.9,2.1 z" id="path1416"></path>							<path class="st18" d="M 72.4,58 5.2,19.1 C 4.3,18.6 3.8,17.3 3.8,16.2 V 6.2 C 3.8,5.1 4.5,4.6 5.2,5.1 L 72.4,44 c 0.9,0.5 1.4,1.8 1.4,2.9 v 10.2 c 0,0.9 -0.5,1.4 -1.4,0.9 z" id="path1418"></path>							<path class="st6" d="M 19.3,22.1 9.3,16.2 C 8.6,15.7 7.9,14.6 7.9,13.5 v 0 c 0,-1.1 0.7,-1.6 1.4,-1.1 l 10,5.9 c 0.7,0.5 1.4,1.6 1.4,2.7 v 0 c 0,1.1 -0.7,1.7 -1.4,1.1 z" id="path1420"></path>							<path class="st6" d="m 27.8,25.2 c 0,1.1 -0.7,1.4 -1.6,0.9 -0.9,-0.5 -1.6,-1.8 -1.6,-2.9 0,-1.1 0.7,-1.4 1.6,-0.9 0.7,0.6 1.6,1.8 1.6,2.9 z" id="path1422"></path>							<path class="st6" d="m 33.5,28.6 c 0,1.1 -0.7,1.4 -1.6,0.9 -0.9,-0.5 -1.6,-1.8 -1.6,-2.9 0,-1.1 0.7,-1.4 1.6,-0.9 0.9,0.5 1.6,1.8 1.6,2.9 z" id="path1424"></path>							<path class="st6" d="m 39.4,31.9 c 0,1.1 -0.7,1.4 -1.6,0.9 -0.9,-0.5 -1.6,-1.8 -1.6,-2.9 0,-1.1 0.7,-1.4 1.6,-0.9 0.9,0.6 1.6,1.9 1.6,2.9 z" id="path1426"></path>							<path class="st6" d="m 69.6,52.3 -3.4,-2 C 65.7,49.9 65.3,49.2 65.3,48.5 V 45 c 0,-0.7 0.4,-1.1 0.9,-0.7 l 3.4,2 c 0.5,0.4 0.9,1.1 0.9,1.8 v 3.6 c 0.1,0.6 -0.4,0.9 -0.9,0.6 z" id="path1428"></path>						</g>						<g transform="translate(3.566801,187.30292)" id="g1445">							<path class="st15" d="M 74.5,62.8 3.2,21.6 C 1.6,20.7 0.3,18.2 0.3,16.1 V 2.5 c 0,-2.1 1.2,-3 2.9,-2.1 l 71.3,41.2 c 1.6,0.9 2.9,3.4 2.9,5.5 v 13.6 c 0,1.9 -1.2,3 -2.9,2.1 z" id="path1432"></path>							<path class="st18" d="M 72.4,58 5.2,19.1 C 4.3,18.6 3.8,17.3 3.8,16.2 V 6.1 C 3.7,5 4.5,4.5 5.2,5 l 67.2,38.9 c 0.9,0.5 1.4,1.8 1.4,2.9 V 57 c 0,1 -0.5,1.5 -1.4,1 z" id="path1434"></path>							<path class="st6" d="M 19.3,22.1 9.3,16.2 C 8.6,15.7 7.9,14.6 7.9,13.5 v 0 c 0,-1.1 0.7,-1.6 1.4,-1.1 l 10,5.9 c 0.7,0.5 1.4,1.6 1.4,2.7 v 0 c 0,0.9 -0.7,1.5 -1.4,1.1 z" id="path1436"></path>															<ellipse id="Oval" transform="matrix(0.866,-0.5,0.5,0.866,-8.8031,16.5054)" class="st6" cx="26.4" cy="24.700001" rx="2.5" ry="4.5"></ellipse>							<path class="st6" d="m 41.6,33.3 c 0,1.1 -0.7,1.4 -1.6,0.9 -0.9,-0.5 -1.6,-1.8 -1.6,-2.9 0,-1.1 0.7,-1.4 1.6,-0.9 0.8,0.6 1.6,1.9 1.6,2.9 z" id="path1439"></path>							<path class="st6" d="m 47.4,36.7 c 0,1.1 -0.7,1.4 -1.6,0.9 -0.9,-0.5 -1.6,-1.8 -1.6,-2.9 0,-1.1 0.7,-1.4 1.6,-0.9 0.9,0.6 1.6,1.9 1.6,2.9 z" id="path1441"></path>							<path class="st6" d="m 69.6,52.3 -3.4,-2 c -0.5,-0.4 -0.9,-1.1 -0.9,-1.8 v -3.6 c 0,-0.7 0.4,-1.1 0.9,-0.7 l 3.4,2 c 0.5,0.4 0.9,1.1 0.9,1.8 v 3.6 c 0.1,0.7 -0.4,1 -0.9,0.7 z" id="path1443"></path>						</g>					</g>					<path class="st2" d="m 290.7,432.9 c -0.4,0 -0.7,-0.2 -0.9,-0.5 -0.4,-0.5 -0.2,-1.1 0.4,-1.4 l 14.1,-8.2 c 1.6,-0.9 2.7,-2.7 2.7,-4.5 v -7.5 c 0,-0.5 0.5,-1.1 1.1,-1.1 0.5,0 1.1,0.5 1.1,1.1 v 7.5 c 0,2.5 -1.4,5 -3.6,6.2 l -14.1,8.2 c -0.5,0.2 -0.6,0.2 -0.8,0.2 z" id="path1449"></path>					<g transform="translate(249.2991,427.14736)" id="g1469">						<g id="g1465">							<g transform="translate(23.184207)" id="g1455">								<polygon class="st2" points="5.6,16.8 1.3,9.4 17.4,0.1 21.7,7.6 " id="polygon1451"></polygon>								<path class="st2" d="m 22.6,5.7 c 0,-2 -1.4,-4.3 -3,-5.2 -1.6,-0.9 -3,-0.2 -3,1.8 0,2 1.4,4.3 3,5.2 1.6,0.9 3,0 3,-1.8 z" id="path1453"></path>							</g>							<g transform="translate(0,3.566801)" id="g1463">								<polygon class="st2" points="7.8,28.3 0.9,16.2 26.1,1.8 33,13.8 " id="polygon1457"></polygon>								<path class="st3" d="m 27.3,4.3 5.4,-3 C 35,2.9 36.6,5.9 37,8.8 l -5.4,3 C 29.2,10.2 27.5,7 27.3,4.3 Z" id="path1459"></path>								<path class="st2" d="m 34.4,10.7 c 0,-3.2 -2.1,-7 -4.8,-8.6 -2.7,-1.6 -5,-0.4 -5,2.9 0,3.3 2.1,7 4.8,8.6 2.9,1.6 5,0.3 5,-2.9 z" id="path1461"></path>							</g>						</g>						<path class="st8" d="m 40.8,3.6 c 0.7,-0.5 0.7,-1.2 0,-1.6 -0.7,-0.5 -2.1,-0.5 -2.9,0 -0.8,0.5 -0.7,1.2 0,1.6 0.8,0.5 2,0.5 2.9,0 z" id="path1467"></path>					</g>										<g transform="translate(63.825443,425.36396)" id="g1491">						<g id="g1487">							<g id="g1477">								<polygon class="st2" points="2.1,8.2 6.4,0.8 22.5,10 18.2,17.4 " id="polygon1473"></polygon>								<path class="st2" d="m 1.2,6.2 c 0,-2 1.4,-4.3 3,-5.2 1.6,-0.9 3,-0.2 3,1.8 C 7.2,4.8 5.9,7.1 4.3,8 2.7,8.9 1.2,8.2 1.2,6.2 Z" id="path1475"></path>							</g>							<g transform="translate(8.917003,5.350202)" id="g1485">								<polygon class="st2" points="5.1,12.7 12,0.7 37.2,15.1 30.3,27.2 " id="polygon1479"></polygon>								<path class="st3" d="M 10.9,3 5.5,0 C 3.2,1.6 1.6,4.6 1.2,7.5 l 5.4,3 C 8.9,8.9 10.7,5.9 10.9,3 Z" id="path1481"></path>								<path class="st2" d="m 3.7,9.6 c 0,-3.2 2.1,-7 4.8,-8.6 2.7,-1.6 5,-0.4 5,2.9 0,3.3 -2.1,7 -4.8,8.6 -2.8,1.4 -5,0.2 -5,-2.9 z" id="path1483"></path>							</g>						</g>						<path class="st8" d="M 6.2,4.3 C 5.5,3.7 5.5,3 6.2,2.7 c 0.7,-0.5 2.1,-0.5 2.9,0 0.7,0.5 0.7,1.2 0,1.6 -0.7,0.3 -2,0.3 -2.9,0 z" id="path1489"></path>					</g>					<g transform="translate(42.424636,393.26275)" id="g1689">						<g id="g1657">							<path class="st9" d="M 181.2,210.4 4.1,108.1 c -5,-2.9 -4.5,-8 1.4,-11.2 L 126.1,27.3 c 5.7,-3.4 14.6,-3.7 19.6,-0.9 l 177.1,102.4 c 5,2.9 4.5,8 -1.4,11.2 l -120.6,69.6 c -5.9,3.3 -14.6,3.7 -19.6,0.8 z" id="path1493"></path>							<path class="st19" d="M 326.2,109.5 301.9,106.3 145.7,16.1 C 140.7,13.2 132,13.6 126.1,17 L 15.3,80.8 0.7,78.8 v 8.4 0 c -0.2,2 1.1,3.7 3.4,5.2 l 177.1,102.4 c 5,2.9 13.7,2.5 19.6,-0.9 l 120.6,-69.6 c 3.2,-2 4.8,-4.3 4.8,-6.6 v 0 z" id="path1495"></path>							<path class="st20" d="M 208.7,52.6 197.6,46.2 H 75.4 L 15.2,81 0.5,79 v 8.4 0 c -0.2,2 1.1,3.7 3.4,5.2 L 181,194.9 c 2.7,1.6 6.4,2.1 10.2,2 z" id="path1497"></path>							<path class="st21" d="M 7.1,79.7 0.7,78.8 v 8.4 0 c -0.2,2 1.1,3.7 3.4,5.2 l 3.2,1.8 V 79.7 Z" id="path1499"></path>							<path class="st22" d="m 183,195.5 c 4.8,1.8 11.6,1.4 16.6,-1.1 V 175.9 H 183 Z" id="path1501"></path>							<path class="st23" d="M 181.2,186.4 4.1,84 c -5,-2.9 -4.5,-8 1.4,-11.2 L 126.1,3.2 c 5.7,-3.4 14.6,-3.7 19.6,-0.9 l 177.1,102.4 c 5,2.9 4.5,8 -1.4,11.2 l -120.6,69.6 c -5.9,3.4 -14.6,3.7 -19.6,0.9 z" id="path1503"></path>							<path class="st6" d="m 321.4,112.9 -120.6,69.6 c -5.7,3.4 -14.6,3.7 -19.6,0.9 L 4.1,81 c -1.6,-0.9 -2.7,-2.1 -3,-3.4 -0.7,2.3 0.2,4.8 3,6.4 l 177.1,102.4 c 5,2.9 13.7,2.5 19.6,-0.9 l 120.6,-69.6 c 3.9,-2.3 5.4,-5.4 4.5,-7.8 -0.6,1.8 -2,3.4 -4.5,4.8 z" id="path1505"></path>							<g transform="translate(70.421393,6.218973)" id="g1655">								<path class="st15" d="m 8.9,44.1 -8,-4.6 C 0.2,39.1 0.4,38.4 1.1,38.1 l 9.5,-5.5 c 0.7,-0.4 1.8,-0.5 2.5,-0.2 l 8,4.6 c 0.7,0.4 0.5,1.1 -0.2,1.4 l -9.5,5.5 c -0.7,0.4 -1.7,0.5 -2.5,0.2 z" id="path1507"></path>								<path class="st15" d="m 21.4,51.2 -8,-4.6 c -0.7,-0.4 -0.5,-1.1 0.2,-1.4 l 9.5,-5.5 c 0.7,-0.4 1.8,-0.5 2.5,-0.2 l 8,4.6 c 0.7,0.4 0.5,1.1 -0.2,1.4 L 23.9,51 c -0.7,0.4 -1.9,0.6 -2.5,0.2 z" id="path1509"></path>								<path class="st15" d="m 33.7,58.3 -8,-4.6 C 25,53.3 25.2,52.6 25.9,52.3 l 9.5,-5.5 c 0.7,-0.4 1.8,-0.5 2.5,-0.2 l 8,4.6 c 0.7,0.4 0.5,1.1 -0.2,1.4 l -9.5,5.5 c -0.7,0.6 -1.8,0.6 -2.5,0.2 z" id="path1511"></path>								<path class="st15" d="m 50.8,52.5 -8,-4.6 C 42.1,47.5 42.3,46.8 43,46.5 l 8,-4.6 c 0.7,-0.4 1.8,-0.5 2.5,-0.2 l 8,4.6 c 0.7,0.4 0.5,1.1 -0.2,1.4 l -8,4.6 c -0.7,0.3 -1.7,0.5 -2.5,0.2 z" id="path1513"></path>								<path class="st15" d="m 63.3,59.6 -8,-4.6 c -0.7,-0.4 -0.5,-1.1 0.2,-1.4 l 8,-4.6 c 0.7,-0.4 1.8,-0.5 2.5,-0.2 l 8,4.6 c 0.7,0.4 0.5,1.1 -0.2,1.4 l -8,4.6 c -0.9,0.5 -1.9,0.5 -2.5,0.2 z" id="path1515"></path>								<path class="st15" d="m 75.6,66.7 -8,-4.6 C 66.9,61.7 67.1,61 67.8,60.7 l 8,-4.6 c 0.7,-0.4 1.8,-0.5 2.5,-0.2 l 8,4.6 c 0.7,0.4 0.5,1.1 -0.2,1.4 l -8,4.6 c -0.7,0.6 -1.7,0.6 -2.5,0.2 z" id="path1517"></path>								<path class="st15" d="m 87.9,73.9 -8,-4.6 c -0.7,-0.4 -0.5,-1.1 0.2,-1.4 l 8,-4.6 c 0.7,-0.4 1.8,-0.5 2.5,-0.2 l 8,4.6 c 0.7,0.4 0.5,1.1 -0.2,1.4 l -8,4.6 c -0.7,0.5 -1.7,0.5 -2.5,0.2 z" id="path1519"></path>								<path class="st15" d="m 100.4,81 -8,-4.6 C 91.7,76 91.9,75.3 92.6,75 l 8,-4.6 c 0.7,-0.4 1.8,-0.5 2.5,-0.2 l 8,4.6 c 0.7,0.4 0.5,1.1 -0.2,1.4 l -8,4.6 c -0.7,0.5 -1.9,0.5 -2.5,0.2 z" id="path1521"></path>								<path class="st15" d="m 112.7,88.1 -8,-4.6 c -0.7,-0.4 -0.5,-1.1 0.2,-1.4 l 8,-4.6 c 0.7,-0.4 1.8,-0.5 2.5,-0.2 l 8,4.6 c 0.7,0.4 0.5,1.1 -0.2,1.4 l -8,4.6 c -0.7,0.6 -1.8,0.6 -2.5,0.2 z" id="path1523"></path>								<path class="st15" d="m 125.2,95.3 -8,-4.6 c -0.7,-0.4 -0.5,-1.1 0.2,-1.4 l 8,-4.6 c 0.7,-0.4 1.8,-0.5 2.5,-0.2 l 8,4.6 c 0.7,0.4 0.5,1.1 -0.2,1.4 l -8,4.6 c -0.7,0.5 -1.9,0.5 -2.5,0.2 z" id="path1525"></path>								<path class="st15" d="m 137.5,102.4 -8,-4.6 c -0.7,-0.4 -0.5,-1.1 0.2,-1.4 l 8,-4.6 c 0.7,-0.4 1.8,-0.5 2.5,-0.2 l 8,4.6 c 0.7,0.4 0.5,1.1 -0.2,1.4 l -8,4.6 c -0.7,0.5 -1.8,0.5 -2.5,0.2 z" id="path1527"></path>								<path class="st15" d="m 149.8,109.5 -8,-4.6 c -0.7,-0.4 -0.5,-1.1 0.2,-1.4 l 8,-4.6 c 0.7,-0.4 1.8,-0.5 2.5,-0.2 l 8,4.6 c 0.7,0.4 0.5,1.1 -0.2,1.4 l -8,4.6 c -0.7,0.6 -1.8,0.6 -2.5,0.2 z" id="path1529"></path>								<path class="st15" d="m 162.3,116.7 -8,-4.6 c -0.7,-0.4 -0.5,-1.1 0.2,-1.4 l 8,-4.6 c 0.7,-0.4 1.8,-0.5 2.5,-0.2 l 8,4.6 c 0.7,0.4 0.5,1.1 -0.2,1.4 l -8,4.6 c -0.7,0.5 -2,0.5 -2.5,0.2 z" id="path1531"></path>								<path class="st15" d="m 69,49.1 -8,-4.6 c -0.7,-0.4 -0.5,-1.1 0.2,-1.4 l 8,-4.6 C 69.9,38.1 71,38 71.7,38.3 l 8,4.6 c 0.7,0.4 0.5,1.1 -0.2,1.4 l -8,4.6 c -0.7,0.3 -1.7,0.5 -2.5,0.2 z" id="path1533"></path>								<path class="st15" d="m 56.6,41.8 -8,-4.6 c -0.7,-0.4 -0.5,-1.1 0.2,-1.4 l 8,-4.6 c 0.7,-0.4 1.8,-0.5 2.5,-0.2 l 8,4.6 C 68,36 67.8,36.7 67.1,37 l -8,4.6 c -0.8,0.5 -1.8,0.5 -2.5,0.2 z" id="path1535"></path>								<path class="st15" d="M 43.9,34.4 26.6,24.4 C 25.9,24 26.1,23.3 26.8,23 l 8,-4.6 c 0.7,-0.4 1.8,-0.5 2.5,-0.2 l 17.3,10 c 0.7,0.4 0.5,1.1 -0.2,1.4 l -8,4.6 c -0.7,0.6 -1.8,0.6 -2.5,0.2 z" id="path1537"></path>								<path class="st15" d="m 52.8,25.7 -14.1,-8 C 38,17.3 38.2,16.6 38.9,16.3 l 8,-4.6 c 0.7,-0.4 1.8,-0.5 2.5,-0.2 l 14.1,8 c 0.7,0.4 0.5,1.1 -0.2,1.4 l -8,4.6 c -0.7,0.6 -2,0.6 -2.5,0.2 z" id="path1539"></path>								<path class="st15" d="m 81.5,56.2 -8,-4.6 C 72.8,51.2 73,50.5 73.7,50.2 l 8,-4.6 c 0.7,-0.4 1.8,-0.5 2.5,-0.2 l 8,4.6 c 0.7,0.4 0.5,1.1 -0.2,1.4 L 84,56 c -0.7,0.6 -1.9,0.6 -2.5,0.2 z" id="path1541"></path>								<path class="st15" d="m 93.8,63.3 -8,-4.6 C 85.1,58.3 85.3,57.6 86,57.3 l 8,-4.6 c 0.7,-0.4 1.8,-0.5 2.5,-0.2 l 8,4.6 c 0.7,0.4 0.5,1.1 -0.2,1.4 l -8,4.6 c -0.7,0.6 -1.8,0.6 -2.5,0.2 z" id="path1543"></path>								<path class="st15" d="m 106.3,70.5 -8,-4.6 c -0.7,-0.4 -0.5,-1.1 0.2,-1.4 l 8,-4.6 c 0.7,-0.4 1.8,-0.5 2.5,-0.2 l 8,4.6 c 0.7,0.4 0.5,1.1 -0.2,1.4 l -8,4.6 c -0.7,0.5 -2,0.5 -2.5,0.2 z" id="path1545"></path>								<path class="st15" d="m 118.6,77.6 -8,-4.6 c -0.7,-0.4 -0.5,-1.1 0.2,-1.4 l 8,-4.6 c 0.7,-0.4 1.8,-0.5 2.5,-0.2 l 8,4.6 c 0.7,0.4 0.5,1.1 -0.2,1.4 l -8,4.6 c -0.7,0.6 -1.8,0.6 -2.5,0.2 z" id="path1547"></path>								<path class="st15" d="m 130.9,84.7 -8,-4.6 c -0.7,-0.4 -0.5,-1.1 0.2,-1.4 l 8,-4.6 c 0.7,-0.4 1.8,-0.5 2.5,-0.2 l 8,4.6 c 0.7,0.4 0.5,1.1 -0.2,1.4 l -8,4.6 c -0.7,0.6 -1.8,0.6 -2.5,0.2 z" id="path1549"></path>								<path class="st15" d="m 143.4,91.9 -8,-4.6 c -0.7,-0.4 -0.5,-1.1 0.2,-1.4 l 8,-4.6 c 0.7,-0.4 1.8,-0.5 2.5,-0.2 l 8,4.6 c 0.7,0.4 0.5,1.1 -0.2,1.4 l -8,4.6 c -0.7,0.5 -2,0.5 -2.5,0.2 z" id="path1551"></path>								<path class="st15" d="m 155.7,99 -8,-4.6 C 147,94 147.2,93.3 147.9,93 l 8,-4.6 c 0.7,-0.4 1.8,-0.5 2.5,-0.2 l 8,4.6 c 0.7,0.4 0.5,1.1 -0.2,1.4 l -8,4.6 c -0.7,0.6 -1.8,0.6 -2.5,0.2 z" id="path1553"></path>								<path class="st15" d="m 168.2,106.1 -8,-4.6 c -0.7,-0.4 -0.5,-1.1 0.2,-1.4 l 8,-4.6 c 0.7,-0.4 1.8,-0.5 2.5,-0.2 l 8,4.6 c 0.7,0.4 0.5,1.1 -0.2,1.4 l -8,4.6 c -0.7,0.6 -2,0.6 -2.5,0.2 z" id="path1555"></path>								<path class="st15" d="m 180.5,113.3 -8,-4.6 c -0.7,-0.4 -0.5,-1.1 0.2,-1.4 l 8,-4.6 c 0.7,-0.4 1.8,-0.5 2.5,-0.2 l 8,4.6 c 0.7,0.4 0.5,1.1 -0.2,1.4 l -8,4.6 c -0.7,0.5 -1.8,0.5 -2.5,0.2 z" id="path1557"></path>								<path class="st15" d="M 202.4,126.1 185,115.9 c -0.7,-0.4 -0.5,-1.1 0.2,-1.4 l 8,-4.6 c 0.7,-0.4 1.8,-0.5 2.5,-0.2 l 17.5,10.2 c 0.7,0.4 0.5,1.1 -0.2,1.4 l -8,4.6 c -0.8,0.4 -1.8,0.6 -2.6,0.2 z" id="path1559"></path>								<path class="st15" d="m 226.7,112.2 -14.8,-8.6 c -0.7,-0.4 -0.5,-1.1 0.2,-1.4 l 8,-4.6 c 0.7,-0.4 1.8,-0.5 2.5,-0.2 l 14.8,8.6 c 0.7,0.4 0.5,1.1 -0.2,1.4 l -8,4.6 c -0.7,0.4 -2,0.6 -2.5,0.2 z" id="path1561"></path>								<path class="st15" d="m 103.1,54.8 -8,-4.6 c -0.7,-0.4 -0.5,-1.1 0.2,-1.4 l 8,-4.6 c 0.7,-0.4 1.8,-0.5 2.5,-0.2 l 8,4.6 c 0.7,0.4 0.5,1.1 -0.2,1.4 l -8,4.6 c -0.7,0.5 -1.8,0.5 -2.5,0.2 z" id="path1563"></path>								<path class="st15" d="m 90.4,47.5 -8,-4.6 c -0.7,-0.4 -0.5,-1.1 0.2,-1.4 l 8,-4.6 c 0.7,-0.4 1.8,-0.5 2.5,-0.2 l 8,4.6 c 0.7,0.4 0.5,1.1 -0.2,1.4 l -8,4.6 c -0.7,0.5 -1.7,0.5 -2.5,0.2 z" id="path1565"></path>								<path class="st15" d="m 77.8,40.1 -8,-4.6 C 69.1,35.1 69.3,34.4 70,34.1 l 8,-4.6 c 0.7,-0.4 1.8,-0.5 2.5,-0.2 l 8,4.6 c 0.7,0.4 0.5,1.1 -0.2,1.4 l -8,4.6 c -0.7,0.6 -1.8,0.6 -2.5,0.2 z" id="path1567"></path>								<path class="st15" d="m 65.1,32.8 -8,-4.6 c -0.7,-0.4 -0.5,-1.1 0.2,-1.4 l 8,-4.6 C 66,21.8 67.1,21.7 67.8,22 l 8,4.6 c 0.7,0.4 0.5,1.1 -0.2,1.4 l -8,4.6 c -0.7,0.6 -1.8,0.6 -2.5,0.2 z" id="path1569"></path>								<path class="st15" d="m 115.6,61.9 -8,-4.6 c -0.7,-0.4 -0.5,-1.1 0.2,-1.4 l 8,-4.6 c 0.7,-0.4 1.8,-0.5 2.5,-0.2 l 8,4.6 c 0.7,0.4 0.5,1.1 -0.2,1.4 l -8,4.6 c -0.7,0.6 -2,0.6 -2.5,0.2 z" id="path1571"></path>								<path class="st15" d="m 127.9,69 -8,-4.6 c -0.7,-0.4 -0.5,-1.1 0.2,-1.4 l 8,-4.6 c 0.7,-0.4 1.8,-0.5 2.5,-0.2 l 8,4.6 c 0.7,0.4 0.5,1.1 -0.2,1.4 l -8,4.6 c -0.7,0.6 -1.8,0.6 -2.5,0.2 z" id="path1573"></path>								<path class="st15" d="m 140.4,76.2 -8,-4.6 c -0.7,-0.4 -0.5,-1.1 0.2,-1.4 l 8,-4.6 c 0.7,-0.4 1.8,-0.5 2.5,-0.2 l 8,4.6 c 0.7,0.4 0.5,1.1 -0.2,1.4 l -8,4.6 c -0.7,0.5 -2,0.5 -2.5,0.2 z" id="path1575"></path>								<path class="st15" d="m 152.7,83.3 -8,-4.6 c -0.7,-0.4 -0.5,-1.1 0.2,-1.4 l 8,-4.6 c 0.7,-0.4 1.8,-0.5 2.5,-0.2 l 8,4.6 c 0.7,0.4 0.5,1.1 -0.2,1.4 l -8,4.6 c -0.7,0.6 -1.8,0.6 -2.5,0.2 z" id="path1577"></path>								<path class="st15" d="m 165,90.4 -8,-4.6 c -0.7,-0.4 -0.5,-1.1 0.2,-1.4 l 8,-4.6 c 0.7,-0.4 1.8,-0.5 2.5,-0.2 l 8,4.6 c 0.7,0.4 0.5,1.1 -0.2,1.4 l -8,4.6 c -0.7,0.6 -1.8,0.6 -2.5,0.2 z" id="path1579"></path>								<path class="st15" d="m 177.5,97.6 -8,-4.6 c -0.7,-0.4 -0.5,-1.1 0.2,-1.4 l 8,-4.6 c 0.7,-0.4 1.8,-0.5 2.5,-0.2 l 8,4.6 c 0.7,0.4 0.5,1.1 -0.2,1.4 l -8,4.6 c -0.7,0.5 -2,0.5 -2.5,0.2 z" id="path1581"></path>								<path class="st15" d="m 189.8,104.7 -8,-4.6 c -0.7,-0.4 -0.5,-1.1 0.2,-1.4 l 8,-4.6 c 0.7,-0.4 1.8,-0.5 2.5,-0.2 l 8,4.6 c 0.7,0.4 0.5,1.1 -0.2,1.4 l -8,4.6 c -0.7,0.6 -1.8,0.7 -2.5,0.2 z" id="path1583"></path>								<path class="st15" d="m 202.3,112 -8,-4.6 c -0.7,-0.4 -0.5,-1.1 0.2,-1.4 l 8,-4.6 c 0.7,-0.4 1.8,-0.5 2.5,-0.2 l 8,4.6 c 0.7,0.4 0.5,1.1 -0.2,1.4 l -8,4.6 c -0.8,0.4 -2,0.6 -2.5,0.2 z" id="path1585"></path>								<path class="st15" d="m 214.6,119.2 -8,-4.6 c -0.7,-0.4 -0.5,-1.1 0.2,-1.4 l 8,-4.6 c 0.7,-0.4 1.8,-0.5 2.5,-0.2 l 8,4.6 c 0.7,0.4 0.5,1.1 -0.2,1.4 l -8,4.6 c -0.8,0.3 -1.8,0.5 -2.5,0.2 z" id="path1587"></path>								<path class="st15" d="m 96.7,37.1 -8,-4.6 C 88,32.1 88.2,31.4 88.9,31.1 l 8,-4.6 c 0.7,-0.4 1.8,-0.5 2.5,-0.2 l 8,4.6 c 0.7,0.4 0.5,1.1 -0.2,1.4 l -8,4.6 c -0.7,0.6 -2,0.6 -2.5,0.2 z" id="path1589"></path>								<path class="st15" d="m 84.4,30 -8,-4.6 C 75.7,25 75.9,24.3 76.6,24 l 8,-4.6 c 0.7,-0.4 1.8,-0.5 2.5,-0.2 l 8,4.6 c 0.7,0.4 0.5,1.1 -0.2,1.4 l -8,4.6 c -0.7,0.5 -2,0.5 -2.5,0.2 z" id="path1591"></path>								<path class="st15" d="m 72.1,22.9 -8,-4.6 c -0.7,-0.4 -0.5,-1.1 0.2,-1.4 l 8,-4.6 c 0.7,-0.4 1.8,-0.5 2.5,-0.2 l 8,4.6 c 0.7,0.4 0.5,1.1 -0.2,1.4 l -8,4.6 c -0.7,0.5 -2,0.5 -2.5,0.2 z" id="path1593"></path>								<path class="st15" d="m 59.8,15.7 -8,-4.6 C 51.1,10.7 51.3,10 52,9.7 l 8,-4.6 c 0.7,-0.4 1.8,-0.5 2.5,-0.2 l 8,4.6 c 0.7,0.4 0.5,1.1 -0.2,1.4 l -8,4.6 c -0.7,0.6 -2,0.6 -2.5,0.2 z" id="path1595"></path>								<path class="st15" d="m 72.4,8.4 -8,-4.6 C 63.7,3.4 63.9,2.7 64.6,2.4 L 67.3,0.8 C 68,0.4 69,0.2 69.8,0.6 l 8,4.6 c 0.7,0.4 0.5,1.1 -0.2,1.4 L 74.9,8 C 74.2,8.8 73,8.8 72.4,8.4 Z" id="path1597"></path>								<path class="st15" d="m 88.5,17.7 -8,-4.6 C 79.8,12.7 80,12 80.7,11.7 l 2.7,-1.4 c 0.7,-0.4 1.8,-0.5 2.5,-0.2 l 8,4.6 c 0.7,0.4 0.5,1.1 -0.2,1.4 L 91,17.7 c -0.7,0.3 -2,0.3 -2.5,0 z" id="path1599"></path>								<path class="st15" d="m 100.8,24.8 -8,-4.6 C 92.1,19.8 92.3,19.1 93,18.8 l 2.7,-1.4 c 0.7,-0.4 1.8,-0.5 2.5,-0.2 l 8,4.6 c 0.7,0.4 0.5,1.1 -0.2,1.4 l -2.7,1.6 c -0.9,0.4 -2,0.4 -2.5,0 z" id="path1601"></path>								<path class="st15" d="m 112.9,31.9 -8,-4.6 c -0.7,-0.4 -0.5,-1.1 0.2,-1.4 l 2.7,-1.6 c 0.7,-0.4 1.8,-0.5 2.5,-0.2 l 8,4.6 c 0.7,0.4 0.5,1.1 -0.2,1.4 l -2.7,1.4 c -0.7,0.6 -1.8,0.8 -2.5,0.4 z" id="path1603"></path>								<path class="st15" d="m 125.2,38.9 -8,-4.6 c -0.7,-0.4 -0.5,-1.1 0.2,-1.4 l 2.7,-1.6 c 0.7,-0.4 1.8,-0.5 2.5,-0.2 l 8,4.6 c 0.7,0.4 0.5,1.1 -0.2,1.4 l -2.7,1.6 c -0.7,0.6 -1.8,0.6 -2.5,0.2 z" id="path1605"></path>								<path class="st15" d="m 193.7,78.5 -8,-4.6 c -0.7,-0.4 -0.5,-1.1 0.2,-1.4 l 2.7,-1.6 c 0.7,-0.4 1.8,-0.5 2.5,-0.2 l 8,4.6 c 0.7,0.4 0.5,1.1 -0.2,1.4 l -2.7,1.4 c -0.7,0.7 -1.8,0.7 -2.5,0.4 z" id="path1607"></path>								<path class="st15" d="M 206,85.6 198,81 c -0.7,-0.4 -0.5,-1.1 0.2,-1.4 l 2.7,-1.4 c 0.7,-0.4 1.8,-0.5 2.5,-0.2 l 8,4.6 c 0.7,0.4 0.5,1.1 -0.2,1.4 l -2.7,1.6 c -0.7,0.4 -2,0.4 -2.5,0 z" id="path1609"></path>								<path class="st15" d="m 218.3,92.6 -8,-4.6 c -0.7,-0.4 -0.5,-1.1 0.2,-1.4 l 2.7,-1.6 c 0.7,-0.4 1.8,-0.5 2.5,-0.2 l 8,4.6 c 0.7,0.4 0.5,1.1 -0.2,1.4 l -2.7,1.4 c -0.7,0.7 -2,0.9 -2.5,0.4 z" id="path1611"></path>								<path class="st15" d="m 230.4,99.7 -8,-4.6 c -0.7,-0.4 -0.5,-1.1 0.2,-1.4 l 2.7,-1.6 c 0.7,-0.4 1.8,-0.5 2.5,-0.2 l 8,4.6 c 0.7,0.4 0.5,1.1 -0.2,1.4 l -2.7,1.6 c -0.7,0.6 -1.7,0.6 -2.5,0.2 z" id="path1613"></path>								<path class="st15" d="m 109,44.3 -8,-4.6 c -0.7,-0.4 -0.5,-1.1 0.2,-1.4 l 8,-4.6 c 0.7,-0.4 1.8,-0.5 2.5,-0.2 l 8,4.6 c 0.7,0.4 0.5,1.1 -0.2,1.4 l -8,4.6 c -0.7,0.5 -1.8,0.5 -2.5,0.2 z" id="path1615"></path>								<path class="st15" d="m 121.5,51.4 -8,-4.6 c -0.7,-0.4 -0.5,-1.1 0.2,-1.4 l 8,-4.6 c 0.7,-0.4 1.8,-0.5 2.5,-0.2 l 8,4.6 c 0.7,0.4 0.5,1.1 -0.2,1.4 l -8,4.6 c -0.7,0.5 -2,0.5 -2.5,0.2 z" id="path1617"></path>								<path class="st15" d="m 133.8,58.5 -8,-4.6 c -0.7,-0.4 -0.5,-1.1 0.2,-1.4 l 8,-4.6 c 0.7,-0.4 1.8,-0.5 2.5,-0.2 l 8,4.6 c 0.7,0.4 0.5,1.1 -0.2,1.4 l -8,4.6 c -0.7,0.6 -1.8,0.6 -2.5,0.2 z" id="path1619"></path>								<path class="st15" d="m 146.1,65.7 -8,-4.6 c -0.7,-0.4 -0.5,-1.1 0.2,-1.4 l 8,-4.6 c 0.7,-0.4 1.8,-0.5 2.5,-0.2 l 8,4.6 c 0.7,0.4 0.5,1.1 -0.2,1.4 l -8,4.6 c -0.7,0.5 -1.8,0.5 -2.5,0.2 z" id="path1621"></path>								<path class="st15" d="m 158.6,72.8 -8,-4.6 c -0.7,-0.4 -0.5,-1.1 0.2,-1.4 l 8,-4.6 c 0.7,-0.4 1.8,-0.5 2.5,-0.2 l 8,4.6 c 0.7,0.4 0.5,1.1 -0.2,1.4 l -8,4.6 c -0.7,0.5 -2,0.5 -2.5,0.2 z" id="path1623"></path>								<path class="st15" d="m 170.9,79.9 -8,-4.6 c -0.7,-0.4 -0.5,-1.1 0.2,-1.4 l 8,-4.6 c 0.7,-0.4 1.8,-0.5 2.5,-0.2 l 8,4.6 c 0.7,0.4 0.5,1.1 -0.2,1.4 l -8,4.6 c -0.7,0.6 -1.8,0.6 -2.5,0.2 z" id="path1625"></path>								<path class="st15" d="m 183.4,87.1 -8,-4.6 c -0.7,-0.4 -0.5,-1.1 0.2,-1.4 l 8,-4.6 c 0.7,-0.4 1.8,-0.5 2.5,-0.2 l 8,4.6 c 0.7,0.4 0.5,1.1 -0.2,1.4 l -8,4.6 c -0.8,0.5 -2,0.5 -2.5,0.2 z" id="path1627"></path>								<path class="st15" d="m 195.7,94.2 -8,-4.6 c -0.7,-0.4 -0.5,-1.1 0.2,-1.4 l 8,-4.6 c 0.7,-0.4 1.8,-0.5 2.5,-0.2 l 8,4.6 c 0.7,0.4 0.5,1.1 -0.2,1.4 l -8,4.6 c -0.8,0.5 -1.8,0.5 -2.5,0.2 z" id="path1629"></path>								<path class="st15" d="m 208.1,101.3 -8,-4.6 c -0.7,-0.4 -0.5,-1.1 0.2,-1.4 l 8,-4.6 c 0.7,-0.4 1.8,-0.5 2.5,-0.2 l 8,4.6 c 0.7,0.4 0.5,1.1 -0.2,1.4 l -8,4.6 c -0.8,0.6 -1.9,0.8 -2.5,0.2 z" id="path1631"></path>								<path class="st15" d="M 38.2,45.1 14.6,31.6 c -0.7,-0.4 -0.5,-1.1 0.2,-1.4 l 8,-4.6 c 0.7,-0.4 1.8,-0.5 2.5,-0.2 L 48.8,39 c 0.7,0.4 0.5,1.1 -0.2,1.4 l -8,4.6 c -0.6,0.5 -1.7,0.5 -2.4,0.1 z" id="path1633"></path>								<path class="st15" d="m 190.3,132.9 -23.5,-13.6 c -0.7,-0.4 -0.5,-1.1 0.2,-1.4 l 8,-4.6 c 0.7,-0.4 1.8,-0.5 2.5,-0.2 l 23.5,13.6 c 0.7,0.4 0.5,1.1 -0.2,1.4 l -8,4.6 c -0.7,0.5 -1.8,0.5 -2.5,0.2 z" id="path1635"></path>								<path class="st15" d="m 140.9,120 -8,-4.6 c -0.7,-0.4 -0.5,-1.1 0.2,-1.4 l 9.5,-5.5 c 0.7,-0.4 1.8,-0.5 2.5,-0.2 l 8,4.6 c 0.7,0.4 0.5,1.1 -0.2,1.4 l -9.5,5.5 c -0.9,0.6 -2,0.6 -2.5,0.2 z" id="path1637"></path>								<path class="st15" d="M 50.8,68.1 38,60.7 c -0.7,-0.4 -0.5,-1.1 0.2,-1.4 l 9.5,-5.5 c 0.7,-0.4 1.8,-0.5 2.5,-0.2 L 63,60.8 c 0.7,0.4 0.5,1.1 -0.2,1.4 l -9.5,5.5 c -0.7,0.8 -1.7,0.8 -2.5,0.4 z" id="path1639"></path>								<path class="st15" d="m 129,113.3 -12.8,-7.5 c -0.7,-0.4 -0.5,-1.1 0.2,-1.4 l 9.5,-5.5 c 0.7,-0.4 1.8,-0.5 2.5,-0.2 l 12.8,7.5 c 0.7,0.4 0.5,1.1 -0.2,1.4 l -9.5,5.5 c -0.8,0.5 -2,0.5 -2.5,0.2 z" id="path1641"></path>								<path class="st15" d="M 68.9,78.5 56,71 c -0.7,-0.4 -0.5,-1.1 0.2,-1.4 l 9.5,-5.5 c 0.7,-0.4 1.8,-0.5 2.5,-0.2 L 81,71.2 c 0.7,0.4 0.5,1.1 -0.2,1.4 l -9.5,5.5 c -0.7,0.7 -1.9,0.7 -2.4,0.4 z" id="path1643"></path>								<path class="st15" d="M 68.1,64.2 124,96.3 c 0.7,0.4 0.7,1.1 0,1.4 l -9.6,5.5 c -0.7,0.4 -1.8,0.4 -2.5,0 L 56,71.2 Z" id="path1645"></path>								<path class="st15" d="m 175.5,133.1 8.9,5.2 c 0.5,0.4 0.5,0.9 -0.2,1.2 l -3.9,2.3 c -0.5,0.4 -1.6,0.4 -2.1,0 l -8.9,-5.2 c -0.5,-0.4 -0.5,-0.9 0.2,-1.2 l 3.9,-2.3 c 0.5,-0.2 1.6,-0.4 2.1,0 z" id="path1647"></path>								<path class="st15" d="m 163,125.9 8.9,5.2 c 0.5,0.4 0.5,0.9 -0.2,1.2 l -3.9,2.3 c -0.5,0.4 -1.6,0.4 -2.1,0 l -8.9,-5.2 c -0.5,-0.4 -0.5,-0.9 0.2,-1.2 l 3.9,-2.3 c 0.5,-0.3 1.6,-0.3 2.1,0 z" id="path1649"></path>								<path class="st15" d="m 150.5,118.8 8.9,5.2 c 0.5,0.4 0.5,0.9 -0.2,1.2 l -3.9,2.3 c -0.5,0.4 -1.6,0.4 -2.1,0 l -8.9,-5.2 c -0.5,-0.4 -0.5,-0.9 0.2,-1.2 l 3.9,-2.3 c 0.7,-0.4 1.6,-0.4 2.1,0 z" id="path1651"></path>								<path class="st15" d="m 169.8,122 8.9,5.2 c 0.5,0.4 0.5,0.9 -0.2,1.2 l -3.9,2.3 c -0.5,0.4 -1.6,0.4 -2.1,0 l -8.9,-5.2 c -0.5,-0.4 -0.5,-0.9 0.2,-1.2 l 3.9,-2.3 c 0.7,-0.3 1.6,-0.3 2.1,0 z" id="path1653"></path>							</g>						</g>						<path class="st24" d="m 135.2,147.8 c -1.4,0 -2.7,-0.4 -3.7,-0.9 L 69.6,111.2 c -1.1,-0.7 -1.8,-1.6 -1.8,-2.7 0,-1.2 0.9,-2.5 2.3,-3.2 l 41,-23.7 c 2.5,-1.4 6.2,-1.6 8.4,-0.4 l 61.9,35.7 c 1.1,0.7 1.8,1.6 1.8,2.7 0,1.2 -0.9,2.5 -2.3,3.2 l -41,23.7 c -1.3,1 -3.1,1.3 -4.7,1.3 z M 115.7,82.4 c -1.2,0 -2.7,0.4 -3.7,0.9 L 71,107 c -0.9,0.5 -1.4,1.1 -1.4,1.6 0,0.5 0.5,0.9 0.9,1.1 l 61.9,35.7 v 0 c 1.6,0.9 4.6,0.7 6.4,-0.4 l 41,-23.7 c 0.9,-0.5 1.4,-1.1 1.4,-1.6 0,-0.5 -0.5,-0.9 -0.9,-1.1 L 118.4,82.9 c -0.5,-0.3 -1.6,-0.5 -2.7,-0.5 z" id="path1659"></path>						<g transform="translate(107.00403,92.736829)" id="g1687">							<path class="st6" d="M 13.9,16.2 20,12.8 c 0.5,-0.4 1.6,-0.4 2.1,0.2 v 0 c 0.7,0.4 0.7,0.9 0.2,1.2 l -6.1,3.4 C 15.7,18 14.6,18 14.1,17.4 v 0 c -0.7,-0.3 -0.7,-0.8 -0.2,-1.2 z" id="path1661"></path>							<path class="st6" d="m 1.1,23.4 8.9,-5 c 0.5,-0.4 1.6,-0.4 2.1,0.2 v 0 c 0.7,0.4 0.7,0.9 0.2,1.2 l -8.9,5 C 2.9,25.2 1.8,25.2 1.3,24.6 v 0 C 0.5,24.3 0.4,23.7 1.1,23.4 Z" id="path1663"></path>							<path class="st6" d="m 33.9,27.3 11.6,-6.4 c 0.5,-0.4 1.6,-0.4 2.1,0.2 v 0 c 0.7,0.4 0.7,0.9 0.2,1.2 l -11.6,6.4 c -0.5,0.4 -1.6,0.4 -2.1,-0.2 v 0 c -0.6,-0.3 -0.8,-0.9 -0.2,-1.2 z" id="path1665"></path>							<path class="st6" d="m 31.9,17.3 3.7,-2.1 c 0.5,-0.4 1.6,-0.4 2.1,0.2 v 0 c 0.7,0.4 0.7,0.9 0.2,1.2 l -3.7,2.1 c -0.5,0.4 -1.6,0.4 -2.1,-0.2 v 0 c -0.7,-0.3 -0.9,-0.8 -0.2,-1.2 z" id="path1667"></path>							<path class="st6" d="M 23.4,10.9 25.9,9.5 C 26.4,9.1 27.5,9.1 28,9.7 v 0 c 0.7,0.4 0.7,0.9 0.2,1.2 l -2.5,1.4 c -0.5,0.4 -1.6,0.4 -2.1,-0.2 v 0 c -0.8,-0.3 -0.8,-0.9 -0.2,-1.2 z" id="path1669"></path>							<path class="st6" d="m 12.8,5.5 3,-1.6 c 0.5,-0.4 1.6,-0.4 2.1,0.2 v 0 c 0.7,0.4 0.7,0.9 0.2,1.2 l -3,1.6 C 14.6,7.3 13.5,7.3 13,6.7 v 0 C 12.3,6.4 12.3,5.9 12.8,5.5 Z" id="path1671"></path>							<path class="st6" d="m 1.1,12.1 8,-4.5 c 0.5,-0.4 1.6,-0.4 2.1,0.2 v 0 c 0.7,0.4 0.7,0.9 0.2,1.2 l -8,4.5 C 2.9,13.9 1.8,13.9 1.3,13.3 v 0 C 0.5,13 0.5,12.5 1.1,12.1 Z" id="path1673"></path>							<path class="st6" d="M 5.2,4.3 10.9,1.1 C 11.4,0.7 12.5,0.7 13,1.3 v 0 c 0.7,0.4 0.7,0.9 0.2,1.2 L 7.5,5.7 C 7,6.1 5.9,6.1 5.4,5.5 v 0 C 4.6,5.2 4.6,4.6 5.2,4.3 Z" id="path1675"></path>							<path class="st6" d="M 17.8,25.1 28,19.4 c 0.5,-0.4 1.6,-0.4 2.1,0.2 v 0 c 0.7,0.4 0.7,0.9 0.2,1.2 l -10.2,5.7 c -0.5,0.4 -1.6,0.4 -2.1,-0.2 v 0 C 17.3,26 17.1,25.5 17.8,25.1 Z" id="path1677"></path>							<path class="st6" d="m 23,28 17.7,-9.8 c 0.5,-0.4 1.6,-0.4 2.1,0.2 v 0 c 0.7,0.4 0.7,0.9 0.2,1.2 l -17.7,9.8 c -0.5,0.4 -1.6,0.4 -2.1,-0.2 v 0 C 22.5,28.7 22.3,28.2 23,28 Z" id="path1679"></path>							<path class="st6" d="m 20.5,18 10.2,-5.7 c 0.5,-0.4 1.6,-0.4 2.1,0.2 v 0 c 0.7,0.4 0.7,0.9 0.2,1.2 l -10.2,5.7 c -0.5,0.4 -1.6,0.4 -2.1,-0.2 v 0 C 20.2,18.9 20,18.4 20.5,18 Z" id="path1681"></path>							<path class="st6" d="m 10,29.6 3.7,-2.1 c 0.5,-0.4 1.6,-0.4 2.1,0.2 v 0 c 0.7,0.4 0.7,0.9 0.2,1.2 L 12.3,31 c -0.5,0.4 -1.6,0.4 -2.1,-0.2 v 0 C 9.6,30.3 9.5,29.8 10,29.6 Z" id="path1683"></path>							<path class="st6" d="M 8.7,13.6 20.8,6.8 C 21.4,6.4 22.5,6.4 23,7 v 0 c 0.7,0.4 0.7,0.9 0.2,1.2 L 11.1,15 C 10.6,15.4 9.5,15.4 9,14.8 v 0 C 8.2,14.4 8,13.9 8.7,13.6 Z" id="path1685"></path>						</g>					</g>										<path class="st2" d="m 338.6,428.4 c -1.4,0 -2.7,-0.4 -3.9,-1.1 l -54.6,-31.6 c -1.8,-1.1 -2.7,-2.7 -2.7,-4.6 0,-2 0.9,-3.7 2.7,-4.8 l 15.2,-9.1 c 0.5,-0.4 1.1,-0.2 1.4,0.4 0.4,0.5 0.2,1.1 -0.4,1.4 l -15.2,9.1 c -1.1,0.7 -1.6,1.8 -1.6,3 0,1.2 0.7,2.3 1.8,2.9 l 54.6,31.6 c 1.8,1.1 4.1,1.1 5.9,0 l 18.7,-11.4 c 0.5,-0.4 1.1,-0.2 1.4,0.4 0.4,0.5 0.2,1.1 -0.4,1.4 l -18.7,11.4 c -1.3,0.6 -2.7,1 -4.2,1 z" id="path1824"></path>									<path style="fill:#2378df;fill-opacity:1;stroke-width:0.25" d="M 107.58451,238.85101 55.869052,208.99279 c -3.266497,-1.886 -6.226245,-2.06125 -8.363493,-0.81925 l -14.596988,8.48274 c 0.0068,-0.004 0.01425,-0.007 0.02125,-0.0113 -2.121998,1.221 -3.438997,3.83225 -3.449747,7.55025 l -0.1685,59.42545 c -0.02125,7.45874 5.224496,16.54448 11.71549,20.29198 l 51.715706,29.85797 c 3.360248,1.93975 6.393245,2.0655 8.54249,0.7045 -0.0598,0.0378 -0.118,0.0785 -0.1795,0.1145 l 14.59649,-8.48244 c 2.11,-1.22625 3.418,-3.83325 3.42875,-7.53874 l 0.1685,-59.42545 c 0.0217,-7.4605 -5.224,-16.54449 -11.71499,-20.29199 z" id="path890"></path><g style="enable-background:new" id="g904" transform="matrix(0.24999979,0,0,0.24999979,10.30584,207.38029)"><path style="fill:#b0d4ff;fill-opacity:1" d="m 421.588,474.907 -58.386,33.93 c 8.44,-4.905 13.674,-15.333 13.715,-30.155 l 58.386,-33.93 c -0.042,14.821 -5.276,25.25 -13.715,30.155 z" id="path892"></path><g id="g898"><path style="fill:#b0d4ff;fill-opacity:1" d="m 90.411,37.104 58.386,-33.93 c 8.549,-4.968 20.388,-4.267 33.454,3.277 l -58.386,33.93 C 110.799,32.837 98.961,32.135 90.411,37.104 Z" id="path894"></path><polygon style="fill:#b0d4ff;fill-opacity:1" points="376.917,478.682 377.591,240.981 435.977,207.05 435.303,444.752 " id="polygon896"></polygon></g><polygon style="fill:#b0d4ff;fill-opacity:1" points="330.729,159.813 123.866,40.381 182.253,6.45 389.115,125.883 " id="polygon900"></polygon><path style="fill:#b0d4ff;fill-opacity:1" d="m 330.729,159.813 58.386,-33.93 c 25.965,14.99 46.946,51.327 46.862,81.168 l -58.386,33.93 c 0.085,-29.841 -20.898,-66.177 -46.862,-81.168 z" id="path902"></path></g><g style="enable-background:new" id="g908" transform="matrix(0.24999979,0,0,0.24999979,10.30584,207.38029)"><path style="fill:#ffffff" d="m 223.775,373.663 c -8.577,-4.952 -16.832,-11.158 -24.645,-18.309 l 26.435,-72.284 26.581,99.889 c 0.165,0.608 0.378,1.164 0.613,1.726 -9.086,-1.567 -18.834,-5.162 -28.984,-11.022 m -38.049,-32.042 c -29.073,-33.037 -49.04,-78.939 -48.928,-118.589 0.041,-14.54 2.787,-26.769 7.666,-36.439 l 41.262,155.028 m 81.954,43.761 26.884,-73.15 c 5.025,-11.433 6.722,-21.896 6.75,-32.06 0.01,-3.697 -0.206,-7.239 -0.567,-10.668 6.775,18.227 10.595,36.833 10.546,54.272 -0.104,36.985 -17.64,59.195 -43.613,61.606 M 156.926,179.626 c -1.644,-0.949 -3.566,-2.109 -5.612,-3.37 15.668,-18.207 42.535,-20.703 73.029,-3.097 22.717,13.116 43.361,35.035 58.83,60.342 -0.37,-0.251 -0.746,-0.517 -1.117,-0.731 -8.588,-4.958 -14.681,0.103 -14.707,9.324 -0.023,8.269 4.097,17.64 8.494,28.448 3.295,8.584 7.148,19.413 7.113,31.811 -0.024,8.578 -2.273,18.097 -6.725,28.563 l -8.8,28.378 L 236.2,233.349 c 5.28,2.715 9.981,4.804 9.981,4.804 4.622,2.026 4.199,-5.867 -0.25,-8.435 -0.087,-0.05 -0.174,-0.098 -0.264,-0.143 0,0 -14.15,-6.884 -23.269,-12.149 -8.571,-4.949 -22.961,-14.542 -22.961,-14.542 -0.087,-0.055 -0.171,-0.108 -0.255,-0.156 -4.478,-2.586 -4.944,5.115 -0.337,8.097 0,0 4.45,3.193 9.149,6.24 l 13.472,50.634 -19.279,54.762 -31.47,-126.917 c 5.28,2.715 9.992,4.811 9.992,4.811 4.616,2.023 4.199,-5.867 -0.245,-8.433 -0.087,-0.05 -0.174,-0.097 -0.264,-0.143 0.001,-0.001 -14.149,-6.885 -23.274,-12.153 m 67.451,-24.162 c -56.682,-32.725 -102.788,-6.456 -102.972,58.68 -0.185,65.137 45.622,144.472 102.303,177.196 56.687,32.728 102.793,6.46 102.977,-58.677 0.186,-65.137 -45.622,-144.471 -102.308,-177.199" id="path906"></path></g><rect style="fill:#b0d4ff;fill-opacity:1;stroke-width:0" id="rect955" width="1.958274" height="1.380367" x="41.272312" y="216.09517"></rect><rect style="fill:#b0d4ff;fill-opacity:1;stroke-width:0" id="rect957" width="1.994809" height="1.137249" x="53.873741" y="208.99304"></rect><rect style="fill:#b0d4ff;fill-opacity:1;stroke-width:0" id="rect959" width="8.9999924" height="4.2499962" x="42.805813" y="212.38029"></rect><rect style="fill:#b0d4ff;fill-opacity:1;stroke-width:0" id="rect961" width="7.2499938" height="4.2499962" x="47.555809" y="209.63029"></rect><rect style="fill:#b0d4ff;fill-opacity:1;stroke-width:0" id="rect963" width="2.7787476" height="1.5292487" x="104.80576" y="238.85101"></rect><rect style="fill:#b0d4ff;fill-opacity:1;stroke-width:0" id="rect965-9" width="2.3995786" height="1.3083321" x="92.988029" y="246.02518"></rect><rect style="fill:#b0d4ff;fill-opacity:1;stroke-width:0" id="rect967" width="7.4999938" height="3.7499969" x="99.055771" y="239.88028"></rect><rect style="fill:#b0d4ff;fill-opacity:1;stroke-width:0" id="rect969" width="8.0967197" height="3.7499969" x="94.055779" y="242.38026"></rect><rect style="fill:#b0d4ff;fill-opacity:1;stroke-width:0" id="rect971" width="4.7499962" height="2.4999979" x="93.805779" y="244.13026"></rect><rect style="fill:#b0d4ff;fill-opacity:1;stroke-width:0" id="rect973" width="2.3522482" height="1.2452489" x="104.70351" y="266.38025"></rect><rect style="fill:#b0d4ff;fill-opacity:1;stroke-width:0" id="rect975" width="0.61121273" height="0.35697973" x="118.68879" y="259.14301"></rect><rect style="fill:#b0d4ff;fill-opacity:1;stroke-width:0" id="rect977" width="6.9999943" height="5.2499957" x="105.80576" y="262.38025"></rect><rect style="fill:#b0d4ff;fill-opacity:1;stroke-width:0" id="rect979-4" width="4.4138741" height="2.6129398" x="114.64188" y="259.13025"></rect><rect style="fill:#b0d4ff;fill-opacity:1;stroke-width:0" id="rect981" width="3.4999971" height="2.2499981" x="112.05576" y="261.38025"></rect><rect style="fill:#b0d4ff;fill-opacity:1;stroke-width:0" id="rect983" width="0.17464323" height="0.17049985" x="104.53501" y="326.88019"></rect><rect style="fill:#b0d4ff;fill-opacity:1;stroke-width:0" id="rect985-2" width="0.32574973" height="0.24470477" x="118.80576" y="318.56821"></rect><rect style="fill:#b0d4ff;fill-opacity:1;stroke-width:0" id="rect987" width="0.99999917" height="1.1087404" x="117.80576" y="318.27145"></rect><rect style="fill:#b0d4ff;fill-opacity:1;stroke-width:0" id="rect989" width="1.9021016" height="0.74999934" x="117.15366" y="318.63019"></rect><rect style="fill:#b0d4ff;fill-opacity:1;stroke-width:0" id="rect991" width="4.7499962" height="2.2499981" x="113.80576" y="318.38019"></rect><rect style="fill:#b0d4ff;fill-opacity:1;stroke-width:0" id="rect993" width="6.9999943" height="2.7499976" x="109.80576" y="320.13019"></rect><rect style="fill:#b0d4ff;fill-opacity:1;stroke-width:0" id="rect995" width="5.9999948" height="3.9999967" x="106.55576" y="322.13019"></rect><rect style="fill:#b0d4ff;fill-opacity:1;stroke-width:0" id="rect997" width="3.7499969" height="2.9999974" x="105.30576" y="324.38019"></rect><rect style="fill:#b0d4ff;fill-opacity:1;stroke-width:0" id="rect999" width="0.88404769" height="1.2499989" x="104.80576" y="326.38019"></rect><rect style="fill:#b0d4ff;fill-opacity:1;stroke-width:0" id="rect1001" width="0.85314763" height="0.22094287" x="104.55576" y="326.90924"></rect></g>			</g>		</g>	</g></g></svg>