<?xml version="1.0" encoding="utf-8"?>
<!-- Generator: Adobe Illustrator 16.0.0, SVG Export Plug-In . SVG Version: 6.00 Build 0)  -->
<!DOCTYPE svg PUBLIC "-//W3C//DTD SVG 1.1//EN" "http://www.w3.org/Graphics/SVG/1.1/DTD/svg11.dtd">
<svg version="1.1" id="Capa_1" xmlns="http://www.w3.org/2000/svg" xmlns:xlink="http://www.w3.org/1999/xlink" x="0px" y="0px"
	 width="300px" height="300px" viewBox="0 0 300 300" enable-background="new 0 0 300 300" xml:space="preserve">
<path fill="#1C40F2" d="M140.422,183.896V9.998c0-2.667-2.163-4.831-4.83-4.831H9.998c-2.667,0-4.831,2.163-4.831,4.831v173.898
	c0,2.67,2.163,4.83,4.831,4.83h125.594C138.26,188.729,140.422,186.566,140.422,183.896z M14.829,14.829h115.933V116.27H113.44
	l-6.709-6.709c15.03-18.803,11.972-46.23-6.831-61.261c-18.803-15.03-46.23-11.973-61.261,6.831
	c-15.03,18.802-11.973,46.229,6.831,61.26c15.914,12.721,38.516,12.721,54.43,0l8.125,8.125c0.906,0.906,2.134,1.415,3.416,1.415
	h19.322v24.153H14.829V14.829z M76.21,79.041c-1.919-1.854-4.977-1.8-6.831,0.119c-1.808,1.872-1.808,4.84,0,6.712l23.627,23.636
	c-15.012,11.234-36.288,8.171-47.521-6.84C34.25,87.657,37.313,66.38,52.324,55.147c15.012-11.234,36.288-8.172,47.522,6.84
	c9.024,12.059,9.024,28.622,0,40.682L76.21,79.041z M130.762,179.066H14.829v-19.322h115.933V179.066z"/>
<g>
	<path fill="#1C40F2" d="M116.27,135.592h9.661v9.661h-9.661V135.592z"/>
	<path fill="#1C40F2" d="M19.659,135.592h9.661v9.661h-9.661V135.592z"/>
	<path fill="#1C40F2" d="M19.659,19.659h9.661v9.661h-9.661V19.659z"/>
	<path fill="#1C40F2" d="M116.27,19.659h9.661v9.661h-9.661V19.659z"/>
	<path fill="#1C40F2" d="M43.812,164.575h9.661v9.661h-9.661V164.575z"/>
	<path fill="#1C40F2" d="M24.489,164.575h9.662v9.661h-9.662V164.575z"/>
	<path fill="#1C40F2" d="M72.795,58.304c-13.333,0.015-24.138,10.82-24.153,24.152c0,2.667,2.163,4.831,4.83,4.831
		c2.668,0,4.831-2.164,4.831-4.831c0-8.003,6.488-14.492,14.492-14.492c2.667,0,4.83-2.163,4.83-4.831
		C77.625,60.466,75.462,58.304,72.795,58.304z"/>
	<path fill="#1C40F2" d="M63.134,164.575h57.967v9.661H63.134V164.575z"/>
	<path fill="#1C40F2" d="M290.169,111.439H164.575c-2.668,0-4.831,2.163-4.831,4.831v173.899c0,2.668,2.163,4.831,4.831,4.831
		h125.594c2.668,0,4.831-2.163,4.831-4.831V116.27C295,113.603,292.837,111.439,290.169,111.439z M169.406,121.101h115.933v101.441
		h-17.321l-6.711-6.71c15.031-18.803,11.979-46.23-6.83-61.26c-18.804-15.031-46.229-11.973-61.261,6.83
		c-15.028,18.803-11.972,46.229,6.831,61.261c15.913,12.72,38.516,12.72,54.43,0l8.125,8.124c0.905,0.906,2.135,1.416,3.416,1.416
		h19.321v24.152H169.406V121.101z M230.787,185.313c-1.919-1.854-4.977-1.801-6.83,0.119c-1.809,1.87-1.809,4.84,0,6.711
		l23.627,23.635c-15.012,11.234-36.288,8.177-47.521-6.84c-11.229-15.012-8.172-36.287,6.838-47.521
		c15.018-11.235,36.289-8.172,47.523,6.84c9.024,12.06,9.024,28.621,0,40.681L230.787,185.313z M285.339,285.339H169.406v-19.321
		h115.933V285.339z"/>
	<path fill="#1C40F2" d="M270.848,241.863h9.661v9.662h-9.661V241.863z"/>
	<path fill="#1C40F2" d="M174.236,241.863h9.66v9.662h-9.66V241.863z"/>
	<path fill="#1C40F2" d="M174.236,125.931h9.66v9.662h-9.66V125.931z"/>
	<path fill="#1C40F2" d="M270.848,125.931h9.661v9.662h-9.661V125.931z"/>
	<path fill="#1C40F2" d="M198.391,270.848h9.659v9.661h-9.659V270.848z"/>
	<path fill="#1C40F2" d="M179.066,270.848h9.66v9.661h-9.66V270.848z"/>
	<path fill="#1C40F2" d="M227.373,164.575c-13.333,0.016-24.139,10.821-24.152,24.151c0,2.67,2.161,4.832,4.829,4.832
		c2.669,0,4.831-2.162,4.831-4.832c0-8.002,6.488-14.49,14.492-14.49c2.668,0,4.829-2.162,4.829-4.83
		S230.041,164.575,227.373,164.575z"/>
	<path fill="#1C40F2" d="M217.711,270.848h57.967v9.661h-57.967V270.848L217.711,270.848z"/>
	<path fill="#1C40F2" d="M178.82,51.227l-12.244-12.246h41.474c8.005,0,14.492,6.488,14.492,14.492v48.306h9.66V53.473
		c-0.015-13.332-10.82-24.137-24.152-24.152h-41.474l12.244-12.246l-6.83-6.83l-23.906,23.906l23.906,23.906L178.82,51.227z"/>
	<path fill="#1C40F2" d="M121.347,248.941l12.246,12.244H92.117c-8.003,0-14.492-6.487-14.492-14.492v-48.303h-9.661v48.305
		c0.016,13.332,10.821,24.138,24.153,24.152h41.476l-12.246,12.24l6.831,6.832l23.907-23.902l-23.907-23.906L121.347,248.941z"/>
</g>
</svg>
