<?xml version="1.0" encoding="utf-8"?>
<!-- Generator: Adobe Illustrator 16.0.0, SVG Export Plug-In . SVG Version: 6.00 Build 0)  -->
<!DOCTYPE svg PUBLIC "-//W3C//DTD SVG 1.1//EN" "http://www.w3.org/Graphics/SVG/1.1/DTD/svg11.dtd">
<svg version="1.1" id="Layer_1" xmlns="http://www.w3.org/2000/svg" xmlns:xlink="http://www.w3.org/1999/xlink" x="0px" y="0px"
	 width="300px" height="300px" viewBox="0 0 300 300" enable-background="new 0 0 300 300" xml:space="preserve">
<g>
	<path fill="#1C40F2" d="M276.102,6.521H26.052c-10.339,0-18.753,8.414-18.753,18.753v250.049c0,10.34,8.414,18.754,18.753,18.754
		h250.05c10.34,0,18.752-8.414,18.752-18.754V25.273C294.855,14.934,286.441,6.521,276.102,6.521z M282.352,275.322
		c0,3.451-2.801,6.248-6.248,6.248H26.052c-3.443,0-6.25-2.797-6.25-6.248V25.273c0-3.451,2.807-6.252,6.25-6.252h250.05
		c3.449,0,6.248,2.801,6.248,6.252v250.049H282.352z"/>
	<g>
		<path fill="#1C40F2" d="M92.533,110.894h43.535l-6.742,25.813c-1.03,3.597-2.956,6.487-5.779,8.669
			c-2.826,2.186-6.101,3.276-9.824,3.276H93.495c-4.623,0-8.702,1.349-12.232,4.046c-3.535,2.694-6.005,6.354-7.417,10.977
			c-0.899,3.47-0.996,6.744-0.289,9.826c0.705,3.082,1.957,5.813,3.757,8.188c1.798,2.379,4.108,4.271,6.936,5.684
			c2.823,1.414,5.906,2.119,9.246,2.119h12.329c2.312,0,4.206,0.934,5.683,2.791c1.475,1.865,1.895,3.951,1.253,6.262l-7.706,28.512
			H91.569c-9.247,0-17.757-2.022-25.524-6.067c-7.773-4.046-14.227-9.406-19.36-16.087c-5.139-6.676-8.64-14.284-10.499-22.825
			c-1.863-8.539-1.639-17.308,0.674-26.297l0.771-2.892c1.668-6.164,4.269-11.846,7.801-17.047
			c3.531-5.202,7.705-9.632,12.521-13.293c4.816-3.66,10.178-6.516,16.086-8.571C79.944,111.924,86.108,110.894,92.533,110.894z"/>
		<path fill="#1C40F2" d="M114.492,227.057l37.949-142.167c1.024-3.594,2.951-6.484,5.779-8.669
			c2.821-2.182,6.098-3.275,9.825-3.275h40.261c9.248,0,17.754,2.022,25.524,6.068c7.769,4.045,14.222,9.409,19.36,16.086
			c5.135,6.678,8.668,14.288,10.597,22.828c1.926,8.542,1.665,17.306-0.772,26.294l-0.77,2.891
			c-1.672,6.166-4.239,11.846-7.706,17.049c-3.468,5.2-7.61,9.664-12.426,13.389c-4.815,3.728-10.179,6.615-16.087,8.666
			c-5.906,2.06-12.07,3.084-18.49,3.084h-34.869l6.936-26.008c1.025-3.467,2.953-6.291,5.78-8.476
			c2.821-2.182,6.097-3.274,9.821-3.274h11.176c4.622,0,8.766-1.413,12.426-4.237c3.659-2.825,6.067-6.485,7.223-10.981
			c0.897-3.209,0.994-6.357,0.289-9.439c-0.707-3.083-1.959-5.809-3.756-8.188c-1.801-2.374-4.113-4.3-6.936-5.779
			c-2.826-1.475-5.908-2.215-9.246-2.215h-21.576L156.68,215.305c-1.029,3.467-2.955,6.293-5.779,8.478
			c-2.825,2.186-6.038,3.274-9.631,3.274H114.492z"/>
	</g>
</g>
</svg>
