<?xml version="1.0" encoding="utf-8"?>
<!-- Generator: Adobe Illustrator 16.0.0, SVG Export Plug-In . SVG Version: 6.00 Build 0)  -->
<!DOCTYPE svg PUBLIC "-//W3C//DTD SVG 1.1//EN" "http://www.w3.org/Graphics/SVG/1.1/DTD/svg11.dtd">
<svg version="1.1" id="Capa_1" xmlns="http://www.w3.org/2000/svg" xmlns:xlink="http://www.w3.org/1999/xlink" x="0px" y="0px"
	 width="300px" height="300px" viewBox="0 0 300 300" enable-background="new 0 0 300 300" xml:space="preserve">
<g>
	<g>
		<g>
			<g>
				<g>
					<path fill="#FFFFFF" d="M293.735,269.571c-4.955,4.955-12.987,4.955-17.942,0l-80.717-80.716l17.942-17.942l80.717,80.717
						C298.691,256.584,298.691,264.619,293.735,269.571L293.735,269.571z"/>
					<path fill="#FFFFFF" d="M275.575,140.815H8.694c-3.391,0-6.139-2.749-6.139-6.139v-34.257c0-3.39,2.748-6.139,6.139-6.139
						h266.881c3.39,0,6.138,2.749,6.138,6.139v34.257C281.713,138.066,278.965,140.815,275.575,140.815z"/>
					<path opacity="0.3" fill="#6583FE" d="M275.575,94.281h-48.723v46.534h48.723c3.39,0,6.138-2.749,6.138-6.139v-34.257
						C281.713,97.029,278.965,94.281,275.575,94.281z"/>
					<g>
						<g>
							<path fill="#1C40F2" d="M93.948,130.802C93.947,130.802,93.947,130.802,93.948,130.802c-1.18,0-2.256-0.676-2.767-1.74
								l-9.781-20.369c-0.734-1.528-0.09-3.362,1.438-4.096c1.527-0.733,3.363-0.09,4.097,1.438l7.016,14.61l3.65-7.594
								c0.733-1.528,2.568-2.171,4.096-1.436c1.528,0.734,2.171,2.568,1.437,4.096l-6.418,13.353
								C96.203,130.125,95.128,130.802,93.948,130.802L93.948,130.802z"/>
							<path fill="#1C40F2" d="M106.78,130.8c-1.18,0-2.256-0.676-2.768-1.741l-9.785-20.366c-0.734-1.527-0.09-3.363,1.438-4.096
								c1.527-0.733,3.363-0.09,4.096,1.437l7.018,14.609l7.018-14.609c0.734-1.528,2.568-2.17,4.097-1.437
								c1.527,0.734,2.171,2.569,1.437,4.096l-9.786,20.366C109.036,130.124,107.96,130.8,106.78,130.8z"/>
						</g>
						<g>
							<path fill="#1C40F2" d="M135.717,130.802C135.716,130.802,135.716,130.802,135.717,130.802c-1.18,0-2.255-0.676-2.766-1.74
								l-9.783-20.369c-0.733-1.528-0.089-3.362,1.439-4.096c1.526-0.733,3.361-0.09,4.096,1.438l7.016,14.61l3.65-7.595
								c0.734-1.526,2.567-2.171,4.097-1.436c1.527,0.734,2.171,2.568,1.436,4.096l-6.417,13.353
								C137.973,130.125,136.897,130.802,135.717,130.802z"/>
							<path fill="#1C40F2" d="M148.549,130.8c-1.18,0-2.256-0.676-2.767-1.741l-9.786-20.366c-0.733-1.527-0.09-3.363,1.438-4.096
								c1.528-0.733,3.361-0.09,4.096,1.437l7.018,14.609l7.018-14.609c0.735-1.528,2.567-2.17,4.097-1.437
								c1.528,0.734,2.171,2.569,1.437,4.096l-9.785,20.366C150.805,130.124,149.729,130.8,148.549,130.8L148.549,130.8z"/>
						</g>
						<g>
							<path fill="#1C40F2" d="M177.487,130.802C177.485,130.802,177.485,130.802,177.487,130.802c-1.181,0-2.257-0.676-2.768-1.74
								l-9.782-20.369c-0.733-1.528-0.09-3.362,1.438-4.096c1.527-0.733,3.361-0.09,4.096,1.438l7.017,14.61l3.649-7.594
								c0.733-1.528,2.567-2.171,4.097-1.436c1.526,0.734,2.171,2.568,1.436,4.096l-6.418,13.353
								C179.741,130.125,178.666,130.802,177.487,130.802L177.487,130.802z"/>
							<path fill="#1C40F2" d="M190.318,130.8c-1.18,0-2.255-0.676-2.767-1.741l-9.785-20.366c-0.733-1.527-0.09-3.363,1.438-4.096
								c1.529-0.733,3.362-0.09,4.096,1.437l7.019,14.609l7.019-14.609c0.733-1.528,2.567-2.17,4.096-1.437
								c1.527,0.734,2.172,2.569,1.438,4.096l-9.785,20.366C192.574,130.124,191.499,130.8,190.318,130.8L190.318,130.8z"/>
						</g>
					</g>
				</g>
			</g>
		</g>
		<path fill="#1C40F2" d="M250.735,125.201c1.862,0,3.652-0.467,5.241-1.34l6.345,6.345c0.601,0.599,1.385,0.899,2.171,0.899
			c0.784,0,1.569-0.3,2.17-0.899c1.2-1.199,1.2-3.142,0-4.341l-6.344-6.345c0.871-1.588,1.339-3.377,1.339-5.241
			c0-2.917-1.137-5.66-3.199-7.723v0.001c-2.063-2.063-4.806-3.2-7.723-3.2s-5.66,1.136-7.723,3.2
			c-4.258,4.258-4.258,11.187,0,15.445C245.075,124.066,247.818,125.201,250.735,125.201L250.735,125.201z M247.354,110.898
			c0.903-0.904,2.104-1.401,3.382-1.401s2.479,0.498,3.381,1.401l0,0c1.864,1.864,1.865,4.897,0.001,6.763c0,0,0,0-0.001,0
			c0,0.001,0,0.001,0,0.002c-0.902,0.902-2.104,1.399-3.381,1.399c-1.277,0-2.479-0.498-3.382-1.4
			C245.489,115.797,245.489,112.763,247.354,110.898L247.354,110.898z"/>
	</g>
	<path fill="none" d="M218.709,117.368c0-42.313-34.424-76.737-76.738-76.737c-42.313,0-76.738,34.424-76.738,76.737
		c0,4.582,0.405,9.071,1.179,13.434H217.53C218.304,126.439,218.709,121.95,218.709,117.368L218.709,117.368z"/>
	<path fill="none" d="M141.971,194.105c37.733,0,69.189-27.373,75.559-63.304H66.412C72.783,166.732,104.24,194.105,141.971,194.105
		L141.971,194.105z"/>
	<path fill="#1C40F2" d="M295.906,249.02l-69.437-69.437c7.873-10.691,13.715-22.831,17.067-35.699h32.038
		c5.077,0,9.208-4.131,9.208-9.208V100.42c0-5.078-4.131-9.209-9.208-9.209h-54.959c-10.978-32.92-42.082-56.72-78.645-56.72
		c-36.562,0-67.667,23.8-78.643,56.72H46.664c5.511-20.086,17.472-38.209,33.893-51.254c17.621-14,38.858-21.399,61.416-21.399
		c38.608,0,73.914,22.703,89.945,57.84c0.703,1.543,2.524,2.224,4.066,1.519c1.543-0.704,2.223-2.524,1.518-4.067
		c-17.025-37.318-54.523-61.432-95.529-61.432c-23.958,0-46.516,7.86-65.233,22.731C58.86,49.353,45.959,69.229,40.314,91.21H8.694
		c-5.077,0-9.208,4.131-9.208,9.208v34.256c0,5.077,4.131,9.208,9.208,9.208h31.712c5.692,21.841,18.551,41.579,36.333,55.705
		c18.718,14.87,41.275,22.729,65.232,22.729c22.685,0,44.122-7.057,62.231-20.437l69.422,69.42c3.071,3.073,7.106,4.608,11.14,4.608
		c4.036,0,8.071-1.535,11.143-4.608C302.05,265.159,302.05,255.162,295.906,249.02L295.906,249.02z M141.971,40.631
		c33.133,0,61.426,21.107,72.145,50.581H69.827C80.546,61.738,108.839,40.631,141.971,40.631L141.971,40.631z M8.694,137.745
		c-1.692,0-3.069-1.377-3.069-3.069v-34.257c0-1.691,1.376-3.069,3.069-3.069h266.881c1.691,0,3.067,1.377,3.067,3.069v34.257
		c0,1.691-1.376,3.069-3.067,3.069H8.694z M213.985,143.884c-10.817,29.286-39.017,50.221-72.014,50.221
		c-32.997,0-61.196-20.936-72.013-50.221H213.985z M203.208,194.922c-17.587,13.906-38.763,21.258-61.237,21.258
		c-22.556,0-43.792-7.399-61.414-21.397c-16.324-12.969-28.24-30.955-33.794-50.898h16.691c11.083,32.733,42.088,56.36,78.517,56.36
		c36.428,0,67.433-23.627,78.517-56.36h16.691C231.608,163.899,219.615,181.948,203.208,194.922z M291.565,266.962
		c-1.817,1.816-4.232,2.817-6.802,2.817c-2.568,0-4.983-1.001-6.8-2.817l-68.896-68.896c4.949-4.122,9.496-8.686,13.59-13.614
		l68.907,68.908C295.314,257.11,295.314,263.214,291.565,266.962z"/>
</g>
</svg>
