<?xml version="1.0" encoding="utf-8"?>
<!-- Generator: Adobe Illustrator 16.0.0, SVG Export Plug-In . SVG Version: 6.00 Build 0)  -->
<!DOCTYPE svg PUBLIC "-//W3C//DTD SVG 1.1//EN" "http://www.w3.org/Graphics/SVG/1.1/DTD/svg11.dtd">
<svg version="1.1" id="Layer_1" xmlns="http://www.w3.org/2000/svg" xmlns:xlink="http://www.w3.org/1999/xlink" x="0px" y="0px"
	 width="480px" height="480px" viewBox="0 0 480 480" enable-background="new 0 0 480 480" xml:space="preserve">
<g>
	<path fill="#1C40F2" d="M205.712,443.537v-15.718c52.065-0.058,94.257-42.249,94.313-94.313h15.72
		C315.681,394.246,266.453,443.473,205.712,443.537z"/>
	<path fill="#1C40F2" d="M182.133,137.018v62.876c0,13.021,10.557,23.579,23.579,23.579s23.578-10.558,23.578-23.579v-62.876
		c0-13.021-10.557-23.579-23.578-23.579S182.133,123.997,182.133,137.018z M213.571,137.018v62.876c0,4.34-3.519,7.86-7.859,7.86
		s-7.859-3.52-7.859-7.86v-62.876c0-4.34,3.52-7.859,7.859-7.859C210.052,129.158,213.571,132.678,213.571,137.018z"/>
	<path fill="#1C40F2" d="M417.919,160.596c-30.372-0.034-54.981-24.645-55.018-55.016V85.931
		c0.072-44.908-35.802-81.619-80.697-82.583c-44.897-0.967-82.314,34.17-84.171,79.037C123.08,86.491,64.367,148.404,64.241,223.473
		v110.033c0,78.133,63.341,141.471,141.471,141.471s141.471-63.338,141.471-141.471V223.473
		c-0.123-74.927-58.624-136.778-133.431-141.061c1.842-36.189,32.213-64.3,68.432-63.344c36.222,0.955,65.068,30.632,64.999,66.863
		v19.649c0.046,39.048,31.688,70.689,70.736,70.735h23.577v-15.72h-23.577V160.596z M205.712,459.257
		c-69.416-0.08-125.667-56.337-125.752-125.751V254.91h251.504v78.596C331.383,402.92,275.128,459.177,205.712,459.257z
		 M331.464,223.473v15.719H79.96v-15.719c0-69.45,56.302-125.752,125.752-125.752C275.161,97.72,331.464,154.023,331.464,223.473z"
		/>
	<path fill="#1C40F2" d="M300.025,302.066h15.72v15.72h-15.72V302.066z"/>
</g>
</svg>
