<?xml version="1.0" encoding="utf-8"?>
<!-- Generator: Adobe Illustrator 16.0.0, SVG Export Plug-In . SVG Version: 6.00 Build 0)  -->
<!DOCTYPE svg PUBLIC "-//W3C//DTD SVG 1.1//EN" "http://www.w3.org/Graphics/SVG/1.1/DTD/svg11.dtd">
<svg version="1.1" id="Layer_1" xmlns="http://www.w3.org/2000/svg" xmlns:xlink="http://www.w3.org/1999/xlink" x="0px" y="0px"
	 width="300px" height="300px" viewBox="0 0 300 300" enable-background="new 0 0 300 300" xml:space="preserve">
<g>
	<g>
		<g>
			<g>
				<path fill="#1C40F2" d="M259.354,145.726l-68.209-68.203l-29.055,36.875l31.328,31.324c2.885,2.894,2.885,7.622,0,10.504
					l-9.066,9.068c0,0,6.109,9.137,6.392,9.696c1.409,2.823,1.748,9.456-2.252,12.491l-71.244,54.688
					c-0.017,18.351-0.037,56.099-0.012,56.112c0.017,0.003,142.117-142.057,142.117-142.057
					C262.247,153.332,262.247,148.616,259.354,145.726z"/>
			</g>
			<g>
				<path fill="#1C40F2" d="M100.928,154.309c-2.885-2.882-2.885-7.594,0-10.492l9.07-9.07l-6.2-8.916
					c-2.96-4.193-2.031-10.147,2.052-13.262l71.255-54.701l0.052-56.073l-0.046-0.03l-0.032-0.05L34.992,143.817
					c-2.89,2.897-2.89,7.61,0.006,10.505l68.2,68.197l29.062-36.886L100.928,154.309z"/>
			</g>
		</g>
		<g>
			<path fill="#1C40F2" stroke="#3E8EDE" stroke-miterlimit="10" d="M81.13,265.361c-1.348-0.092-2.694-0.976-3.281-2.158
				c-1.168-2.375,0.543-4.579,1.365-5.641l62.416-79.223c0.573-0.748,0.631-2.281,0.122-3.048l-34.841-50.113
				c-2.609-3.704-1.801-8.953,1.807-11.708l100.401-77.073c1.568-1.222,2.693-1.718,3.902-1.718c1.446,0,2.84,0.875,3.481,2.174
				c1.166,2.407-0.551,4.568-1.371,5.608l-62.438,79.246c-0.559,0.709-0.606,2.302-0.096,3.038c0,0,33.699,48.873,34.857,50.547
				c1.641,2.37,1.631,8.645-1.838,11.273L85.231,263.639C83.819,264.721,82.7,265.352,81.13,265.361z"/>
			<g>
				<path fill="#1C40F2" d="M183.85,176.216c0.815,1.232,1.536,5.854-0.492,7.401L82.951,260.682
					c-0.842,0.658-1.383,0.967-1.624,0.946c-0.348,0.021-0.098-0.587,0.827-1.772l62.412-79.207
					c1.575-2.032,1.678-5.381,0.231-7.477l-34.835-50.131C109.96,123.041,183.042,174.989,183.85,176.216z"/>
			</g>
			<g>
				<path fill="#1C40F2" d="M183.85,176.216l-34.309-49.354c-1.456-2.095-1.335-5.449,0.226-7.441l62.418-79.238
					c0.924-1.181,1.166-1.776,0.834-1.776c-0.25,0-0.806,0.291-1.634,0.947l-100.404,77.071c-2.017,1.546-2.489,4.535-1.022,6.616
					L183.85,176.216z"/>
			</g>
		</g>
	</g>
</g>
<g>
	<path fill="#1C40F2" d="M12.472,44.911c-3.111,0-5.631-2.522-5.631-5.632V13.408c0-3.11,2.52-5.631,5.631-5.631h25.871
		c3.11,0,5.631,2.521,5.631,5.631c0,3.11-2.521,5.631-5.631,5.631H18.102v20.239C18.102,42.391,15.581,44.911,12.472,44.911z"/>
	<path fill="#1C40F2" d="M287.505,292.336h-25.979c-3.123,0-5.653-2.532-5.653-5.654c0-3.123,2.53-5.656,5.653-5.656h20.324v-20.323
		c0-3.123,2.532-5.654,5.655-5.654s5.654,2.531,5.654,5.654v25.979C293.159,289.804,290.628,292.336,287.505,292.336z"/>
	<path fill="#1C40F2" d="M44.869,287.548c0,3.112-2.522,5.634-5.632,5.634h-25.87c-3.111,0-5.632-2.521-5.632-5.634v-25.87
		c0-3.111,2.521-5.632,5.632-5.632c3.109,0,5.63,2.521,5.63,5.632v20.24h20.24C42.349,281.918,44.869,284.438,44.869,287.548z"/>
	<path fill="#1C40F2" d="M292.295,12.516v25.98c0,3.123-2.531,5.654-5.654,5.654s-5.656-2.531-5.656-5.654V18.171H260.66
		c-3.123,0-5.654-2.532-5.654-5.655s2.531-5.654,5.654-5.654h25.98C289.764,6.861,292.295,9.393,292.295,12.516z"/>
</g>
</svg>
