<?xml version="1.0" encoding="utf-8"?>
<!-- Generator: Adobe Illustrator 16.0.0, SVG Export Plug-In . SVG Version: 6.00 Build 0)  -->
<!DOCTYPE svg PUBLIC "-//W3C//DTD SVG 1.1//EN" "http://www.w3.org/Graphics/SVG/1.1/DTD/svg11.dtd">
<svg version="1.1" id="Capa_1" xmlns="http://www.w3.org/2000/svg" xmlns:xlink="http://www.w3.org/1999/xlink" x="0px" y="0px"
	 width="300px" height="300px" viewBox="0 0 300 300" enable-background="new 0 0 300 300" xml:space="preserve">
<g>
	<g>
		<g>
			<path fill="#1C40F2" d="M181.477,111.661v-4.439c0-17.352-14.12-31.469-31.477-31.469s-31.478,14.117-31.478,31.469v4.439
				c-7.951,0.961-14.135,7.747-14.135,15.954v39.264c0,15.091,12.277,27.368,27.369,27.368h36.486
				c15.093,0,27.369-12.277,27.369-27.368v-39.264C195.612,119.408,189.429,112.622,181.477,111.661L181.477,111.661z M150,86.171
				c11.612,0,21.059,9.443,21.059,21.051v4.318H128.94v-4.318C128.94,95.614,138.388,86.171,150,86.171L150,86.171z M185.195,166.88
				c0,9.347-7.604,16.951-16.952,16.951h-36.486c-9.347,0-16.951-7.604-16.951-16.951v-39.263c0-3.122,2.537-5.661,5.658-5.661
				h59.071c3.12,0,5.66,2.539,5.66,5.661V166.88z"/>
			<path fill="#1C40F2" d="M150,135.925c-2.877,0-5.21,2.331-5.21,5.209v13.886c0,2.877,2.333,5.209,5.21,5.209
				s5.208-2.331,5.208-5.209v-13.886C155.208,138.256,152.877,135.925,150,135.925z"/>
		</g>
	</g>
</g>
<g>
	<g>
		<path fill="#1C40F2" d="M263.661,38.612c-15.668,0-28.415-12.748-28.415-28.416c0-3.138-2.544-5.683-5.684-5.683H70.437
			c-3.139,0-5.683,2.545-5.683,5.683c0,15.668-12.748,28.416-28.415,28.416c-3.14,0-5.684,2.544-5.684,5.683v92.743
			c0,72.274,47.11,137.038,117.712,158.21c0.533,0.159,1.082,0.238,1.633,0.238c0.55,0,1.102-0.079,1.632-0.238
			c69.074-20.72,117.713-84.355,117.713-158.21V44.295C269.345,41.156,266.801,38.612,263.661,38.612z M257.979,137.038
			c0,67.882-43.316,126.67-107.979,146.824C85.854,263.869,42.021,204.548,42.021,137.038V49.573
			c17.397-2.499,31.194-16.297,33.695-33.693h148.568c2.5,17.396,16.298,31.194,33.694,33.693V137.038z"/>
	</g>
</g>
</svg>
