<?xml version="1.0" encoding="utf-8"?>
<!-- Generator: Adobe Illustrator 16.0.0, SVG Export Plug-In . SVG Version: 6.00 Build 0)  -->
<!DOCTYPE svg PUBLIC "-//W3C//DTD SVG 1.1//EN" "http://www.w3.org/Graphics/SVG/1.1/DTD/svg11.dtd">
<svg version="1.1" id="Capa_1" xmlns="http://www.w3.org/2000/svg" xmlns:xlink="http://www.w3.org/1999/xlink" x="0px" y="0px"
	 width="1000px" height="1000px" viewBox="0 0 1000 1000" enable-background="new 0 0 1000 1000" xml:space="preserve">
<g>
	<g>
		<path fill="#1C40F2" d="M315.653,246.615c-6.451-7.824-18.075-8.901-25.918-2.479c-0.03,0.026-0.188,0.155-0.217,0.181
			c-7.802,6.474-8.833,17.986-2.382,25.809c3.626,4.399,8.888,6.665,14.192,6.665c4.132,0,8.291-1.375,11.726-4.186
			c0.028-0.025,0.188-0.155,0.216-0.18C321.072,265.949,322.104,254.437,315.653,246.615z"/>
	</g>
</g>
<g>
	<g>
		<path fill="#1C40F2" d="M500,168.833c-49.999,0-98.055,10.869-142.829,32.306c-9.164,4.388-13.036,15.373-8.648,24.539
			c4.388,9.163,15.372,13.038,24.535,8.649c39.777-19.042,82.486-28.698,126.942-28.698c162.314,0,294.369,132.053,294.369,294.37
			c0,34.762-5.994,68.777-17.816,101.104c-3.485,9.544,1.418,20.109,10.959,23.601c2.086,0.763,4.222,1.125,6.318,1.125
			c7.506,0,14.555-4.628,17.281-12.084c13.309-36.394,20.055-74.656,20.055-113.743C831.166,317.395,682.607,168.833,500,168.833z"
			/>
	</g>
</g>
<g>
	<g>
		<path fill="#1C40F2" d="M964.922,604.348l-21.229-19.17c-24.062-21.719-37.855-52.767-37.855-85.179s13.799-63.459,37.855-85.18
			l21.229-19.169c5.781-5.221,7.648-13.514,4.666-20.705l-49.186-118.582c-2.982-7.189-10.148-11.735-17.937-11.327l-28.596,1.461
			c-32.336,1.672-64.033-10.537-86.937-33.438c-22.899-22.9-35.088-54.587-33.438-86.936l1.459-28.596
			c0.396-7.771-4.139-14.95-11.322-17.933L625.054,30.411c-7.191-2.977-15.482-1.115-20.706,4.667L585.18,56.31
			C563.459,80.368,532.414,94.167,500,94.167s-63.459-13.799-85.179-37.856l-19.169-21.233c-5.221-5.782-13.515-7.647-20.706-4.667
			L256.365,79.597c-7.188,2.983-11.722,10.161-11.324,17.933l1.458,28.596c1.652,32.348-10.536,64.036-33.437,86.936
			c-22.902,22.902-54.597,35.109-86.935,33.438l-28.596-1.46c-7.791-0.382-14.951,4.137-17.932,11.326L30.411,374.947
			c-2.983,7.189-1.114,15.485,4.666,20.706l21.233,19.17c24.06,21.72,37.856,52.765,37.856,85.178
			c0,32.412-13.798,63.459-37.856,85.181l-21.233,19.166c-5.78,5.223-7.648,13.518-4.666,20.705l49.187,118.582
			c2.98,7.188,10.151,11.727,17.932,11.325l28.596-1.46c32.342-1.671,64.034,10.534,86.935,33.438
			c22.902,22.9,35.088,54.589,33.437,86.938l-1.459,28.596c-0.397,7.772,4.138,14.951,11.325,17.936l118.581,49.187
			c7.193,2.979,15.483,1.115,20.705-4.666l19.169-21.23c21.72-24.059,52.765-37.854,85.179-37.854s63.459,13.799,85.18,37.854
			l19.17,21.23c3.563,3.949,8.562,6.069,13.658,6.069c2.371,0,4.766-0.459,7.047-1.403l118.58-49.186
			c7.188-2.982,11.724-10.161,11.324-17.937l-1.459-28.596c-1.652-32.35,10.537-64.034,33.439-86.938
			c22.897-22.898,54.582-35.104,86.934-33.438l28.596,1.46c7.789,0.42,14.951-4.138,17.935-11.325l49.186-118.582
			C972.572,617.862,970.705,609.567,964.922,604.348z M891.387,717.55l-15.637-0.801c-42.725-2.167-84.58,13.914-114.832,44.169
			c-30.25,30.25-46.348,72.104-44.164,114.829l0.799,15.637l-94.596,39.235l-10.467-11.591
			c-28.685-31.771-69.687-49.993-112.49-49.993c-42.808,0-83.808,18.222-112.493,49.993l-10.464,11.591l-94.596-39.235l0.799-15.637
			c2.183-42.728-13.916-84.579-44.167-114.829c-30.252-30.251-72.106-46.369-114.832-44.169l-15.636,0.801l-39.234-94.596
			l11.591-10.466c31.773-28.687,49.995-69.688,49.995-112.49c0-42.806-18.222-83.808-49.995-112.493l-11.591-10.464l39.238-94.596
			l15.637,0.801c42.74,2.178,84.579-13.915,114.831-44.169c30.25-30.25,46.349-72.104,44.165-114.83l-0.799-15.637l94.596-39.236
			l10.465,11.591c28.685,31.773,69.688,49.995,112.491,49.995c42.808,0,83.808-18.222,112.491-49.995l10.467-11.591l94.596,39.236
			l-0.799,15.637c-2.184,42.726,13.914,84.579,44.166,114.83c30.25,30.25,72.104,46.356,114.83,44.169l15.637-0.801l39.238,94.596
			l-11.592,10.464c-31.773,28.688-49.994,69.688-49.994,112.493s18.221,83.807,49.994,112.49l11.592,10.466L891.387,717.55z"/>
	</g>
</g>
<g>
	<g>
		<path fill="#1C40F2" d="M675.787,676.755l-67.467-67.468c-22.724-22.725-57.705-26.827-85.066-9.979l-34.171,21.041
			L379.65,510.918l21.042-34.168c16.851-27.364,12.749-62.346-9.978-85.067l-67.47-67.469
			c-26.933-26.931-70.759-26.938-97.695,0.001c-65.527,65.527-65.527,172.146,0,237.674l212.563,212.563
			c31.742,31.743,73.943,49.224,118.837,49.224c44.891,0,87.096-17.479,118.836-49.224
			C702.723,747.516,702.723,703.69,675.787,676.755z M649.77,748.429c-5.523,5.526-11.479,10.47-17.75,14.858L566.832,698.1
			c-7.184-7.181-18.834-7.183-26.021,0c-7.185,7.188-7.187,18.834,0,26.021l56.445,56.447c-12.856,4.133-26.413,6.311-40.309,6.311
			c-35.063,0-68.025-13.652-92.818-38.447L251.57,535.866c-35.938-35.938-46.603-87.692-32.07-133.062l62.822,62.822
			c3.594,3.591,8.301,5.39,13.009,5.39c4.709,0,9.419-1.798,13.01-5.39c7.187-7.184,7.187-18.834,0-26.02l-71.613-71.613
			c4.355-6.241,9.276-12.204,14.84-17.769c6.294-6.293,14.562-9.441,22.83-9.441c8.267,0,16.534,3.147,22.828,9.441l67.47,67.471
			c10.618,10.617,12.536,26.966,4.662,39.754L340.696,504c-4.471,7.253-3.369,16.629,2.655,22.654l129.99,129.986
			c6.024,6.022,15.399,7.123,22.655,2.655l46.547-28.661c12.79-7.873,29.14-5.954,39.758,4.662l67.469,67.468
			C662.357,715.36,662.357,735.841,649.77,748.429z"/>
	</g>
</g>
<g>
	<g>
		<path fill="#1C40F2" d="M573.968,481.602h-55.311c0.597-12.917,11.293-23.244,24.354-23.244c27.216,0,49.354-22.142,49.354-49.354
			c0-27.213-22.142-49.353-49.354-49.353h-42.776c-10.16,0-18.397,8.237-18.397,18.397c0,10.158,8.237,18.397,18.397,18.397h42.776
			c6.925,0,12.562,5.634,12.562,12.557s-5.634,12.557-12.562,12.557c-33.729,0-61.176,27.444-61.176,61.181v17.26
			c0,10.159,8.237,18.399,18.397,18.399h73.732c10.161,0,18.398-8.24,18.398-18.399
			C592.366,489.839,584.129,481.602,573.968,481.602z"/>
	</g>
</g>
<g>
	<g>
		<path fill="#1C40F2" d="M710.186,360.105c-10.157,0-18.396,8.238-18.396,18.397v42.958h-36.94v-42.468
			c0-10.16-8.233-18.398-18.396-18.398s-18.398,8.238-18.398,18.398v60.866c0,10.159,8.236,18.396,18.398,18.396h55.336v41.978
			c0,10.157,8.238,18.396,18.396,18.396c10.16,0,18.398-8.238,18.398-18.396V378.503
			C728.584,368.344,720.346,360.105,710.186,360.105z"/>
	</g>
</g>
</svg>
