<?xml version="1.0" encoding="utf-8"?>
<!-- Generator: Adobe Illustrator 16.0.0, SVG Export Plug-In . SVG Version: 6.00 Build 0)  -->
<!DOCTYPE svg PUBLIC "-//W3C//DTD SVG 1.1//EN" "http://www.w3.org/Graphics/SVG/1.1/DTD/svg11.dtd">
<svg version="1.1" id="Capa_1" xmlns="http://www.w3.org/2000/svg" xmlns:xlink="http://www.w3.org/1999/xlink" x="0px" y="0px"
	 width="512px" height="512px" viewBox="0 0 512 512" enable-background="new 0 0 512 512" xml:space="preserve">
<g>
	<path fill="#1C40F2" d="M473.096,34.611H39.094c-4.132,0-7.483,3.351-7.483,7.483v434c0,4.134,3.351,7.484,7.483,7.484h434
		c4.133,0,7.483-3.353,7.483-7.484v-434C480.579,37.962,477.229,34.611,473.096,34.611z M46.577,49.577h419.037v74.828H46.577
		V49.577z M465.613,468.613H46.577V139.371h419.037L465.613,468.613L465.613,468.613z"/>
	<path fill="#1C40F2" d="M443.165,109.439h-29.931c-4.135,0-7.483-3.351-7.483-7.483v-29.93c0-4.133,3.351-7.483,7.483-7.483h29.931
		c4.133,0,7.483,3.351,7.483,7.483v29.931C450.648,106.089,447.298,109.439,443.165,109.439z M420.717,94.473h14.965V79.508h-14.965
		V94.473z"/>
	<path fill="#1C40F2" d="M383.303,109.439h-29.931c-4.133,0-7.483-3.351-7.483-7.483v-29.93c0-4.133,3.353-7.483,7.483-7.483h29.931
		c4.133,0,7.482,3.351,7.482,7.483v29.931C390.785,106.089,387.436,109.439,383.303,109.439z M360.855,94.473h14.963V79.508h-14.963
		V94.473z"/>
	<path fill="#1C40F2" d="M323.439,109.439h-29.933c-4.132,0-7.479-3.351-7.479-7.483v-29.93c0-4.133,3.35-7.483,7.479-7.483h29.933
		c4.134,0,7.482,3.351,7.482,7.483v29.931C330.924,106.089,327.573,109.439,323.439,109.439z M300.992,94.473h14.966V79.508h-14.966
		V94.473z"/>
	<path fill="#1C40F2" d="M248.612,191.75h14.967v29.931h-14.967V191.75L248.612,191.75z"/>
	<path fill="#1C40F2" d="M210.131,198.791l14.458-3.873l7.746,28.911l-14.458,3.873L210.131,198.791z"/>
	<path fill="#1C40F2" d="M174.786,215.54l12.959-7.483l14.969,25.919l-12.96,7.486L174.786,215.54z"/>
	<path fill="#1C40F2" d="M144.979,240.874l10.584-10.581l21.163,21.167l-10.582,10.582L144.979,240.874z"/>
	<path fill="#1C40F2" d="M122.746,273.064l7.483-12.961l25.922,14.97l-7.486,12.96L122.746,273.064z"/>
	<path fill="#1C40F2" d="M109.607,309.896l3.873-14.455l28.911,7.746l-3.873,14.453L109.607,309.896z"/>
	<path fill="#1C40F2" d="M106.439,333.924h29.931v14.965h-29.931V333.924z"/>
	<path fill="#1C40F2" d="M109.607,372.911l28.912-7.746l3.873,14.455l-28.911,7.745L109.607,372.911z"/>
	<path fill="#1C40F2" d="M369.811,379.62l3.873-14.455l28.91,7.746l-3.873,14.458L369.811,379.62z"/>
	<path fill="#1C40F2" d="M375.818,333.924h29.933v14.965h-29.933V333.924z"/>
	<path fill="#1C40F2" d="M369.805,303.193l28.909-7.748l3.874,14.453l-28.912,7.746L369.805,303.193z"/>
	<path fill="#1C40F2" d="M356.035,275.063l25.922-14.965l7.479,12.963l-25.922,14.961L356.035,275.063z"/>
	<path fill="#1C40F2" d="M335.461,251.456l21.174-21.17l10.581,10.585l-21.171,21.17L335.461,251.456z"/>
	<path fill="#1C40F2" d="M309.479,233.983l14.959-25.923l12.964,7.479l-14.966,25.923L309.479,233.983z"/>
	<path fill="#1C40F2" d="M279.857,223.827l7.746-28.913l14.459,3.873l-7.75,28.912L279.857,223.827z"/>
	<path fill="#1C40F2" d="M324.877,283.206l-10.582-10.581l-48.539,48.532c-8.191-3.884-17.915-2.462-24.651,3.608
		c-6.734,6.068-9.157,15.596-6.138,24.145c3.018,8.551,10.881,14.441,19.93,14.945h1.221c7.716,0.067,14.914-3.866,19.024-10.395
		c4.112-6.527,4.549-14.721,1.156-21.65L324.877,283.206z M261.093,346.975c-1.979,1.834-4.797,2.459-7.368,1.633
		c-2.573-0.82-4.502-2.971-5.046-5.613c-0.545-2.646,0.38-5.379,2.418-7.153c1.371-1.233,3.153-1.92,4.998-1.915h0.405
		c3.021,0.16,5.652,2.126,6.661,4.983c1.009,2.854,0.192,6.036-2.062,8.06L261.093,346.975z"/>
</g>
</svg>
