<?xml version="1.0" encoding="utf-8"?>
<!-- Generator: Adobe Illustrator 16.0.0, SVG Export Plug-In . SVG Version: 6.00 Build 0)  -->
<!DOCTYPE svg PUBLIC "-//W3C//DTD SVG 1.1//EN" "http://www.w3.org/Graphics/SVG/1.1/DTD/svg11.dtd">
<svg version="1.1" id="Layer_1" xmlns="http://www.w3.org/2000/svg" xmlns:xlink="http://www.w3.org/1999/xlink" x="0px" y="0px"
	 width="300px" height="300px" viewBox="0 0 300 300" enable-background="new 0 0 300 300" xml:space="preserve">
<g>
	<path fill="#1C40F2" d="M276.32,6.951H23.678c-10.447,0-18.948,8.501-18.948,18.948v252.643c0,10.448,8.501,18.949,18.948,18.949
		H276.32c10.449,0,18.949-8.501,18.949-18.949V25.899C295.271,15.452,286.77,6.951,276.32,6.951z M282.639,278.542
		c0,3.487-2.83,6.315-6.316,6.315H23.678c-3.48,0-6.315-2.828-6.315-6.315V25.899c0-3.487,2.835-6.317,6.315-6.317H276.32
		c3.488,0,6.316,2.83,6.316,6.317v252.643H282.639z"/>
</g>
<path fill="#1C40F2" d="M211.279,76.012c10.15,0,15.795,7.579,17.205,23.168c0.229,2.37,0.332,4.396,0.332,6.383
	c0,9.804-2.074,19.562-6.53,30.708l-0.039,0.106l-27.571,80.482h-11.828l-28.176-77.179l-26.557,77.181h-11.406l-42.376-116.58
	h23.426l33.549,99.768l21.676-65.011l-12.69-34.759h23.591l33.409,99.392l10.845-36.214l0.67-2.137
	c3.555-11.357,6.125-19.564,6.125-27.003c0-11.245-3.899-19.015-7.557-25.418l-1.102-1.782c-3.896-6.288-7.262-11.718-7.262-17.753
	C199.016,83.067,203.704,76.172,211.279,76.012 M211.281,60.865c-0.107,0-0.215,0-0.321,0.003
	c-7.922,0.167-15.118,3.646-20.269,9.795c-4.4,5.257-6.823,11.897-6.823,18.701c0,10.349,5.065,18.521,9.534,25.733l0.947,1.535
	c2.986,5.248,5.437,10.239,5.437,17.686c0,3.854-1.289,8.928-3.271,15.493l-18.271-54.355c-2.074-6.167-7.854-10.321-14.359-10.321
	h-23.592c-4.944,0-9.578,2.414-12.413,6.466c-2.834,4.051-3.511,9.232-1.816,13.876l10.877,29.79l-5.696,17.081l-19.131-56.894
	c-2.074-6.165-7.852-10.319-14.357-10.319H74.332c-4.94,0-9.572,2.41-12.406,6.457c-2.834,4.047-3.518,9.222-1.83,13.865
	l42.376,116.579c2.176,5.987,7.866,9.972,14.236,9.972h11.406c6.467,0,12.219-4.104,14.323-10.219l12.656-36.782l13.525,37.048
	c2.183,5.978,7.866,9.953,14.229,9.953h11.828c6.475,0,12.23-4.113,14.33-10.238l27.471-80.19
	c5.106-12.864,7.485-24.317,7.485-36.018c0-2.473-0.126-4.95-0.396-7.793c-0.976-10.7-3.674-18.896-8.25-25.054
	C229.641,65.074,221.104,60.865,211.281,60.865L211.281,60.865z"/>
<path fill="#1C40F2" d="M31.775,63.51c-2.706,0-4.899-2.195-4.899-4.9V36.101c0-2.706,2.193-4.899,4.899-4.899h22.509
	c2.706,0,4.9,2.193,4.9,4.899S56.99,41,54.284,41h-17.61v17.609C36.674,61.316,34.481,63.51,31.775,63.51z"/>
<path fill="#1C40F2" d="M271.064,278.779h-22.604c-2.717,0-4.919-2.203-4.919-4.92s2.202-4.922,4.919-4.922h17.684v-17.683
	c0-2.717,2.203-4.919,4.92-4.919c2.718,0,4.92,2.202,4.92,4.919v22.604C275.984,276.576,273.782,278.779,271.064,278.779z"/>
</svg>
